<?xml version="1.0" standalone="no"?>
<!DOCTYPE svg PUBLIC "-//W3C//DTD SVG 1.1//EN" "http://www.w3.org/Graphics/SVG/1.1/DTD/svg11.dtd" >
<svg>
<metadata>
Created by FontForge 20090914 at Thu Nov 11 23:32:10 2021
 By www-data
(c) 2016 Typodermic Fonts Inc.
</metadata>
<defs>
<font id="ConthraxSb-Regular" horiz-adv-x="789" >
  <font-face 
    font-family="Conthrax Sb"
    font-weight="600"
    font-stretch="normal"
    units-per-em="1000"
    panose-1="2 11 7 7 2 2 1 8 2 4"
    ascent="728"
    descent="-272"
    x-height="549"
    cap-height="700"
    bbox="-698.001 -272.002 1732 1116"
    underline-thickness="50"
    underline-position="-50"
    unicode-range="U+0017-U+25CF"
  />
<missing-glyph horiz-adv-x="928" 
d="M597 832c50 0 92.667 -4.83301 128 -14.5s64 -25 86 -46s38 -48.167 48 -81.5s15 -74 15 -122v-494c0 -48 -5 -88.833 -15 -122.5s-26 -61 -48 -82s-50.667 -36.167 -86 -45.5s-78 -14 -128 -14h-266c-50 0 -92.667 4.66699 -128 14s-64 24.5 -86 45.5s-38 48.333 -48 82
s-15 74.5 -15 122.5v494c0 48 5 88.667 15 122s26 60.5 48 81.5s50.667 36.333 86 46s78 14.5 128 14.5h266zM330 -29c0 -20 9.66699 -30 29 -30h131c19.333 0 29 10 29 30v100c0 20 -9.66699 30 -29 30h-131c-19.333 0 -29 -10 -29 -30v-100zM201 535
c0 -20 9.66699 -30 29 -30h325c6.66699 0 11 -1.5 13 -4.5s3 -9.5 3 -19.5c0 -9.33301 -0.666992 -16.333 -2 -21s-4.66602 -8.66699 -9.99902 -12l-168 -96c-7.33301 -4.66699 -13.5 -9.5 -18.5 -14.5s-8.83301 -10.833 -11.5 -17.5s-4.5 -14.667 -5.5 -24
s-1.5 -20.333 -1.5 -33c0 -32 3.16699 -53.667 9.5 -65s17.166 -17 32.499 -17h56c14.667 0 24.667 2.33301 30 7s8.66602 13.667 9.99902 27c1.33301 14 3 24.5 5 31.5s6.33301 12.167 13 15.5l162 82c16 8 29.667 16.5 41 25.5s20.833 20 28.5 33s13.334 28.667 17.001 47
s5.5 40.5 5.5 66.5c0 24 -1.83301 45.833 -5.5 65.5s-10.5 36.5 -20.5 50.5s-24 24.833 -42 32.5s-41.333 11.5 -70 11.5h-396c-19.333 0 -29 -10 -29 -30v-111z" />
    <glyph glyph-name=".notdef" horiz-adv-x="928" 
d="M597 832c50 0 92.667 -4.83301 128 -14.5s64 -25 86 -46s38 -48.167 48 -81.5s15 -74 15 -122v-494c0 -48 -5 -88.833 -15 -122.5s-26 -61 -48 -82s-50.667 -36.167 -86 -45.5s-78 -14 -128 -14h-266c-50 0 -92.667 4.66699 -128 14s-64 24.5 -86 45.5s-38 48.333 -48 82
s-15 74.5 -15 122.5v494c0 48 5 88.667 15 122s26 60.5 48 81.5s50.667 36.333 86 46s78 14.5 128 14.5h266zM330 -29c0 -20 9.66699 -30 29 -30h131c19.333 0 29 10 29 30v100c0 20 -9.66699 30 -29 30h-131c-19.333 0 -29 -10 -29 -30v-100zM201 535
c0 -20 9.66699 -30 29 -30h325c6.66699 0 11 -1.5 13 -4.5s3 -9.5 3 -19.5c0 -9.33301 -0.666992 -16.333 -2 -21s-4.66602 -8.66699 -9.99902 -12l-168 -96c-7.33301 -4.66699 -13.5 -9.5 -18.5 -14.5s-8.83301 -10.833 -11.5 -17.5s-4.5 -14.667 -5.5 -24
s-1.5 -20.333 -1.5 -33c0 -32 3.16699 -53.667 9.5 -65s17.166 -17 32.499 -17h56c14.667 0 24.667 2.33301 30 7s8.66602 13.667 9.99902 27c1.33301 14 3 24.5 5 31.5s6.33301 12.167 13 15.5l162 82c16 8 29.667 16.5 41 25.5s20.833 20 28.5 33s13.334 28.667 17.001 47
s5.5 40.5 5.5 66.5c0 24 -1.83301 45.833 -5.5 65.5s-10.5 36.5 -20.5 50.5s-24 24.833 -42 32.5s-41.333 11.5 -70 11.5h-396c-19.333 0 -29 -10 -29 -30v-111z" />
    <glyph glyph-name="uni0017" horiz-adv-x="335" 
 />
    <glyph glyph-name="space" unicode=" " horiz-adv-x="335" 
 />
    <glyph glyph-name="exclam" unicode="!" horiz-adv-x="266" 
d="M189 735c15.333 0 23 -7.66699 23 -23l-28 -450c-0.666992 -14.667 -8 -22 -22 -22h-58c-14 0 -21.333 7.33301 -22 22l-28 450c0 15.333 7.66699 23 23 23h112zM182 140c14.667 0 22 -7.33301 22 -22v-96c0 -14.667 -7.33301 -22 -22 -22h-98
c-15.333 -0 -23 7.33301 -23 22v96c0 14.667 7.66699 22 23 22h98z" />
    <glyph glyph-name="quotedbl" unicode="&#x22;" horiz-adv-x="491" 
d="M409 750c14.667 0 20.998 -9 18.998 -27l-23 -264c-0.666992 -8 -2.66699 -13.5 -6 -16.5s-8.66602 -4.5 -15.999 -4.5h-55c-7.33301 0 -12.666 1.5 -15.999 4.5s-5.33301 8.5 -6 16.5l-23 264c-2 18 4.33301 27 19 27h107zM188.998 750c14.667 0 20.998 -9 18.998 -27
l-23 -264c-0.666992 -8 -2.66699 -13.5 -6 -16.5s-8.66602 -4.5 -15.999 -4.5h-55c-7.33301 0 -12.666 1.5 -15.999 4.5s-5.33301 8.5 -6 16.5l-23 264c-2 18 4.33301 27 19 27h107z" />
    <glyph glyph-name="numbersign" unicode="#" horiz-adv-x="853" 
d="M213 538v144c0 12 6 18 18 18h59c12 0 18 -6 18 -18v-144h238v144c0 12 6 18 18 18h59c12 0 18 -6 18 -18v-144h135c12 0 18 -6 18 -18v-60c0 -12 -6 -18 -18 -18h-135v-184h135c12 0 18 -6 18 -18v-60c0 -12 -6 -18 -18 -18h-135v-144c0 -12 -6 -18 -18 -18h-59
c-12 0 -18 6 -18 18v144h-238v-144c0 -12 -6 -18 -18 -18h-59c-12 0 -18 6 -18 18v144h-136c-12 0 -18 6 -18 18v60c0 12 6 18 18 18h136v184h-136c-12 0 -18 6 -18 18v60c0 12 6 18 18 18h136zM308 258h238v184h-238v-184z" />
    <glyph glyph-name="dollar" unicode="$" horiz-adv-x="816" 
d="M436 760c12 0 18.001 -6.00195 18.001 -18.002v-75h270c12 0 18 -6.66699 18 -20v-83c0 -13.333 -6 -20 -18 -20h-270v-132h157c54.667 0 94.167 -13 118.5 -39s36.5 -64.667 36.5 -116v-62c0 -23.333 -2.66699 -44.666 -8 -63.999s-14 -35.833 -26 -49.5
s-28 -24.334 -48 -32.001s-44.667 -11.5 -74 -11.5h-156v-80c0 -12 -6 -18 -18 -18h-46c-12 0 -18 6 -18 18v80h-292c-12.667 0 -19 6.66699 -19 20v83c0 13.333 6.33301 20 19 20h292v148h-155c-54 0 -93.5 12.833 -118.5 38.5s-37.5 63.834 -37.5 114.501v49
c0 22.667 2.66699 43.667 8 63s14.166 35.833 26.499 49.5s28.333 24.334 48 32.001s44.167 11.5 73.5 11.5h155v75c0 12 6 18 18 18h46zM454.001 308.998v-148h117c19.333 0 33 4.83301 41 14.5s12 23.167 12 40.5v39c0 36 -17.667 54 -53 54h-117zM204.001 462.998
c0 -34 17.667 -50.999 53 -50.999h115v132h-115c-19.333 0 -33 -4.83301 -41 -14.5s-12 -22.834 -12 -39.501v-27z" />
    <glyph glyph-name="percent" unicode="%" horiz-adv-x="1141" 
d="M882 700c5.33301 0 8.66797 -2 10.001 -6s0.333008 -8 -3 -12l-540 -672c-3.33301 -3.33301 -6.83301 -5.83301 -10.5 -7.5s-9.16699 -2.5 -16.5 -2.5h-61c-5.33301 0 -8.83301 2 -10.5 6s-0.833984 8 2.49902 12l540 672c3.33301 3.33301 6.83301 5.83301 10.5 7.5
s9.16699 2.5 16.5 2.5h62zM928.002 385c55.333 0 94.833 -11 118.5 -33s35.5 -59.333 35.5 -112v-95c0 -52.667 -11.833 -90 -35.5 -112s-63.167 -33 -118.5 -33h-127c-55.333 0 -94.666 11 -117.999 33s-35 59.333 -35 112v95c0 52.667 11.667 90 35 112
s62.666 33 117.999 33h127zM736.002 153c0 -28.667 4.83301 -48 14.5 -58s28.167 -15 55.5 -15h118c27.333 0 45.833 5 55.5 15s14.5 29.333 14.5 58v79c0 28.667 -4.83301 48 -14.5 58s-28.167 15 -55.5 15h-118c-27.333 0 -45.833 -5 -55.5 -15s-14.5 -29.333 -14.5 -58
v-79zM339.002 700c55.333 0 94.833 -11 118.5 -33s35.5 -59.333 35.5 -112v-95c0 -52.667 -11.833 -90 -35.5 -112s-63.167 -33 -118.5 -33h-127c-55.333 0 -94.666 11 -117.999 33s-35 59.333 -35 112v95c0 52.667 11.667 90 35 112s62.666 33 117.999 33h127zM147.002 468
c0 -28.667 4.83301 -48 14.5 -58s28.167 -15 55.5 -15h118c27.333 0 45.833 5 55.5 15s14.5 29.333 14.5 58v79c0 28.667 -4.83301 48 -14.5 58s-28.167 15 -55.5 15h-118c-27.333 0 -45.833 -5 -55.5 -15s-14.5 -29.333 -14.5 -58v-79z" />
    <glyph glyph-name="ampersand" unicode="&#x26;" horiz-adv-x="874" 
d="M484 769c36.667 0 63.499 -9.83203 80.499 -29.499s25.5 -44.167 25.5 -73.5v-80c0 -19.333 -1 -36.166 -3 -50.499s-5.83301 -27 -11.5 -38s-13.5 -21 -23.5 -30s-23 -17.833 -39 -26.5l-77 -42l120 -107l129 151c3.33301 3.33301 6.83301 6 10.5 8s9.5 3 17.5 3h98
c9.33301 0 15.333 -3.16699 18 -9.5s1 -12.833 -5 -19.5l-178 -213l208 -185c4.66699 -4.66699 5.83398 -10.334 3.50098 -17.001s-7.16602 -10 -14.499 -10h-126c-7.33301 0 -13 1 -17 3s-8 5 -12 9l-119 108l-36 -43c-13.333 -16 -25.5 -29 -36.5 -39
s-22.833 -17.833 -35.5 -23.5s-27 -9.5 -43 -11.5s-35.333 -3 -58 -3h-188c-40.667 0 -72.667 11.333 -96 34s-35 59 -35 109v59c0 36.667 6.83301 67 20.5 91s37.5 45.333 71.5 64l112 61l-55 50c-10.667 10 -19.334 19.167 -26.001 27.5s-12 17 -16 26
s-6.83301 18.667 -8.5 29s-2.5 22.166 -2.5 35.499v61c0 37.333 7.66699 67 23 89s41 33 77 33h247zM354.999 119.001c10.667 0 20 0.499023 28 1.49902s15 2.83301 21 5.5s11.667 6.33398 17 11.001s11 10.667 17 18l41 48l-151 138l-98 -53
c-30.667 -14.667 -46 -41.667 -46 -81v-28c0 -22 4.66699 -37.5 14 -46.5s22.333 -13.5 39 -13.5h118zM275.999 575c0 -13.333 1.5 -23.333 4.5 -30s9.5 -14.667 19.5 -24l51 -46l76 42c14.667 7.33301 24 15 28 23s6 19.667 6 35v38c0 12 -3.16699 21.5 -9.5 28.5
s-15.833 10.5 -28.5 10.5h-113c-22.667 0 -34 -15 -34 -45v-32z" />
    <glyph glyph-name="quotesingle" unicode="'" horiz-adv-x="271" 
d="M189 750c14.667 0 20.998 -9 18.998 -27l-23 -264c-0.666992 -8 -2.66699 -13.5 -6 -16.5s-8.66602 -4.5 -15.999 -4.5h-55c-7.33301 0 -12.666 1.5 -15.999 4.5s-5.33301 8.5 -6 16.5l-23 264c-2 18 4.33301 27 19 27h107z" />
    <glyph glyph-name="parenleft" unicode="(" horiz-adv-x="453" 
d="M400 896c8 0 12 -4.66699 12 -14v-68c0 -9.33301 -4 -14 -12 -14h-24c-23.333 0 -44.166 -4.5 -62.499 -13.5s-33.666 -24.667 -45.999 -47s-21.833 -52.333 -28.5 -90s-10 -84.834 -10 -141.501v-340c0 -57.333 3.33301 -104.666 10 -141.999s16.167 -67.333 28.5 -90
s27.666 -38.5 45.999 -47.5s39.166 -13.5 62.499 -13.5h24c8 0 12 -4.66699 12 -14v-68c0 -8.66699 -4 -13 -12 -13h-24c-41.333 0 -77.166 7 -107.499 21s-55.5 36.333 -75.5 67s-35 70.667 -45 120s-15 109.333 -15 180v340c0 70.667 5 130.667 15 180s25 89.333 45 120
s45.167 53 75.5 67s66.166 21 107.499 21h24z" />
    <glyph glyph-name="parenright" unicode=")" horiz-adv-x="453" 
d="M53 -220c-8 0 -12 4.66699 -12 14v68c0 9.33301 4 14 12 14h24c23.333 0 44.166 4.5 62.499 13.5s33.666 24.667 45.999 47s21.833 52.166 28.5 89.499s10 84.666 10 141.999v340c0 56.667 -3.33301 103.834 -10 141.501s-16.167 67.834 -28.5 90.501
s-27.666 38.5 -45.999 47.5s-39.166 13.5 -62.499 13.5h-24c-8 0 -12 4.66699 -12 14v68c0 8.66699 4 13 12 13h24c41.333 0 77.166 -7 107.499 -21s55.5 -36.333 75.5 -67s35 -70.667 45 -120s15 -109.333 15 -180v-340c0 -70.667 -5 -130.667 -15 -180
s-25 -89.333 -45 -120s-45.167 -53 -75.5 -67s-66.166 -21 -107.499 -21h-24z" />
    <glyph glyph-name="asterisk" unicode="*" horiz-adv-x="582" 
d="M259 519l-13.001 215c-1.33301 10.667 2.33398 16 11.001 16h68c8 0 12 -5.33301 12 -16l-13 -214l199 78c10.667 4 17.334 1.66699 20.001 -7l20 -63c3.33301 -8.66699 -0.333984 -14.334 -11.001 -17.001l-207 -54l136 -166c7.33301 -8 7.33301 -14.667 0 -20l-54 -38
c-7.33301 -6.66699 -14 -5 -20 5l-115 180l-116 -180c-6 -8.66699 -12.667 -11 -20 -7l-53 40c-8 4.66699 -8.33301 11.334 -1 20.001l136 165l-208 54c-10 3.33301 -13.667 9.33301 -11 18l21 63c2 8.66699 8.33301 11 19 7z" />
    <glyph glyph-name="plus" unicode="+" horiz-adv-x="613" 
d="M336 614c12 0 18 -6 18 -18v-198h199c12 0 18 -6 18 -18v-60c0 -12 -6 -18 -18 -18h-199v-199c0 -12 -6 -18 -18 -18h-60c-12 0 -18 6 -18 18v199h-198c-12 0 -18 6 -18 18v60c0 12 6 18 18 18h198v198c0 12 6 18 18 18h60z" />
    <glyph glyph-name="comma" unicode="," horiz-adv-x="267" 
d="M183 140c14.667 0 22.001 -7.33301 22.001 -22v-85c0 -8.66699 -0.333008 -16 -1 -22s-2.66699 -14.333 -6 -25l-37 -136c-2.66699 -8.66699 -5.83398 -14.5 -9.50098 -17.5s-9.5 -4.5 -17.5 -4.5h-40c-16 0 -22.333 7.33301 -19 22l27 149h-17
c-15.333 0 -23 7.33301 -23 22v97c0 14.667 7.66699 22 23 22h98z" />
    <glyph glyph-name="hyphen" unicode="-" horiz-adv-x="382" 
d="M341 398c12 0 18 -6 18 -18v-72c0 -12 -6 -18 -18 -18h-301c-12 0 -18 6 -18 18v72c0 12 6 18 18 18h301z" />
    <glyph glyph-name="period" unicode="." horiz-adv-x="267" 
d="M183 140c14.667 0 22 -7.33301 22 -22v-96c0 -14.667 -7.33301 -22 -22 -22h-98c-15.333 -0 -23 7.33301 -23 22v96c0 14.667 7.66699 22 23 22h98z" />
    <glyph glyph-name="slash" unicode="/" horiz-adv-x="414" 
d="M395 815c12.667 0 16.667 -6 12 -18l-300 -928c-2 -5.33301 -4 -9.33301 -6 -12s-6.33301 -4 -13 -4h-70c-12 0 -16 6 -12 18l300 927c2 6 4 10.333 6 13s6.33301 4 13 4h70z" />
    <glyph glyph-name="zero" unicode="0" horiz-adv-x="907" 
d="M569 700c50.667 0 93.667 -4.83301 129 -14.5s64.166 -25 86.499 -46s38.666 -48.167 48.999 -81.5s15.5 -74 15.5 -122v-172c0 -48 -5.16699 -88.833 -15.5 -122.5s-26.666 -61 -48.999 -82s-51.166 -36.167 -86.499 -45.5s-78.333 -14 -129 -14h-231
c-50.667 0 -93.667 4.66699 -129 14s-64.166 24.5 -86.499 45.5s-38.666 48.333 -48.999 82s-15.5 74.5 -15.5 122.5v172c0 48 5.16699 88.667 15.5 122s26.666 60.5 48.999 81.5s51.166 36.333 86.499 46s78.333 14.5 129 14.5h231zM206 270c0 -26.667 2 -48.834 6 -66.501
s11 -31.667 21 -42s23.5 -17.666 40.5 -21.999s38.5 -6.5 64.5 -6.5h231c26 0 47.5 2.16699 64.5 6.5s30.5 11.666 40.5 21.999s17 24.333 21 42s6 39.834 6 66.501v160c0 26.667 -2 48.667 -6 66s-11 31.333 -21 42s-23.5 18.167 -40.5 22.5s-38.5 6.5 -64.5 6.5h-231
c-26 0 -47.5 -2.16699 -64.5 -6.5s-30.5 -11.833 -40.5 -22.5s-17 -24.667 -21 -42s-6 -39.333 -6 -66v-160z" />
    <glyph glyph-name="one" unicode="1" horiz-adv-x="338" 
d="M179 700c33.333 0 57 -6.83301 71 -20.5s21 -35.167 21 -64.5v-593c0 -14.667 -7.33301 -22 -22 -22h-103c-14.667 -0 -22 7.33301 -22 22v524c0 14 -7 21 -21 21h-57c-15.333 0 -23 7.33301 -23 22v89c0 14.667 7.66699 22 23 22h133z" />
    <glyph glyph-name="two" unicode="2" horiz-adv-x="863" 
d="M633 700c60.667 0 105.333 -14.998 134 -44.998s43 -69.333 43 -118v-70c0 -54.667 -14.667 -96.834 -44 -126.501s-73 -44.5 -131 -44.5h-380c-34.667 0 -52 -19 -52 -57v-85c0 -14 6.66699 -21 20 -21h563c15.333 0 23 -7.33301 23 -22v-89
c0 -14.667 -7.66699 -22 -23 -22h-638c-34 0 -58 6.83301 -72 20.5s-21 35.167 -21 64.5v154c0 55.333 14.667 97.833 44 127.5s73 44.5 131 44.5h380c34.667 0 52 18.667 52 56v43c0 17.333 -4 31.166 -12 41.499s-21.667 15.5 -41 15.5h-506c-14.667 0 -22 7.33301 -22 22
v89c0 14.667 7.33301 22 22 22h530z" />
    <glyph glyph-name="three" unicode="3" horiz-adv-x="843" 
d="M590 700c68.667 0 117.501 -13.668 146.501 -41.001s43.5 -68.666 43.5 -123.999v-48c0 -55.333 -19.667 -97.666 -59 -126.999c42.667 -27.333 64 -70.333 64 -129v-58c0 -26.667 -3 -50.667 -9 -72s-16 -39.5 -30 -54.5s-32.333 -26.5 -55 -34.5
s-50.334 -12 -83.001 -12h-536c-14.667 0 -22 7.33301 -22 22v89c0 14.667 7.33301 22 22 22h491c26 0 44.833 5 56.5 15s17.5 25.667 17.5 47v37c0 20.667 -6.16699 36.5 -18.5 47.5s-35.166 16.5 -68.499 16.5h-472c-15.333 0 -23 7.33301 -23 22v71
c0 14.667 7.66699 22 23 22h472c33.333 0 56 5.16699 68 15.5s18 25.166 18 44.499v35c0 21.333 -5.83301 36.833 -17.5 46.5s-30.834 14.5 -57.501 14.5h-489c-14.667 0 -22 7.33301 -22 22v89c0 14.667 7.33301 22 22 22h518z" />
    <glyph glyph-name="four" unicode="4" horiz-adv-x="905" 
d="M528 670c16.667 11.333 31.834 19.168 45.501 23.501s31.834 6.5 54.501 6.5h59c29.333 0 51.166 -6.83301 65.499 -20.5s21.5 -40.834 21.5 -81.501v-329h82c14.667 0 22 -7.66699 22 -23v-81c0 -14.667 -7.33301 -22 -22 -22h-82v-121c0 -14.667 -7.33301 -22 -22 -22
h-103c-15.333 -0 -23 7.33301 -23 22v121h-526c-21.333 0 -37.333 5.66699 -48 17s-16 26 -16 44v76c0 18.667 2.66699 34.167 8 46.5s15.666 23.833 30.999 34.5zM201 276.002c0 -4.66699 2.66699 -7 8 -7h417v287c0 7.33301 -2.66699 11 -8 11h-6
c-6.66699 0 -14 -2.66699 -22 -8l-383 -263c-4 -3.33301 -6 -8 -6 -14v-6z" />
    <glyph glyph-name="five" unicode="5" horiz-adv-x="863" 
d="M762 700c14.667 0 22.001 -7.33105 22.001 -21.998v-89c0 -14.667 -7.33301 -22 -22 -22h-539c-13.333 0 -20 -7 -20 -21v-114c0 -14 6.66699 -21 20 -21h412c58 0 101.667 -14.833 131 -44.5s44 -71.834 44 -126.501v-77c0 -48.667 -14.333 -88 -43 -118
s-73.334 -45 -134.001 -45h-554c-15.333 0 -23 7.33301 -23 22v89c0 14.667 7.66699 22 23 22h530c19.333 0 33 5.16699 41 15.5s12 24.166 12 41.499v50c0 37.333 -17.333 56 -52 56h-462c-34 0 -58 6.66699 -72 20s-21 35 -21 65v234c0 29.333 7 50.833 21 64.5
s38 20.5 72 20.5h614z" />
    <glyph glyph-name="six" unicode="6" horiz-adv-x="868" 
d="M763 700c14.667 0 22 -7.33301 22 -22v-89c0 -14.667 -7.33301 -22 -22 -22h-425c-26 0 -47.5 -2.16699 -64.5 -6.5s-30.5 -11.833 -40.5 -22.5s-17 -24.667 -21 -42s-6 -39.333 -6 -66v-19h431c32 0 59.167 -3.83301 81.5 -11.5s40.5 -18.667 54.5 -33s24 -32 30 -53
s9 -44.833 9 -71.5v-73c0 -53.333 -13.833 -94.833 -41.5 -124.5s-74.5 -44.5 -140.5 -44.5h-292c-50.667 0 -93.667 4.66699 -129 14s-64.166 24.5 -86.499 45.5s-38.666 48.333 -48.999 82s-15.5 74.5 -15.5 122.5v172c0 48 5.16699 88.667 15.5 122
s26.666 60.5 48.999 81.5s51.166 36.333 86.499 46s78.333 14.5 129 14.5h425zM206 301v-36.002c0 -26 2 -47.833 6 -65.5s11 -31.667 21 -42s23.5 -17.666 40.5 -21.999s38.5 -6.5 64.5 -6.5h268c21.333 0 36.5 4.83301 45.5 14.5s13.5 24.834 13.5 45.501v53
c0 20.667 -4.33301 35.667 -13 45s-23.667 14 -45 14h-401z" />
    <glyph glyph-name="seven" unicode="7" horiz-adv-x="829" 
d="M730 700c21.333 0 37.3359 -5.66504 48.0029 -16.998s16 -26 16 -44v-69c0 -21.333 -2.83301 -38.166 -8.5 -50.499s-15.834 -26.5 -30.501 -42.5l-426 -458c-6.66699 -7.33301 -12.834 -12.333 -18.501 -15s-13.834 -4 -24.501 -4h-140c-8 0 -13 3.16699 -15 9.5
s-0.666992 12.166 4 17.499l492 518c2.66699 3.33301 4.66699 6.16602 6 8.49902s2 5.16602 2 8.49902v5c0 4.66699 -3 7 -9 7h-580c-15.333 0 -23 7.33301 -23 22v82c0 14.667 7.66699 22 23 22h684z" />
    <glyph glyph-name="eight" unicode="8" horiz-adv-x="904" 
d="M651 700c68.667 0 117.5 -13.6699 146.5 -41.0029s43.5 -68.666 43.5 -123.999v-48c0 -58 -20.667 -101 -62 -129c44.667 -25.333 67 -67.666 67 -126.999v-58c0 -26.667 -3 -50.667 -9 -72s-16 -39.5 -30 -54.5s-32.333 -26.5 -55 -34.5s-50.334 -12 -83.001 -12h-434
c-33.333 0 -61.166 4 -83.499 12s-40.5 19.5 -54.5 34.5s-24 33.167 -30 54.5s-9 45.333 -9 72v58c0 59.333 22.333 101.666 67 126.999c-41.333 28 -62 71 -62 129v48c0 28 3.5 52.333 10.5 73s18 37.834 33 51.501s34.5 23.834 58.5 30.501s53.333 10 88 10h398z
M207 192.997c0 -21.333 5.66504 -36.833 16.998 -46.5s30.333 -14.5 57 -14.5h342c26.667 0 45.834 4.83301 57.501 14.5s17.5 25.167 17.5 46.5v44c0 20.667 -6.16699 36.334 -18.5 47.001s-35.166 16 -68.499 16h-318c-33.333 0 -56 -5.33301 -68 -16
s-18 -26.334 -18 -47.001v-44zM207.998 466.997c0 -19.333 5.83301 -34.166 17.5 -44.499s34.167 -15.5 67.5 -15.5h318c33.333 0 55.833 5.16699 67.5 15.5s17.5 25.166 17.5 44.499v37c0 20.667 -5.66699 36.5 -17 47.5s-30.333 16.5 -57 16.5h-340
c-26.667 0 -45.667 -5.5 -57 -16.5s-17 -26.833 -17 -47.5v-37z" />
    <glyph glyph-name="nine" unicode="9" horiz-adv-x="868" 
d="M530 700c50.667 0 93.667 -4.83398 129 -14.501s64.166 -25 86.499 -46s38.666 -48.167 48.999 -81.5s15.5 -74 15.5 -122v-172c0 -48 -5.16699 -88.833 -15.5 -122.5s-26.666 -61 -48.999 -82s-51.166 -36.167 -86.499 -45.5s-78.333 -14 -129 -14h-429
c-14.667 0 -22 7.33301 -22 22v89c0 14.667 7.33301 22 22 22h429c26 0 47.5 2.16699 64.5 6.5s30.5 11.666 40.5 21.999s17 24.333 21 42s6 39.834 6 66.501v22h-423c-122.667 0 -184 54 -184 162v66c0 60.667 15.5 105.834 46.5 135.501s79.167 44.5 144.5 44.5h284z
M201 465.999c0 -20.667 4.33301 -36.498 13 -47.498s23.667 -16.5 45 -16.5h403v33c0 26 -2 47.833 -6 65.5s-11 31.667 -21 42s-23.5 17.666 -40.5 21.999s-38.5 6.5 -64.5 6.5h-271c-20.667 0 -35.5 -4.83301 -44.5 -14.5s-13.5 -24.834 -13.5 -45.501v-45z" />
    <glyph glyph-name="colon" unicode=":" horiz-adv-x="267" 
d="M183 220c14.667 0 22 -7.33301 22 -22v-96c0 -14.667 -7.33301 -22 -22 -22h-98c-15.333 0 -23 7.33301 -23 22v96c0 14.667 7.66699 22 23 22h98zM183 519c14.667 0 22 -7.33301 22 -22v-96c0 -14.667 -7.33301 -22 -22 -22h-98c-15.333 0 -23 7.33301 -23 22v96
c0 14.667 7.66699 22 23 22h98z" />
    <glyph glyph-name="semicolon" unicode=";" horiz-adv-x="267" 
d="M183 220c14.667 0 22.001 -7.33301 22.001 -22v-85c0 -8.66699 -0.333008 -16 -1 -22s-2.66699 -14.333 -6 -25l-37 -136c-2.66699 -8.66699 -5.83398 -14.5 -9.50098 -17.5s-9.5 -4.5 -17.5 -4.5h-40c-16 0 -22.333 7.33301 -19 22l27 149h-17
c-15.333 0 -23 7.33301 -23 22v97c0 14.667 7.66699 22 23 22h98zM183.001 519c14.667 0 22 -7.33301 22 -22v-96c0 -14.667 -7.33301 -22 -22 -22h-98c-15.333 0 -23 7.33301 -23 22v96c0 14.667 7.66699 22 23 22h98z" />
    <glyph glyph-name="less" unicode="&#x3c;" horiz-adv-x="613" 
d="M546 608c6.66699 2.66699 12.5 2.33398 17.5 -0.999023s7.5 -8.66602 7.5 -15.999v-60c0 -11.333 -4.66699 -18.333 -14 -21l-396 -145c-5.33301 -2 -8 -5.66699 -8 -11v-6c0 -5.33301 2.66699 -9 8 -11l396 -145c9.33301 -2.66699 14 -9.66699 14 -21v-60
c0 -7.33301 -2.5 -12.5 -7.5 -15.5s-10.833 -3.5 -17.5 -1.5l-460 170c-16 6 -27.333 13.167 -34 21.5s-10 20.166 -10 35.499v60c0 15.333 3.33301 27.166 10 35.499s18 15.5 34 21.5z" />
    <glyph glyph-name="equal" unicode="=" horiz-adv-x="613" 
d="M553 278c12 0 18 -6 18 -18v-59c0 -12 -6 -18 -18 -18h-493c-12 0 -18 6 -18 18v59c0 12 6 18 18 18h493zM553 518c12 0 18 -6 18 -18v-60c0 -12 -6 -18 -18 -18h-493c-12 0 -18 6 -18 18v60c0 12 6 18 18 18h493z" />
    <glyph glyph-name="greater" unicode="&#x3e;" horiz-adv-x="613" 
d="M66 94c-6.66699 -2.66699 -12.5 -2.33398 -17.5 0.999023s-7.5 8.66602 -7.5 15.999v60c0 11.333 4.66699 18.333 14 21l396 145c5.33301 2 8 5.66699 8 11v6c0 5.33301 -2.66699 9 -8 11l-396 145c-9.33301 2.66699 -14 9.66699 -14 21v60c0 7.33301 2.5 12.5 7.5 15.5
s10.833 3.5 17.5 1.5l460 -170c16 -6 27.333 -13.167 34 -21.5s10 -20.166 10 -35.499v-60c0 -15.333 -3.33301 -27.166 -10 -35.499s-18 -15.5 -34 -21.5z" />
    <glyph glyph-name="question" unicode="?" horiz-adv-x="631" 
d="M308 140c15.333 0 23 -7.33301 23 -22v-96c0 -14.667 -7.66699 -22 -23 -22h-98c-14.667 -0 -22 7.33301 -22 22v96c0 14.667 7.33301 22 22 22h98zM462 735c47.333 0 81.832 -11.499 103.499 -34.499s32.5 -56.5 32.5 -100.5v-42c0 -20 -1.5 -37.5 -4.5 -52.5
s-8.16699 -28.167 -15.5 -39.5s-16.833 -21.5 -28.5 -30.5s-26.167 -17.5 -43.5 -25.5l-165 -79c-10 -4.66699 -16.667 -10.334 -20 -17.001s-5.66602 -14.667 -6.99902 -24l-3 -25c-1.33301 -10 -3.83301 -16.667 -7.5 -20s-11.167 -5 -22.5 -5h-44c-10.667 0 -18 2 -22 6
s-6 10.333 -6 19l-1 49c0 17.333 2.5 33.5 7.5 48.5s17.167 27.5 36.5 37.5l170 88c20.667 10 31 27.667 31 53v26c0 28 -14.333 42 -43 42h-359c-14.667 0 -22 7.33301 -22 22v82c0 14.667 7.33301 22 22 22h411z" />
    <glyph glyph-name="at" unicode="@" horiz-adv-x="875" 
d="M613 626c135.333 0 203 -65.668 203 -197.001v-224c0 -63.333 -12.667 -108.666 -38 -135.999s-65.333 -41 -120 -41h-179c-100 0 -150 46.667 -150 140v91c0 92.667 49 139 147 139h231v27c0 66 -34 99 -102 99h-339c-58 0 -87 -32 -87 -96v-387
c0 -98 46.333 -147 139 -147h477c10.667 0 16 -5 16 -15v-83c0 -10.667 -5.33301 -16 -16 -16h-476c-174 0 -261 87 -261 261v397c0 125.333 61.333 188 184 188h371zM625 119.999c28 0 48.667 7 62 21s20 36.667 20 68v103h-204c-43.333 0 -65 -22.667 -65 -68v-57
c0 -44.667 21.667 -67 65 -67h122z" />
    <glyph glyph-name="A" unicode="A" horiz-adv-x="975" 
d="M510 700c25.333 0 46.6709 -5.16699 64.0039 -15.5s34.333 -30.5 51 -60.5l331 -601c3.33301 -6.66699 4.16602 -12.167 2.49902 -16.5s-6.5 -6.5 -14.5 -6.5h-127c-11.333 -0 -19 4.33301 -23 13l-71 129h-470l-69 -129c-4.66699 -8.66699 -12.334 -13 -23.001 -13h-130
c-8.66699 0 -13.834 2.16699 -15.501 6.5s-0.833984 9.83301 2.49902 16.5l328 601c16.667 30 33 50.167 49 60.5s34.667 15.5 56 15.5h59zM316.005 258h344.002l-159 293c-2.66699 4.66699 -6.33398 7 -11.001 7h-6c-4.66699 0 -8.33398 -2.33301 -11.001 -7z" />
    <glyph glyph-name="B" unicode="B" horiz-adv-x="919" 
d="M672 700c68.667 0 117.501 -13.668 146.501 -41.001s43.5 -68.666 43.5 -123.999v-48c0 -56 -21.333 -98.333 -64 -127c46 -26.667 69 -69.667 69 -129v-58c0 -26.667 -3 -50.667 -9 -72s-15.833 -39.5 -29.5 -54.5s-31.834 -26.5 -54.501 -34.5s-50.667 -12 -84 -12
h-594c-20 0 -30 10 -30 30v640c0 20 10 30 30 30h576zM219.001 299.999l-0.000976562 -149.001c0 -8.66699 4.33301 -13 13 -13h410c26.667 0 45.667 4.83301 57 14.5s17 25.167 17 46.5v38c0 20.667 -6.16699 36.334 -18.5 47.001s-35.166 16 -68.499 16h-410zM219 408.998
l410 -0.000976562c33.333 0 56 5 68 15s18 24.667 18 44v34c0 20.667 -5.83301 35.834 -17.5 45.501s-30.5 14.5 -56.5 14.5h-409c-8.66699 0 -13 -4.33301 -13 -13v-140z" />
    <glyph glyph-name="C" unicode="C" horiz-adv-x="852" 
d="M789 700c14.667 0 22 -7.33496 22 -22.002v-98c0 -15.333 -7.33301 -23 -22 -23h-445c-26 0 -47.5 -2.16699 -64.5 -6.5s-30.5 -11.666 -40.5 -21.999s-17.167 -24.166 -21.5 -41.499s-6.5 -39.333 -6.5 -66v-142c0 -26.667 2.16699 -48.834 6.5 -66.501
s11.5 -31.667 21.5 -42s23.5 -17.666 40.5 -21.999s38.5 -6.5 64.5 -6.5h445c14.667 0 22 -7.33301 22 -22v-98c0 -14.667 -7.33301 -22 -22 -22h-451c-50.667 0 -93.667 4.66699 -129 14s-64.166 24.5 -86.499 45.5s-38.666 48.333 -48.999 82s-15.5 74.5 -15.5 122.5v172
c0 48 5.16699 88.667 15.5 122s26.666 60.5 48.999 81.5s51.166 36.333 86.499 46s78.333 14.5 129 14.5h451z" />
    <glyph glyph-name="D" unicode="D" horiz-adv-x="929" 
d="M564 700c54 0 100.333 -5.49805 139 -16.498s70.334 -28 95.001 -51s42.834 -52.333 54.501 -88s17.5 -77.834 17.5 -126.501v-136c0 -48.667 -5.83301 -90.834 -17.5 -126.501s-29.834 -65 -54.501 -88s-56.334 -40 -95.001 -51s-85 -16.5 -139 -16.5h-468
c-20 0 -30 10 -30 30v640c0 20 10 30 30 30h468zM219 152.002c0 -8.66699 4.33301 -13 13 -13h328c29.333 0 54 2.66699 74 8s36.167 14 48.5 26s21.166 28 26.499 48s8 44.667 8 74v110c0 29.333 -2.66699 54 -8 74s-14.166 36 -26.499 48s-28.5 20.667 -48.5 26
s-44.667 8 -74 8h-328c-8.66699 0 -13 -4.66699 -13 -14v-395z" />
    <glyph glyph-name="E" unicode="E" horiz-adv-x="850" 
d="M778 700c15.333 0 23 -7.33496 23 -22.002v-95c0 -14.667 -7.66699 -22 -23 -22h-437c-26 0 -47.5 -2.16699 -64.5 -6.5s-30.667 -11.666 -41 -21.999s-17.5 -24.333 -21.5 -42s-6 -39.5 -6 -65.5v-10h565c14.667 0 22 -7.33301 22 -22v-79
c0 -14.667 -7.33301 -22 -22 -22h-565v-17c0 -26 2 -47.833 6 -65.5s11.167 -31.667 21.5 -42s24 -17.666 41 -21.999s38.5 -6.5 64.5 -6.5h437c15.333 0 23 -7.33301 23 -22v-95c0 -14.667 -7.66699 -22 -23 -22h-440c-50.667 0 -93.667 4.66699 -129 14
s-64.166 24.5 -86.499 45.5s-38.666 48.333 -48.999 82s-15.5 74.5 -15.5 122.5v172c0 48 5.16699 88.667 15.5 122s26.666 60.5 48.999 81.5s51.166 36.333 86.499 46s78.333 14.5 129 14.5h440z" />
    <glyph glyph-name="F" unicode="F" horiz-adv-x="834" 
d="M778 700c15.333 0 23.002 -7.33398 23.002 -22.001v-95c0 -14.667 -7.66699 -22 -23 -22h-434c-26 0 -47.5 -2.16699 -64.5 -6.5s-30.5 -11.666 -40.5 -21.999s-17.167 -24.333 -21.5 -42s-6.5 -39.5 -6.5 -65.5v-20h562c14.667 0 22 -7.33301 22 -22v-79
c0 -14.667 -7.33301 -22 -22 -22h-562v-260c0 -14.667 -7.33301 -22 -22 -22h-108c-15.333 -0 -23 7.33301 -23 22v414c0 48 5.16699 88.667 15.5 122s26.666 60.5 48.999 81.5s51.166 36.333 86.499 46s78.333 14.5 129 14.5h440z" />
    <glyph glyph-name="G" unicode="G" horiz-adv-x="926" 
d="M845 700c14.667 0 22 -7.33496 22 -22.002v-98c0 -15.333 -7.33301 -23 -22 -23h-501c-26 0 -47.5 -2.16699 -64.5 -6.5s-30.5 -11.666 -40.5 -21.999s-17.167 -24.166 -21.5 -41.499s-6.5 -39.333 -6.5 -66v-144c0 -26.667 2.16699 -48.834 6.5 -66.501
s11.5 -31.667 21.5 -42s23.5 -17.666 40.5 -21.999s38.5 -6.5 64.5 -6.5h330c17.333 0 30 4.5 38 13.5s12 24.833 12 47.5v81c0 8.66699 -4 13 -12 13h-293c-14.667 0 -22 7.66699 -22 23v75c0 15.333 7.33301 23 22 23h417c20 0 30 -10 30 -30v-233
c0 -56 -10.667 -95.5 -32 -118.5s-52 -34.5 -92 -34.5h-404c-50.667 0 -93.667 4.66699 -129 14s-64.166 24.5 -86.499 45.5s-38.666 48.333 -48.999 82s-15.5 74.5 -15.5 122.5v172c0 48 5.16699 88.667 15.5 122s26.666 60.5 48.999 81.5s51.166 36.333 86.499 46
s78.333 14.5 129 14.5h507z" />
    <glyph glyph-name="H" unicode="H" horiz-adv-x="906" 
d="M197 700c14.667 0 22 -7.33301 22 -22v-260h468v260c0 14.667 7.33301 22 22 22h108c15.333 0 23 -7.33301 23 -22v-656c0 -14.667 -7.66699 -22 -23 -22h-108c-14.667 -0 -22 7.33301 -22 22v266h-468v-266c0 -14.667 -7.33301 -22 -22 -22h-108
c-15.333 -0 -23 7.33301 -23 22v656c0 14.667 7.66699 22 23 22h108z" />
    <glyph glyph-name="I" unicode="I" horiz-adv-x="286" 
d="M197 700c14.667 0 22 -7.33301 22 -22v-656c0 -14.667 -7.33301 -22 -22 -22h-108c-15.333 -0 -23 7.33301 -23 22v656c0 14.667 7.66699 22 23 22h108z" />
    <glyph glyph-name="J" unicode="J" horiz-adv-x="781" 
d="M694 700c14.667 0 22.001 -7.33301 22.001 -22v-414c0 -48 -5 -88.833 -15 -122.5s-26.167 -61 -48.5 -82s-51.333 -36.167 -87 -45.5s-78.834 -14 -129.501 -14h-390c-15.333 -0 -23 7.33301 -23 22v98c0 14.667 7.66699 22 23 22h385c26 0 47.5 2.16699 64.5 6.5
s30.5 11.666 40.5 21.999s17 24.333 21 42s6 39.834 6 66.501v399c0 14.667 7.66699 22 23 22h108z" />
    <glyph glyph-name="K" unicode="K" horiz-adv-x="854" 
d="M197 700c14.667 0 21.998 -7.33105 21.998 -21.998v-266h141c16 0 29.333 0.5 40 1.5s20 3.16699 28 6.5s15.333 8 22 14s13.667 13.667 21 23l172 230c3.33301 4.66699 6.66602 8 9.99902 10s9.66602 3 18.999 3h124c8.66699 0 13.834 -2.83301 15.501 -8.5
s0.833984 -10.834 -2.49902 -15.501l-194 -251c-11.333 -15.333 -21.833 -28.333 -31.5 -39s-19.167 -20 -28.5 -28c26 -16 51.333 -40 76 -72l205 -260c2.66699 -3.33301 3.66699 -8.5 3 -15.5s-6 -10.5 -16 -10.5h-128c-8.66699 0 -14.667 1 -18 3
s-6.66602 5.33301 -9.99902 10l-184 238c-13.333 17.333 -27.666 29.166 -42.999 35.499s-38.333 9.5 -69 9.5h-152v-274c0 -14.667 -7.33301 -22 -22 -22h-108c-15.333 -0 -23 7.33301 -23 22v656c0 14.667 7.66699 22 23 22h108z" />
    <glyph glyph-name="L" unicode="L" horiz-adv-x="801" 
d="M195 700c14.667 0 21.998 -7.33301 21.998 -22v-399c0 -26.667 2.16699 -48.834 6.5 -66.501s11.5 -31.667 21.5 -42s23.5 -17.666 40.5 -21.999s38.5 -6.5 64.5 -6.5h405c14.667 0 22 -7.33301 22 -22v-98c0 -14.667 -7.33301 -22 -22 -22h-411
c-50.667 0 -93.667 4.66699 -129 14s-64.166 24.5 -86.499 45.5s-38.666 48.333 -48.999 82s-15.5 74.5 -15.5 122.5v414c0 14.667 7.66699 22 23 22h108z" />
    <glyph glyph-name="M" unicode="M" horiz-adv-x="1194" 
d="M264 700c14.667 0 27.3311 -1 37.998 -3s20 -5.83301 28 -11.5s15.167 -13.334 21.5 -23.001s12.833 -22.5 19.5 -38.5l208 -480c2.66699 -6 7.33398 -9 14.001 -9h12c6.66699 0 11.334 3 14.001 9l208 480c6.66699 16 13.167 28.833 19.5 38.5s13.5 17.334 21.5 23.001
s17.167 9.5 27.5 11.5s22.833 3 37.5 3h107c34.667 0 58 -7.83301 70 -23.5s18 -42.5 18 -80.5v-574c0 -14.667 -7.66699 -22 -23 -22h-102c-14.667 -0 -22 7.33301 -22 22v522c0 6.66699 -2.66699 10 -8 10h-9c-6.66699 0 -11 -2.66699 -13 -8l-202 -448
c-8 -18 -16.167 -33.167 -24.5 -45.5s-17.333 -22.5 -27 -30.5s-20.667 -13.667 -33 -17s-26.833 -5 -43.5 -5h-48c-16.667 0 -31.167 1.66699 -43.5 5s-23.333 9 -33 17s-18.667 18.167 -27 30.5s-16.5 27.5 -24.5 45.5l-202 448c-2 5.33301 -6.33301 8 -13 8h-9
c-5.33301 0 -8 -3.33301 -8 -10v-522c0 -14.667 -7.33301 -22 -22 -22h-102c-15.333 -0 -23 7.33301 -23 22v574c0 38 6 64.833 18 80.5s35.667 23.5 71 23.5h109z" />
    <glyph glyph-name="N" unicode="N" horiz-adv-x="978" 
d="M244 700c16 0 29.333 -0.666992 40 -2s20 -4.16602 28 -8.49902s15.667 -10.333 23 -18s15.666 -17.834 24.999 -30.501l372 -488c2.66699 -4.66699 7 -7 13 -7h9c5.33301 0 8 3.33301 8 10v522c0 14.667 7.33301 22 22 22h105c14.667 0 22 -7.33301 22 -22v-574
c0 -40.667 -7.33301 -68.167 -22 -82.5s-37.334 -21.5 -68.001 -21.5h-86c-15.333 0 -28.166 0.666992 -38.499 2s-19.5 4 -27.5 8s-15.833 9.83301 -23.5 17.5s-16.5 18.167 -26.5 31.5l-373 488c-4 4.66699 -8.33301 7 -13 7h-9c-5.33301 0 -8 -3.33301 -8 -10v-522
c0 -14.667 -7.33301 -22 -22 -22h-105c-15.333 -0 -23 7.33301 -23 22v574c0 40.667 7.33301 68.167 22 82.5s37.334 21.5 68.001 21.5h88z" />
    <glyph glyph-name="O" unicode="O" horiz-adv-x="985" 
d="M647 700c50.667 0 93.834 -4.83301 129.501 -14.5s64.667 -25 87 -46s38.5 -48.167 48.5 -81.5s15 -74 15 -122v-172c0 -48 -5 -88.833 -15 -122.5s-26.167 -61 -48.5 -82s-51.333 -36.167 -87 -45.5s-78.834 -14 -129.501 -14h-309c-50.667 0 -93.667 4.66699 -129 14
s-64.166 24.5 -86.499 45.5s-38.666 48.333 -48.999 82s-15.5 74.5 -15.5 122.5v172c0 48 5.16699 88.667 15.5 122s26.666 60.5 48.999 81.5s51.166 36.333 86.499 46s78.333 14.5 129 14.5h309zM211 275c0 -26 2.16699 -47.833 6.5 -65.5s11.5 -31.667 21.5 -42
s23.5 -17.666 40.5 -21.999s38.5 -6.5 64.5 -6.5h297c26 0 47.5 2.16699 64.5 6.5s30.5 11.666 40.5 21.999s17.167 24.333 21.5 42s6.5 39.5 6.5 65.5v150c0 26 -2.16699 47.833 -6.5 65.5s-11.5 31.667 -21.5 42s-23.5 17.666 -40.5 21.999s-38.5 6.5 -64.5 6.5h-297
c-26 0 -47.5 -2.16699 -64.5 -6.5s-30.5 -11.666 -40.5 -21.999s-17.167 -24.333 -21.5 -42s-6.5 -39.5 -6.5 -65.5v-150z" />
    <glyph glyph-name="P" unicode="P" horiz-adv-x="881" 
d="M633 700c76.667 0 131.667 -17.333 165 -52s50 -86 50 -154v-74c0 -68 -16.667 -119.333 -50 -154s-88.333 -52 -165 -52h-414v-192c0 -14.667 -7.33301 -22 -22 -22h-108c-15.333 -0 -23 7.33301 -23 22v648c0 20 10 30 30 30h537zM219 346h383c34 0 58 7.33301 72 22
s21 37 21 67v38c0 30 -7 52.333 -21 67s-38 22 -72 22h-370c-8.66699 0 -13 -4 -13 -12v-204z" />
    <glyph glyph-name="Q" unicode="Q" horiz-adv-x="985" 
d="M647 700c50.667 0 93.832 -4.83301 129.499 -14.5s64.667 -25 87 -46s38.5 -48.167 48.5 -81.5s15 -74 15 -122v-155c0 -81.333 -15.167 -142.5 -45.5 -183.5s-80.833 -66.167 -151.5 -75.5l115 -159c2.66699 -3.33301 3.5 -8.33301 2.5 -15s-6.16699 -10 -15.5 -10h-128
c-8.66699 0 -14.667 1 -18 3s-6.66602 5 -9.99902 9l-115 167h-223c-50.667 0 -93.667 4.66699 -129 14s-64.166 24.5 -86.499 45.5s-38.666 48.333 -48.999 82s-15.5 74.5 -15.5 122.5v155c0 48 5.16699 88.667 15.5 122s26.666 60.5 48.999 81.5s51.166 36.333 86.499 46
s78.333 14.5 129 14.5h309zM210.998 292c0 -26 2.16699 -47.833 6.5 -65.5s11.5 -31.667 21.5 -42s23.5 -17.666 40.5 -21.999s38.5 -6.5 64.5 -6.5h297c26 0 47.5 2.16699 64.5 6.5s30.5 11.666 40.5 21.999s17.167 24.333 21.5 42s6.5 39.5 6.5 65.5v133
c0 26 -2.16699 47.833 -6.5 65.5s-11.5 31.667 -21.5 42s-23.5 17.666 -40.5 21.999s-38.5 6.5 -64.5 6.5h-297c-26 0 -47.5 -2.16699 -64.5 -6.5s-30.5 -11.666 -40.5 -21.999s-17.167 -24.333 -21.5 -42s-6.5 -39.5 -6.5 -65.5v-133z" />
    <glyph glyph-name="R" unicode="R" horiz-adv-x="905" 
d="M633 700c76.667 0 131.665 -17.335 164.998 -52.002s50 -86 50 -154v-57c0 -57.333 -11.667 -102.666 -35 -135.999s-61.333 -54.666 -114 -63.999l171 -212c3.33301 -3.33301 4.33301 -8.33301 3 -15s-6.66602 -10 -15.999 -10h-129c-8.66699 0 -14.667 1 -18 3
s-6.66602 5.33301 -9.99902 10l-158 208h-323v-199c0 -14.667 -7.33301 -22 -22 -22h-108c-15.333 -0 -23 7.33301 -23 22v648c0 20 10 30 30 30h537zM218.998 342.998h383c34 0 58 7.33301 72 22s21 37 21 67v42c0 30 -7 52.333 -21 67s-38 22 -72 22h-370
c-8.66699 0 -13 -4 -13 -12v-208z" />
    <glyph glyph-name="S" unicode="S" horiz-adv-x="857" 
d="M761 700c14.667 0 22 -7.33301 22 -22v-95c0 -14.667 -7.33301 -22 -22 -22h-501c-19.333 0 -33 -5 -41 -15s-12 -23.667 -12 -41v-34c0 -37.333 17.333 -56 52 -56h375c58 0 101.667 -14.833 131 -44.5s44 -72.167 44 -127.5v-80c0 -48.667 -14.333 -88 -43 -118
s-73.334 -45 -134.001 -45h-554c-15.333 -0 -23 7.33301 -23 22v95c0 14.667 7.66699 22 23 22h525c19.333 0 33 5 41 15s12 23.667 12 41v41c0 37.333 -17.333 56 -52 56h-375c-58 0 -101.667 14.833 -131 44.5s-44 72.167 -44 127.5v73c0 48.667 14.333 88 43 118
s73.334 45 134.001 45h530z" />
    <glyph glyph-name="T" unicode="T" horiz-adv-x="873" 
d="M827 700c15.333 0 23 -7.33301 23 -22v-98c0 -15.333 -7.66699 -23 -23 -23h-314v-535c0 -14.667 -7.33301 -22 -22 -22h-109c-14.667 -0 -22 7.33301 -22 22v535h-314c-15.333 0 -23 7.66699 -23 23v98c0 14.667 7.66699 22 23 22h781z" />
    <glyph glyph-name="U" unicode="U" horiz-adv-x="977" 
d="M195 700c14.667 0 21.999 -7.33301 21.999 -22v-399c0 -26.667 2.16699 -48.834 6.5 -66.501s11.5 -31.667 21.5 -42s23.5 -17.666 40.5 -21.999s38.5 -6.5 64.5 -6.5h277c26 0 47.5 2.16699 64.5 6.5s30.5 11.666 40.5 21.999s17 24.333 21 42s6 39.834 6 66.501v399
c0 14.667 7.33301 22 22 22h109c14.667 0 22 -7.33301 22 -22v-414c0 -48 -5 -88.833 -15 -122.5s-26.167 -61 -48.5 -82s-51.333 -36.167 -87 -45.5s-78.834 -14 -129.501 -14h-288c-50.667 0 -93.667 4.66699 -129 14s-64.166 24.5 -86.499 45.5
s-38.666 48.333 -48.999 82s-15.5 74.5 -15.5 122.5v414c0 14.667 7.66699 22 23 22h108z" />
    <glyph glyph-name="V" unicode="V" horiz-adv-x="975" 
d="M157 700c6.66699 0 11.4961 -1 14.4961 -3s5.83301 -5.33301 8.5 -10l293 -538c2 -4.66699 6 -7 12 -7h5c4.66699 0 8.33398 2.33301 11.001 7l289 538c4 8.66699 11.667 13 23 13h131c8 0 12.833 -2.16699 14.5 -6.5s0.833984 -9.83301 -2.49902 -16.5l-328 -601
c-16.667 -30.667 -33 -51 -49 -61s-34.667 -15 -56 -15h-58c-26 0 -47.5 5 -64.5 15s-33.833 30.333 -50.5 61l-332 601c-3.33301 6.66699 -4.16602 12.167 -2.49902 16.5s6.83398 6.5 15.501 6.5h126z" />
    <glyph glyph-name="W" unicode="W" horiz-adv-x="1303" 
d="M164 700c6.66699 0 11.3311 -4.33301 13.998 -13l162 -538c0.666992 -4.66699 3.33398 -7 8.00098 -7h5c4 0 6.66699 2.33301 8 7l162 493c7.33301 22.667 17 38 29 46s27 12 45 12h99c22 0 38.833 -4.33301 50.5 -13s21.167 -23.667 28.5 -45l166 -493
c1.33301 -4.66699 4 -7 8 -7h6c4 0 6.66699 2.33301 8 7l158 538c1.33301 5.33301 3.5 8.83301 6.5 10.5s6.16699 2.5 9.5 2.5h135c5.33301 0 8.5 -2.33301 9.5 -7s0.5 -10 -1.5 -16l-192 -601c-9.33301 -30 -19.666 -50.167 -30.999 -60.5s-26.666 -15.5 -45.999 -15.5
h-117c-19.333 -0 -34.5 5.33301 -45.5 16s-21.5 30.667 -31.5 60l-157 475c-0.666992 4.66699 -3.33398 7 -8.00098 7h-4c-4.66699 0 -7.33398 -2.33301 -8.00098 -7l-159 -475c-10 -29.333 -20.5 -49.333 -31.5 -60s-26.167 -16 -45.5 -16h-114
c-11.333 0 -21.166 1 -29.499 3s-15.833 5.83301 -22.5 11.5s-12.5 13.5 -17.5 23.5s-9.83301 22.667 -14.5 38l-184 601c-2 6.66699 -2.5 12.167 -1.5 16.5s4.16699 6.5 9.5 6.5h134z" />
    <glyph glyph-name="X" unicode="X" horiz-adv-x="891" 
d="M845 700c9.33301 0 14.5 -3.16699 15.5 -9.5s-0.833008 -11.833 -5.5 -16.5l-307 -311l321 -337c4.66699 -4.66699 6.5 -10.167 5.5 -16.5s-6.16699 -9.5 -15.5 -9.5h-137c-8 0 -14.333 1 -19 3s-9 5.66699 -13 11l-247 259l-248 -259
c-4.66699 -5.33301 -9.16699 -9 -13.5 -11s-10.833 -3 -19.5 -3h-130c-8.66699 0 -13.5 3.16699 -14.5 9.5s0.833008 11.833 5.5 16.5l329 342l-297 306c-4 4.66699 -5.66699 10.167 -5 16.5s5.66699 9.5 15 9.5h137c8 0 14.333 -1.16699 19 -3.5s9 -5.83301 13 -10.5
l218 -232l231 232c4 4.66699 8.33301 8.16699 13 10.5s11 3.5 19 3.5h130z" />
    <glyph glyph-name="Y" unicode="Y" horiz-adv-x="896" 
d="M158 700c10.667 0 18.666 -4 23.999 -12l267 -361l269 361c5.33301 8 13.333 12 24 12h131c5.33301 0 9 -2.16699 11 -6.5s1.33301 -8.83301 -2 -13.5l-359 -466v-192c0 -14.667 -7.33301 -22 -22 -22h-108c-15.333 -0 -23 7.33301 -23 22v192l-355 466
c-3.33301 4.66699 -4.16602 9.16699 -2.49902 13.5s5.5 6.5 11.5 6.5h134z" />
    <glyph glyph-name="Z" unicode="Z" horiz-adv-x="854" 
d="M724 700c52.667 0 79.002 -25.332 79.002 -75.999v-91c0 -12 -0.833008 -22.167 -2.5 -30.5s-4.33398 -15.666 -8.00098 -21.999s-8.66699 -11.833 -15 -16.5s-14.5 -9.66699 -24.5 -15l-529 -279c-6 -3.33301 -9 -8.33301 -9 -15v-7c0 -6 3.33301 -9 10 -9h549
c15.333 0 23 -7.33301 23 -22v-95c0 -14.667 -7.66699 -22 -23 -22h-647c-28 0 -48.167 6.16699 -60.5 18.5s-18.5 31.166 -18.5 56.499v91c0 12 0.666992 22.167 2 30.5s3.66602 15.666 6.99902 21.999s8 11.833 14 16.5s14 9.66699 24 15l527 280
c6 3.33301 9 8.33301 9 15v7c0 6 -3.33301 9 -10 9h-544c-15.333 0 -23 7.33301 -23 22v95c0 14.667 7.66699 22 23 22h647z" />
    <glyph glyph-name="bracketleft" unicode="[" horiz-adv-x="453" 
d="M400 896c8 0 12 -4.66699 12 -14v-68c0 -9.33301 -4 -14 -12 -14h-143c-16 0 -24 -9 -24 -27v-871c0 -18 8 -27 24 -27h143c8 0 12 -4.66699 12 -14v-68c0 -9.33301 -4 -14 -12 -14h-181c-28 0 -48.5 7.33301 -61.5 22s-19.5 37.667 -19.5 69v935
c0 31.333 6.5 54.333 19.5 69s33.5 22 61.5 22h181z" />
    <glyph glyph-name="backslash" unicode="\" horiz-adv-x="414" 
d="M88 815c6.66699 0 11 -1.33301 13 -4s4 -7 6 -13l300 -927c4 -12 0 -18 -12 -18h-70c-6.66699 0 -11 1.33301 -13 4s-4 6.66699 -6 12l-300 928c-4.66699 12 -0.666992 18 12 18h70z" />
    <glyph glyph-name="bracketright" unicode="]" horiz-adv-x="453" 
d="M53 -221c-8 0 -12 4.66699 -12 14v68c0 9.33301 4 14 12 14h143c16 0 24 9 24 27v871c0 18 -8 27 -24 27h-143c-8 0 -12 4.66699 -12 14v68c0 9.33301 4 14 12 14h181c28 0 48.5 -7.33301 61.5 -22s19.5 -37.667 19.5 -69v-935c0 -31.333 -6.5 -54.333 -19.5 -69
s-33.5 -22 -61.5 -22h-181z" />
    <glyph glyph-name="asciicircum" unicode="^" horiz-adv-x="613" 
d="M336 700c14.667 0 26.3291 -3.16699 34.9961 -9.5s16 -18.166 22 -35.499l170 -470c2.66699 -7.33301 2.33398 -13.333 -0.999023 -18s-8.66602 -7 -15.999 -7h-59c-12 0 -19.333 4.33301 -22 13l-145 408c-1.33301 4.66699 -5 7 -11 7h-6c-6 0 -9.66699 -2.33301 -11 -7
l-145 -408c-2.66699 -8.66699 -9.66699 -13 -21 -13h-60c-7.33301 0 -12.666 2.33301 -15.999 7s-3.66602 10.667 -0.999023 18l170 470c6 17.333 13.5 29.166 22.5 35.499s20.5 9.5 34.5 9.5h60z" />
    <glyph glyph-name="underscore" unicode="_" horiz-adv-x="642" 
d="M619 -72c12 0 18 -6 18 -18v-60c0 -12 -6 -18 -18 -18h-595c-12 0 -18 6 -18 18v60c0 12 6 18 18 18h595z" />
    <glyph glyph-name="grave" unicode="`" horiz-adv-x="393" 
d="M188 816c13.333 0 23.668 -7.66699 31.001 -23l91 -185c3.33301 -7.33301 3.5 -13 0.5 -17s-8.5 -6 -16.5 -6h-75c-8 0 -14.167 2 -18.5 6s-8.5 9.66699 -12.5 17l-103 185c-4 7.33301 -4.33301 13 -1 17s8.66602 6 15.999 6h88z" />
    <glyph glyph-name="a" unicode="a" 
d="M507 549c44.667 0 82.333 -3.83203 113 -11.499s55.167 -19.667 73.5 -36s31.5 -37.333 39.5 -63s12 -56.5 12 -92.5v-266c0 -16 -1.16699 -29.167 -3.5 -39.5s-6.33301 -18.5 -12 -24.5s-13.167 -10.167 -22.5 -12.5s-21.333 -3.5 -36 -3.5h-476
c-29.333 0 -53.833 2.83301 -73.5 8.5s-35.5 14.167 -47.5 25.5s-20.5 26 -25.5 44s-7.5 39.333 -7.5 64v48c0 20.667 2.5 39.167 7.5 55.5s13.5 30.166 25.5 41.499s27.833 19.833 47.5 25.5s44.167 8.5 73.5 8.5h407v19c0 16 -1.66699 29.667 -5 41s-9 20.5 -17 27.5
s-19 12.167 -33 15.5s-32 5 -54 5h-418c-12 0 -18 6 -18 18v84c0 12 6 18 18 18h432zM572.999 110.001c10.667 0 18.167 2.5 22.5 7.5s6.5 13.833 6.5 26.5v88h-366c-20.667 0 -35.167 -4.16699 -43.5 -12.5s-12.5 -20.5 -12.5 -36.5v-21c0 -18 4.16699 -31.167 12.5 -39.5
s22.833 -12.5 43.5 -12.5h337z" />
    <glyph glyph-name="b" unicode="b" horiz-adv-x="871" 
d="M181 750c14.667 0 21.998 -7.33301 21.998 -22v-179h375c44.667 0 82.334 -3.83301 113.001 -11.5s55.167 -19.667 73.5 -36s31.5 -37.333 39.5 -63s12 -56.5 12 -92.5v-144c0 -36 -4 -66.833 -12 -92.5s-21.167 -46.667 -39.5 -63s-42.833 -28.166 -73.5 -35.499
s-68.334 -11 -113.001 -11h-280c-45.333 0 -83.166 3.66699 -113.499 11s-54.666 19.166 -72.999 35.499s-31.5 37.333 -39.5 63s-12 56.5 -12 92.5v526c0 14.667 7.66699 22 23 22h98zM202.998 429l0.000976562 -198.999c0 -21.333 1.66699 -39 5 -53
s9.16602 -25.167 17.499 -33.5s19.5 -14.333 33.5 -18s31.667 -5.5 53 -5.5h252c22 0 40 1.83301 54 5.5s25.167 9.66699 33.5 18s14.166 19.5 17.499 33.5s5 31.667 5 53v89c0 20.667 -1.66699 38.167 -5 52.5s-9.16602 25.666 -17.499 33.999s-19.5 14.333 -33.5 18
s-32 5.5 -54 5.5h-361z" />
    <glyph glyph-name="c" unicode="c" horiz-adv-x="729" 
d="M679 549c12 0 18 -6 18 -18v-84c0 -12 -6 -18 -18 -18h-388c-22 0 -40 -1.83301 -54 -5.5s-25 -9.66699 -33 -18s-13.667 -19.666 -17 -33.999s-5 -31.833 -5 -52.5v-89c0 -21.333 1.66699 -39 5 -53s9 -25.167 17 -33.5s19 -14.333 33 -18s32 -5.5 54 -5.5h388
c12 0 18 -6 18 -18v-84c0 -12 -6 -18 -18 -18h-402c-45.333 0 -83.166 3.66699 -113.499 11s-54.666 19.166 -72.999 35.499s-31.5 37.333 -39.5 63s-12 56.5 -12 92.5v144c0 36 4 66.833 12 92.5s21.167 46.667 39.5 63s42.666 28.333 72.999 36s68.166 11.5 113.499 11.5
h402z" />
    <glyph glyph-name="d" unicode="d" horiz-adv-x="871" 
d="M668 549l0.000976562 179c0 14.667 7.33301 22 22 22h98c14.667 0 22 -7.33301 22 -22v-526c0 -36 -4 -66.833 -12 -92.5s-21.167 -46.667 -39.5 -63s-42.833 -28.166 -73.5 -35.499s-68.334 -11 -113.001 -11h-280c-45.333 0 -83.166 3.66699 -113.499 11
s-54.666 19.166 -72.999 35.499s-31.5 37.333 -39.5 63s-12 56.5 -12 92.5v144c0 36 4 66.833 12 92.5s21.167 46.667 39.5 63s42.666 28.333 72.999 36s68.166 11.5 113.499 11.5h376zM558.001 120c22 0 40.001 1.83203 54.001 5.49902s25.167 9.66699 33.5 18
s14.166 19.5 17.499 33.5s5 31.667 5 53v199h-362c-21.333 0 -39 -1.83301 -53 -5.5s-25.167 -9.66699 -33.5 -18s-14.166 -19.666 -17.499 -33.999s-5 -31.833 -5 -52.5v-89c0 -21.333 1.66699 -39 5 -53s9.16602 -25.167 17.499 -33.5s19.5 -14.333 33.5 -18
s31.667 -5.5 53 -5.5h252z" />
    <glyph glyph-name="e" unicode="e" 
d="M572 549c34 0 62.166 -2.83301 84.499 -8.5s40 -15 53 -28s22.167 -30 27.5 -51s8 -46.5 8 -76.5v-95c0 -21.333 -4.66699 -36.166 -14 -44.499s-23.666 -12.5 -42.999 -12.5h-505v-24c0 -31.333 7.5 -54 22.5 -68s44.167 -21 87.5 -21h417c12 0 18 -6 18 -18v-84
c0 -12 -6 -18 -18 -18h-431c-45.333 0 -83.166 3.66699 -113.499 11s-54.666 19.166 -72.999 35.499s-31.5 37.333 -39.5 63s-12 56.5 -12 92.5v144c0 36 4 66.833 12 92.5s21.167 46.667 39.5 63s42.666 28.333 72.999 36s68.166 11.5 113.499 11.5h293zM182.999 322
l405 -0.000976562c11.333 0 17 5.66699 17 17v42c0 20.667 -4.33301 35.334 -13 44.001s-24.667 13 -48 13h-251c-43.333 0 -72.5 -6.83301 -87.5 -20.5s-22.5 -36.5 -22.5 -68.5v-27z" />
    <glyph glyph-name="f" unicode="f" horiz-adv-x="490" 
d="M131 549l0.000976562 21c0 35.333 3 65.5 9 90.5s16.667 45.5 32 61.5s36 27.833 62 35.5s59 11.5 99 11.5h121c12 0 18 -6 18 -18v-82c0 -12 -6 -18 -18 -18h-97c-32.667 0 -54.834 -6.5 -66.501 -19.5s-17.5 -33.5 -17.5 -61.5v-21h175c12 0 18 -6 18 -18v-82
c0 -12 -6 -18 -18 -18h-175v-409c0 -14.667 -7.33301 -22 -22 -22h-98c-14.667 -0 -22 7.33301 -22 22v409h-96c-12 0 -18 6 -18 18v82c0 12 6 18 18 18h96z" />
    <glyph glyph-name="g" unicode="g" horiz-adv-x="871" 
d="M572 549c45.333 0 83.167 -3.83203 113.5 -11.499s54.833 -19.5 73.5 -35.5s31.834 -36.833 39.501 -62.5s11.5 -56.5 11.5 -92.5v-364c0 -36.667 -3.83301 -67.834 -11.5 -93.501s-20.834 -46.667 -39.501 -63s-43.167 -28.333 -73.5 -36s-68.166 -11.5 -113.499 -11.5
h-471c-12 0 -18 6 -18 18v84c0 12 6 18 18 18h457c22 0 40 1.83301 54 5.5s25.167 9.66699 33.5 18s14.166 19.666 17.499 33.999s5 32.166 5 53.499v26h-376c-45.333 0 -83.166 3.83301 -113.499 11.5s-54.666 19.667 -72.999 36s-31.5 37.333 -39.5 63
s-12 56.834 -12 93.501v105c0 36.667 4 67.834 12 93.501s21.167 46.667 39.5 63s42.666 28.333 72.999 36s68.166 11.5 113.499 11.5h280zM197.001 241.001c0 -17.333 1.66699 -31.832 5 -43.499s9.16602 -21.334 17.499 -29.001s19.5 -13.167 33.5 -16.5s31.667 -5 53 -5
h362v187c0 35.333 -7.5 60.333 -22.5 75s-44.167 22 -87.5 22h-252c-21.333 0 -39 -1.66699 -53 -5s-25.167 -8.83301 -33.5 -16.5s-14.166 -17.5 -17.499 -29.5s-5 -26.333 -5 -43v-96z" />
    <glyph glyph-name="h" unicode="h" horiz-adv-x="879" 
d="M184 750c14.667 0 21.999 -7.33203 21.999 -21.999v-179h374c44.667 0 82.334 -3.83301 113.001 -11.5s55.167 -19.667 73.5 -36s31.5 -37.333 39.5 -63s12 -56.5 12 -92.5v-324c0 -14.667 -7.33301 -22 -22 -22h-98c-14.667 0 -22 7.33301 -22 22v290
c0 20.667 -1.33301 38.167 -4 52.5s-7.83398 25.666 -15.501 33.999s-18.167 14.333 -31.5 18s-30.666 5.5 -51.999 5.5h-367v-400c0 -14.667 -7.33301 -22 -22 -22h-98c-14.667 -0 -22 7.33301 -22 22v706c0 14.667 7.33301 22 22 22h98z" />
    <glyph glyph-name="i" unicode="i" horiz-adv-x="270" 
d="M184 549c14.667 0 22 -7.66699 22 -23v-504c0 -14.667 -7.33301 -22 -22 -22h-98c-14.667 -0 -22 7.33301 -22 22v504c0 15.333 7.33301 23 22 23h98zM184 752c14.667 0 22 -7.33301 22 -22v-95c0 -15.333 -7.33301 -23 -22 -23h-98c-15.333 0 -23 7.66699 -23 23v95
c0 14.667 7.66699 22 23 22h98z" />
    <glyph glyph-name="j" unicode="j" horiz-adv-x="282" 
d="M198 549c14.667 0 21.9971 -7.66895 21.9971 -23.002v-546c0 -36 -3.66699 -66.667 -11 -92s-19.833 -46.166 -37.5 -62.499s-41.167 -28.166 -70.5 -35.499s-65.666 -11 -108.999 -11h-79c-12 0 -18 6 -18 18v84c0 12 6 18 18 18h65c20 0 36.333 1.83301 49 5.5
s22.834 9.66699 30.501 18s12.834 19.5 15.501 33.5s4 31.333 4 52v518c0 15.333 7.66699 23 23 23h98zM197.997 751.998c14.667 0 22 -7.33301 22 -22v-95c0 -15.333 -7.33301 -23 -22 -23h-98c-15.333 0 -23 7.66699 -23 23v95c0 14.667 7.66699 22 23 22h98z" />
    <glyph glyph-name="k" unicode="k" horiz-adv-x="794" 
d="M183 750c14.667 0 21.999 -7.33301 21.999 -22v-396h184c14 0 25.833 0.5 35.5 1.5s18.167 3 25.5 6s13.833 7.16699 19.5 12.5s11.834 12.666 18.501 21.999l112 158c4 6 8.16699 10.333 12.5 13s10.166 4 17.499 4h113c7.33301 0 12 -2.83301 14 -8.5
s0.666992 -11.834 -4 -18.501l-129 -177c-20 -27.333 -40.667 -48.666 -62 -63.999c27.333 -15.333 51 -36.666 71 -63.999l142 -192c4 -5.33301 4.83301 -10.833 2.5 -16.5s-7.16602 -8.5 -14.499 -8.5h-112c-8.66699 0 -15 1 -19 3s-8 5.66699 -12 11l-122 168
c-12 16 -24.833 27 -38.5 33s-34.167 9 -61.5 9h-193v-202c0 -14.667 -7.33301 -22 -22 -22h-98c-15.333 -0 -23 7.33301 -23 22v706c0 14.667 7.66699 22 23 22h98z" />
    <glyph glyph-name="l" unicode="l" horiz-adv-x="270" 
d="M184 750c14.667 0 22 -7.33301 22 -22v-706c0 -14.667 -7.33301 -22 -22 -22h-98c-14.667 -0 -22 7.33301 -22 22v706c0 14.667 7.33301 22 22 22h98z" />
    <glyph glyph-name="m" unicode="m" horiz-adv-x="1107" 
d="M809 549c44.667 0 82.166 -3.83301 112.499 -11.5s54.833 -19.667 73.5 -36s31.834 -37.333 39.501 -63s11.5 -56.5 11.5 -92.5v-324c0 -14.667 -7.33301 -22 -22 -22h-98c-14.667 -0 -22 7.33301 -22 22v290c0 20.667 -1.33301 38.167 -4 52.5
s-7.66699 25.666 -15 33.999s-17.666 14.333 -30.999 18s-31 5.5 -53 5.5h-176v-400c0 -14.667 -7.66699 -22 -23 -22h-98c-14.667 0 -22 7.33301 -22 22v400h-170c-21.333 0 -39 -1.83301 -53 -5.5s-25.167 -9.66699 -33.5 -18s-14.166 -19.666 -17.499 -33.999
s-5 -31.833 -5 -52.5v-290c0 -14.667 -7.33301 -22 -22 -22h-98c-15.333 -0 -23 7.33301 -23 22v324c0 36 4 66.833 12 92.5s21.167 46.667 39.5 63s42.666 28.333 72.999 36s68.166 11.5 113.499 11.5h511z" />
    <glyph glyph-name="n" unicode="n" horiz-adv-x="884" 
d="M585 549c44.667 0 82.334 -3.83301 113.001 -11.5s55.167 -19.667 73.5 -36s31.5 -37.333 39.5 -63s12 -56.5 12 -92.5v-324c0 -14.667 -7.33301 -22 -22 -22h-98c-14.667 -0 -22 7.33301 -22 22v290c0 20.667 -1.33301 38.167 -4 52.5s-7.83398 25.666 -15.501 33.999
s-18.167 14.333 -31.5 18s-30.666 5.5 -51.999 5.5h-266c-21.333 0 -39 -1.83301 -53 -5.5s-25.167 -9.66699 -33.5 -18s-14.166 -19.666 -17.499 -33.999s-5 -31.833 -5 -52.5v-290c0 -14.667 -7.33301 -22 -22 -22h-98c-15.333 -0 -23 7.33301 -23 22v324
c0 36 4 66.833 12 92.5s21.167 46.667 39.5 63s42.666 28.333 72.999 36s68.166 11.5 113.499 11.5h287z" />
    <glyph glyph-name="o" unicode="o" horiz-adv-x="868" 
d="M575 549c44.667 0 82.334 -3.83301 113.001 -11.5s55.167 -19.667 73.5 -36s31.5 -37.333 39.5 -63s12 -56.5 12 -92.5v-144c0 -36 -4 -66.833 -12 -92.5s-21.167 -46.667 -39.5 -63s-42.833 -28.166 -73.5 -35.499s-68.334 -11 -113.001 -11h-283
c-45.333 0 -83.166 3.66699 -113.499 11s-54.666 19.166 -72.999 35.499s-31.5 37.333 -39.5 63s-12 56.5 -12 92.5v144c0 36 4 66.833 12 92.5s21.167 46.667 39.5 63s42.666 28.333 72.999 36s68.166 11.5 113.499 11.5h283zM197 227c0 -21.333 1.66699 -39 5 -53
s9.16602 -25.167 17.499 -33.5s19.5 -14.333 33.5 -18s31.667 -5.5 53 -5.5h255c22 0 40 1.83301 54 5.5s25.167 9.66699 33.5 18s14.166 19.5 17.499 33.5s5 31.667 5 53v95c0 20.667 -1.66699 38 -5 52s-9.16602 25.333 -17.499 34s-19.5 14.667 -33.5 18s-32 5 -54 5
h-255c-21.333 0 -39 -1.66699 -53 -5s-25.167 -9.33301 -33.5 -18s-14.166 -20 -17.499 -34s-5 -31.333 -5 -52v-95z" />
    <glyph glyph-name="p" unicode="p" horiz-adv-x="871" 
d="M578 549c44.667 0 82.3359 -3.83398 113.003 -11.501s55.167 -19.667 73.5 -36s31.5 -37.333 39.5 -63s12 -56.5 12 -92.5v-144c0 -36 -4 -66.833 -12 -92.5s-21.167 -46.667 -39.5 -63s-42.833 -28.166 -73.5 -35.499s-68.334 -11 -113.001 -11h-375v-199
c0 -14.667 -7.33301 -22 -22 -22h-98c-15.333 0 -23 7.33301 -23 22v545c0 36 4 66.833 12 92.5s21.167 46.667 39.5 63s42.666 28.333 72.999 36s68.166 11.5 113.499 11.5h280zM203.002 119.999h360.999c22 0 40 1.66699 54 5s25.167 9.33301 33.5 18s14.166 20 17.499 34
s5 31.667 5 53v89c0 20.667 -1.66699 38.167 -5 52.5s-9.16602 25.666 -17.499 33.999s-19.5 14.333 -33.5 18s-32 5.5 -54 5.5h-252c-21.333 0 -39 -1.83301 -53 -5.5s-25.167 -9.66699 -33.5 -18s-14.166 -19.666 -17.499 -33.999s-5 -31.833 -5 -52.5v-199z" />
    <glyph glyph-name="q" unicode="q" horiz-adv-x="871" 
d="M572 549c44.667 0 82.333 -3.83203 113 -11.499s55.167 -19.667 73.5 -36s31.5 -37.333 39.5 -63s12 -56.5 12 -92.5v-545c0 -14.667 -7.33301 -22 -22 -22h-98c-14.667 0 -22 7.33301 -22 22v199h-376c-45.333 0 -83.166 3.66699 -113.499 11
s-54.666 19.166 -72.999 35.499s-31.5 37.333 -39.5 63s-12 56.5 -12 92.5v144c0 36 4 66.833 12 92.5s21.167 46.667 39.5 63s42.666 28.333 72.999 36s68.166 11.5 113.499 11.5h280zM196.999 230.001c0 -21.333 1.66602 -39 4.99902 -53s9.16602 -25.333 17.499 -34
s19.5 -14.667 33.5 -18s31.667 -5 53 -5h362v199c0 20.667 -1.66699 38.167 -5 52.5s-9.16602 25.666 -17.499 33.999s-19.5 14.333 -33.5 18s-32 5.5 -54 5.5h-252c-21.333 0 -39 -1.83301 -53 -5.5s-25.167 -9.66699 -33.5 -18s-14.166 -19.666 -17.499 -33.999
s-5 -31.833 -5 -52.5v-89z" />
    <glyph glyph-name="r" unicode="r" horiz-adv-x="613" 
d="M578 549c12 0 18.001 -6.00098 18.001 -18.001v-84c0 -12 -6 -18 -18 -18h-266c-21.333 0 -39 -1.83301 -53 -5.5s-25.167 -9.66699 -33.5 -18s-14.166 -19.666 -17.499 -33.999s-5 -31.833 -5 -52.5v-297c0 -14.667 -7.33301 -22 -22 -22h-98
c-15.333 -0 -23 7.33301 -23 22v324c0 36 4 66.833 12 92.5s21.167 46.667 39.5 63s42.666 28.333 72.999 36s68.166 11.5 113.499 11.5h280z" />
    <glyph glyph-name="s" unicode="s" horiz-adv-x="783" 
d="M696 549c12 0 18 -5.99707 18 -17.9971v-80c0 -12 -6 -18 -18 -18h-451c-20.667 0 -35 -3.83301 -43 -11.5s-12 -18.834 -12 -33.501v-15c0 -13.333 4 -23.833 12 -31.5s22.333 -11.5 43 -11.5h337c56 0 96 -11.667 120 -35s36 -56.333 36 -99v-56
c0 -22 -2.66699 -41.667 -8 -59s-14.166 -32 -26.499 -44s-28.5 -21.167 -48.5 -27.5s-44.667 -9.5 -74 -9.5h-512c-12 0 -18 6 -18 18v80c0 12 6 18 18 18h474c20.667 0 35.167 3.66699 43.5 11s12.5 19.666 12.5 36.999v27c0 13.333 -4.16699 23.666 -12.5 30.999
s-22.833 11 -43.5 11h-336c-56 0 -96 11.5 -120 34.5s-36 56.5 -36 100.5v44c0 20.667 2.66699 39.5 8 56.5s14.166 31.5 26.499 43.5s28.5 21.167 48.5 27.5s44.667 9.5 74 9.5h488z" />
    <glyph glyph-name="t" unicode="t" horiz-adv-x="490" 
d="M130 549l0.000976562 132.001c0 14.667 7.33301 22 22 22h99c14.667 0 22 -7.33301 22 -22v-132h175c12 0 18 -6 18 -18v-82c0 -12 -6 -18 -18 -18h-175v-232c0 -28 5.66699 -48.5 17 -61.5s33.666 -19.5 66.999 -19.5h97c12 0 18 -6 18 -18v-82c0 -12 -6 -18 -18 -18
h-121c-40 0 -73 3.66699 -99 11s-46.833 19 -62.5 35s-26.5 36.667 -32.5 62s-9 55.666 -9 90.999v232h-95c-12 0 -18 6 -18 18v82c0 12 6 18 18 18h95z" />
    <glyph glyph-name="u" unicode="u" horiz-adv-x="876" 
d="M181 549c14.667 0 22.001 -7.66699 22.001 -23v-289c0 -21.333 1.33301 -39 4 -53s7.66699 -25.167 15 -33.5s17.666 -14.333 30.999 -18s31 -5.5 53 -5.5h257c22 0 40 1.83301 54 5.5s25.167 9.66699 33.5 18s14.166 19.5 17.499 33.5s5 31.667 5 53v289
c0 15.333 7.33301 23 22 23h98c14.667 0 22 -7.66699 22 -23v-324c0 -36 -4 -66.833 -12 -92.5s-21.167 -46.667 -39.5 -63s-42.833 -28.166 -73.5 -35.499s-68.334 -11 -113.001 -11h-279c-45.333 0 -83.166 3.66699 -113.499 11s-54.666 19.166 -72.999 35.499
s-31.5 37.333 -39.5 63s-12 56.5 -12 92.5v324c0 15.333 7.66699 23 23 23h98z" />
    <glyph glyph-name="v" unicode="v" horiz-adv-x="830" 
d="M145 549c11.333 0 19.333 -4.66699 24 -14l235 -413c2.66699 -4 6.33398 -6 11.001 -6h4c4.66699 0 8.33398 2 11.001 6l236 413c2.66699 4.66699 5.66699 8.16699 9 10.5s8.33301 3.5 15 3.5h111c7.33301 0 12.166 -2.5 14.499 -7.5s1.83301 -10.833 -1.5 -17.5
l-274 -479c-9.33301 -16.667 -20 -28.334 -32 -35.001s-29.333 -10 -52 -10h-82c-22 0 -39 3.33301 -51 10s-22.667 18.334 -32 35.001l-274 479c-3.33301 6.66699 -3.83301 12.5 -1.5 17.5s7.16602 7.5 14.499 7.5h115z" />
    <glyph glyph-name="w" unicode="w" horiz-adv-x="1165" 
d="M148 549c12 0 19.665 -5.33301 22.998 -16l129 -411c2 -4.66699 5.33301 -7 10 -7h4c6 0 9.33301 2.33301 10 7l135 379c6.66699 18 14.5 30.5 23.5 37.5s22.5 10.5 40.5 10.5h119c18 0 31.5 -3.5 40.5 -10.5s16.833 -19.5 23.5 -37.5l134 -379
c0.666992 -4.66699 4 -7 10 -7h4c4.66699 0 8 2.33301 10 7l130 411c2 10.667 9.66699 16 23 16h113c8.66699 0 14.167 -2.16699 16.5 -6.5s2.5 -10.166 0.5 -17.499l-152 -463c-8 -25.333 -17.5 -42 -28.5 -50s-27.167 -12 -48.5 -12h-126
c-17.333 0 -30.666 4.5 -39.999 13.5s-18.333 25.167 -27 48.5l-132 365c-1.33301 4 -4.33301 6 -9 6h-6c-5.33301 0 -8.33301 -2 -9 -6l-131 -365c-8.66699 -23.333 -17.667 -39.5 -27 -48.5s-22.666 -13.5 -39.999 -13.5h-126c-21.333 0 -37.5 4 -48.5 12
s-20.5 24.667 -28.5 50l-150 463c-2 7.33301 -2 13.166 0 17.499s7.66699 6.5 17 6.5h113z" />
    <glyph glyph-name="x" unicode="x" horiz-adv-x="791" 
d="M182 549c7.33301 0 12.9971 -1 16.9971 -3s8 -5 12 -9l197 -180l202 180c3.33301 4 7 7 11 9s9.66699 3 17 3h113c9.33301 0 14.833 -3.16699 16.5 -9.5s-0.166016 -12.166 -5.49902 -17.499l-267 -245l275 -251c4.66699 -5.33301 6.33398 -11 5.00098 -17
s-6.66602 -9 -15.999 -9h-127c-7.33301 0 -13.166 1 -17.499 3s-8.16602 4.66699 -11.499 8l-212 194l-218 -194c-3.33301 -3.33301 -7 -6 -11 -8s-9.66699 -3 -17 -3h-113c-9.33301 0 -14.833 3 -16.5 9s0.166016 11.667 5.49902 17l282 259l-258 237
c-5.33301 5.33301 -7.33301 11.166 -6 17.499s6.66602 9.5 15.999 9.5h127z" />
    <glyph glyph-name="y" unicode="y" horiz-adv-x="808" 
d="M786 549c7.33301 0 12.166 -2.5 14.499 -7.5s1.83301 -10.833 -1.5 -17.5l-384 -677c-13.333 -23.333 -32.166 -40.5 -56.499 -51.5s-58.166 -16.5 -101.499 -16.5h-70c-12 0 -18 6 -18 18v82c0 12 6 18 18 18h59c25.333 0 42.333 7.66699 51 23l54 95
c-16.667 1.33301 -29.5 5.33301 -38.5 12s-17.5 17 -25.5 31l-270 466c-3.33301 6.66699 -3.83301 12.5 -1.5 17.5s7.16602 7.5 14.499 7.5h115c11.333 0 19.333 -4.66699 24 -14l222 -385c5.33301 -9.33301 9.5 -15.5 12.5 -18.5s6.83301 -4.5 11.5 -4.5l235 408
c4.66699 9.33301 12.667 14 24 14h112z" />
    <glyph glyph-name="z" unicode="z" horiz-adv-x="733" 
d="M620 549c24 0 41.499 -5.1709 52.499 -15.5039s16.5 -26.166 16.5 -47.499v-74c0 -10.667 -0.666992 -19.5 -2 -26.5s-3.66602 -13.167 -6.99902 -18.5s-8 -10 -14 -14s-13.333 -8 -22 -12l-444 -195c-3.33301 -1.33301 -5.5 -3.16602 -6.5 -5.49902
s-1.5 -5.16602 -1.5 -8.49902v-7c0 -4.66699 3 -7 9 -7h465c12 0 18 -6 18 -18v-82c0 -12 -6 -18 -18 -18h-553c-24 0 -41.5 5 -52.5 15s-16.5 25.667 -16.5 47v74c0 20.667 3 35.834 9 45.501s18 18.5 36 26.5l444 195c5.33301 2 8 6.33301 8 13v7c0 5.33301 -3 8 -9 8
h-465c-12 0 -18 6 -18 18v82c0 12 6 18 18 18h553z" />
    <glyph glyph-name="braceleft" unicode="{" horiz-adv-x="453" 
d="M400 896c8 0 12 -4.66504 12 -13.998v-68c0 -9.33301 -4 -14 -12 -14h-63c-28 0 -47.5 -6.33301 -58.5 -19s-16.5 -34.667 -16.5 -66v-273c0 -22.667 -4.16699 -43 -12.5 -61s-19.5 -33 -33.5 -45c14 -12 25.167 -26.833 33.5 -44.5s12.5 -37.834 12.5 -60.501v-271
c0 -31.333 5.5 -53.333 16.5 -66s30.5 -19 58.5 -19h63c8 0 12 -4.66699 12 -14v-68c0 -9.33301 -4 -14 -12 -14h-67c-58 0 -100.167 14.167 -126.5 42.5s-39.5 74.5 -39.5 138.5v273c0 17.333 -3.5 30.833 -10.5 40.5s-20.5 14.5 -40.5 14.5h-45c-12 0 -18 6 -18 18v61
c0 12 6 18 18 18h45c20 0 33.5 4.66699 40.5 14s10.5 22.666 10.5 39.999v276c0 64 13.167 110.167 39.5 138.5s68.5 42.5 126.5 42.5h67z" />
    <glyph glyph-name="bar" unicode="|" horiz-adv-x="423" 
d="M241 815c12 0 18 -6 18 -18v-925c0 -12 -6 -18 -18 -18h-60c-12 0 -18 6 -18 18v925c0 12 6 18 18 18h60z" />
    <glyph glyph-name="braceright" unicode="}" horiz-adv-x="453" 
d="M53 -221c-8 0 -12 4.66504 -12 13.998v68c0 9.33301 4 14 12 14h63c28 0 47.5 6.33301 58.5 19s16.5 34.667 16.5 66v273c0 22.667 4.16699 43 12.5 61s19.5 33 33.5 45c-14 12 -25.167 26.833 -33.5 44.5s-12.5 37.834 -12.5 60.501v271c0 31.333 -5.5 53.333 -16.5 66
s-30.5 19 -58.5 19h-63c-8 0 -12 4.66699 -12 14v68c0 9.33301 4 14 12 14h67c58 0 100.167 -14.167 126.5 -42.5s39.5 -74.5 39.5 -138.5v-273c0 -17.333 3.5 -30.833 10.5 -40.5s20.5 -14.5 40.5 -14.5h45c12 0 18 -6 18 -18v-61c0 -12 -6 -18 -18 -18h-45
c-20 0 -33.5 -4.66699 -40.5 -14s-10.5 -22.666 -10.5 -39.999v-276c0 -64 -13.167 -110.167 -39.5 -138.5s-68.5 -42.5 -126.5 -42.5h-67z" />
    <glyph glyph-name="asciitilde" unicode="~" horiz-adv-x="613" 
d="M42 382c0 8 1.5 14.502 4.5 19.502s7.16699 9.83301 12.5 14.5c12 10 28.333 18.333 49 25s42 10 64 10c32 0 60 -4.83301 84 -14.5s45.667 -20.167 65 -31.5c15.333 -8.66699 32 -16 50 -22s38.333 -9 61 -9c15.333 0 29.5 2.5 42.5 7.5s27.5 14.5 43.5 28.5
c7.33301 6 13.166 10.5 17.499 13.5s9.83301 4.5 16.5 4.5c12.667 0 19 -6 19 -18v-58c0 -8.66699 -1.66699 -15.5 -5 -20.5s-7.66602 -9.83301 -12.999 -14.5c-12 -9.33301 -28.333 -17.333 -49 -24s-42 -10 -64 -10c-31.333 0 -59 4.66699 -83 14
s-45.667 19.666 -65 30.999c-15.333 8.66699 -32 16 -50 22s-38.333 9 -61 9c-15.333 0 -29.5 -2.33301 -42.5 -7s-27.833 -14.334 -44.5 -29.001c-7.33301 -6 -13 -10.5 -17 -13.5s-9.33301 -4.5 -16 -4.5c-12.667 0 -19 6 -19 18v59z" />
    <glyph glyph-name="nonbreakingspace" unicode="&#xa0;" horiz-adv-x="335" 
 />
    <glyph glyph-name="exclamdown" unicode="&#xa1;" horiz-adv-x="266" 
d="M77 -220c-15.333 0 -23 7.66699 -23 23l28 450c0.666992 14.667 8 22 22 22h58c14 0 21.333 -7.33301 22 -22l28 -450c0 -15.333 -7.66699 -23 -23 -23h-112zM84 375c-14.667 0 -22 7.33301 -22 22v96c0 14.667 7.33301 22 22 22h98c15.333 0 23 -7.33301 23 -22v-96
c0 -14.667 -7.66699 -22 -23 -22h-98z" />
    <glyph glyph-name="cent" unicode="&#xa2;" horiz-adv-x="816" 
d="M463 760c12 0 18 -6.00195 18 -18.002v-75h225c12 0 18 -6.66699 18 -20v-93c0 -13.333 -6 -20 -18 -20h-225v-363h225c12 0 18 -6.66699 18 -20v-93c0 -13.333 -6 -20 -18 -20h-225v-80c0 -12 -6 -18 -18 -18h-45c-12 0 -18 6 -18 18v80h-108c-46 0 -84.5 4 -115.5 12
s-55.833 20.833 -74.5 38.5s-32 40.334 -40 68.001s-12 61.167 -12 100.5v191c0 39.333 4 72.833 12 100.5s21.333 50.334 40 68.001s43.5 30.5 74.5 38.5s69.5 12 115.5 12h108v75c0 12 6 18 18 18h45zM196 286.998c0 -22 1.66699 -40.5 5 -55.5s9.16602 -27 17.499 -36
s19.666 -15.333 33.999 -19s32.5 -5.5 54.5 -5.5h93v363h-93c-22 0 -40.167 -1.83301 -54.5 -5.5s-25.666 -10 -33.999 -19s-14.166 -21 -17.499 -36s-5 -33.5 -5 -55.5v-131z" />
    <glyph glyph-name="sterling" unicode="&#xa3;" horiz-adv-x="664" 
d="M143 396l0.00195312 101c0 36.667 3.33301 67.834 10 93.501s17.667 46.667 33 63s35.166 28.166 59.499 35.499s54.166 11 89.499 11h264c14.667 0 22 -7.33301 22 -22v-89c0 -14.667 -7.33301 -22 -22 -22h-233c-29.333 0 -49.333 -6.16699 -60 -18.5
s-16 -33.833 -16 -64.5v-88h219c12 0 18 -6 18 -18v-46c0 -12 -6 -18 -18 -18h-219v-181h321c14.667 0 22 -7.33301 22 -22v-89c0 -14.667 -7.33301 -22 -22 -22h-565c-15.333 -0 -23 7.33301 -23 22v89c0 14.667 7.66699 22 23 22h97v181h-97c-12 0 -18 6 -18 18v46
c0 12 6 18 18 18h97z" />
    <glyph glyph-name="currency" unicode="&#xa4;" horiz-adv-x="744" 
d="M118 645c8.66699 8.66699 17.333 8.66895 26 0.00195312l55 -56c16 4 35.667 6 59 6h226c22.667 0 42.667 -2 60 -6l56 56c8.66699 8.66699 17.334 8.66699 26.001 0l42 -41c8 -9.33301 8 -18 0 -26l-56 -56c2.66699 -10.667 4 -24.334 4 -41.001v-264
c0 -16.667 -1.33301 -30.334 -4 -41.001l56 -55c8 -8 8 -16.333 0 -25l-42 -42c-8.66699 -8 -17 -8 -25 0l-56 55c-17.333 -4 -37.666 -6 -60.999 -6h-226c-12 0 -22.833 0.333008 -32.5 1s-18.834 2 -27.501 4l-54 -54c-8.66699 -8 -17.334 -8 -26.001 0l-42 42
c-8 8.66699 -8 17 0 25l54 55c-2 12 -3 25.667 -3 41v264c0 16 1 30 3 42l-54 55c-8 8 -8 16.667 0 26zM219.999 247.002c0 -23.333 3.5 -38.833 10.5 -46.5s21.5 -11.5 43.5 -11.5h195c21.333 0 35.666 3.83301 42.999 11.5s11 23.167 11 46.5v205c0 22 -3.66699 37 -11 45
s-21.666 12 -42.999 12h-195c-22 0 -36.5 -4 -43.5 -12s-10.5 -23 -10.5 -45v-205z" />
    <glyph glyph-name="yen" unicode="&#xa5;" horiz-adv-x="771" 
d="M260 381l-219 299c-3.33301 4.66699 -4.16602 9.16699 -2.49902 13.5s5.16699 6.5 10.5 6.5h126c9.33301 0 16.666 -4 21.999 -12l188 -262l190 262c5.33301 8 12.666 12 21.999 12h122c5.33301 0 8.83301 -2 10.5 -6s0.833984 -8.66699 -2.49902 -14l-220 -299h153
c12 0 18 -6 18 -18v-46c0 -12 -6 -18 -18 -18h-203v-101h203c12 0 18 -6 18 -18v-45c0 -12 -6 -18 -18 -18h-203v-95c0 -14.667 -7 -22 -21 -22h-106c-13.333 -0 -20 7.33301 -20 22v95h-200c-12 0 -18 6 -18 18v45c0 12 6 18 18 18h200v101h-200c-12 0 -18 6 -18 18v46
c0 12 6 18 18 18h150z" />
    <glyph glyph-name="brokenbar" unicode="&#xa6;" horiz-adv-x="423" 
d="M241 815c12 0 18 -6 18 -18v-385c0 -12 -6 -18 -18 -18h-60c-12 0 -18 6 -18 18v385c0 12 6 18 18 18h60zM241 275c12 0 18 -6 18 -18v-385c0 -12 -6 -18 -18 -18h-60c-12 0 -18 6 -18 18v385c0 12 6 18 18 18h60z" />
    <glyph glyph-name="section" unicode="&#xa7;" horiz-adv-x="733" 
d="M666 751c12 0 17.999 -6.00293 17.999 -18.0029v-82c0 -12 -6 -18 -18 -18h-466c-5.33301 0 -8 -2.66699 -8 -8v-7c0 -7.33301 2.66699 -11.666 8 -12.999l444 -193c18.667 -6.66699 30.834 -15 36.501 -25s8.5 -25.667 8.5 -47v-74c0 -41.333 -23.333 -62 -70 -62h-417
c-6 0 -9 -2.33301 -9 -7v-7c0 -7.33301 2.66699 -12 8 -14l444 -189c18.667 -6.66699 30.834 -15 36.501 -25s8.5 -25.667 8.5 -47v-74c0 -21.333 -5.5 -37 -16.5 -47s-28.5 -15 -52.5 -15h-553c-12 0 -18 6 -18 18v82c0 12 6 18 18 18h465c6 0 9 2.33301 9 7v7
c0 6.66699 -2.66699 11.334 -8 14.001l-444 189c-18.667 6.66699 -30.834 15 -36.501 25s-8.5 25.667 -8.5 47v74c0 21.333 5.5 37 16.5 47s28.5 15 52.5 15h418c6 0 9 2.33301 9 7v7c0 6.66699 -2.66699 11.334 -8 14.001l-445 193
c-18 6.66699 -29.833 14.834 -35.5 24.501s-8.5 25.167 -8.5 46.5v74c0 21.333 5.5 37.166 16.5 47.499s28.5 15.5 52.5 15.5h553z" />
    <glyph glyph-name="dieresis" unicode="&#xa8;" horiz-adv-x="547" 
d="M462 752c14.667 0 22 -7.33301 22 -22v-95c0 -15.333 -7.33301 -23 -22 -23h-98c-14.667 0 -22 7.66699 -22 23v95c0 14.667 7.33301 22 22 22h98zM183 752c14.667 0 22 -7.33301 22 -22v-95c0 -15.333 -7.33301 -23 -22 -23h-98c-15.333 0 -23 7.66699 -23 23v95
c0 14.667 7.66699 22 23 22h98z" />
    <glyph glyph-name="copyright" unicode="&#xa9;" horiz-adv-x="985" 
d="M647 700c50.667 0 93.834 -4.83301 129.501 -14.5s64.667 -25 87 -46s38.5 -48.167 48.5 -81.5s15 -74 15 -122v-172c0 -48 -5 -88.833 -15 -122.5s-26.167 -61 -48.5 -82s-51.333 -36.167 -87 -45.5s-78.834 -14 -129.501 -14h-309c-50.667 0 -93.667 4.66699 -129 14
s-64.166 24.5 -86.499 45.5s-38.666 48.333 -48.999 82s-15.5 74.5 -15.5 122.5v172c0 48 5.16699 88.667 15.5 122s26.666 60.5 48.999 81.5s51.166 36.333 86.499 46s78.333 14.5 129 14.5h309zM133 264c0 -34 3.66699 -63.167 11 -87.5s19.333 -44 36 -59
s37.834 -26 63.501 -33s57.167 -10.5 94.5 -10.5h309c36.667 0 68 3.5 94 10.5s47.333 18 64 33s28.667 34.667 36 59s11 53.5 11 87.5v172c0 34 -3.66699 63 -11 87s-19.333 43.5 -36 58.5s-38 26 -64 33s-57.333 10.5 -94 10.5h-309c-37.333 0 -68.833 -3.5 -94.5 -10.5
s-46.834 -18 -63.501 -33s-28.667 -34.5 -36 -58.5s-11 -53 -11 -87v-172zM660 536c7.33301 0 11 -3.66699 11 -11v-50c0 -8 -3.66699 -12 -11 -12h-230c-26.667 0 -44.667 -4.83301 -54 -14.5s-14 -28.167 -14 -55.5v-73c0 -27.333 4.66699 -46 14 -56s27.333 -15 54 -15
h230c7.33301 0 11 -3.66699 11 -11v-51c0 -7.33301 -3.66699 -11 -11 -11h-233c-52 0 -89 10.333 -111 31s-33 55.667 -33 105v88c0 49.333 11 84.333 33 105s59 31 111 31h233z" />
    <glyph glyph-name="ordfeminine" unicode="&#xaa;" horiz-adv-x="468" 
d="M296 700c49.333 0 83.501 -8.83105 102.501 -26.498s28.5 -46.834 28.5 -87.501v-231c0 -18.667 -2.83301 -30.834 -8.5 -36.501s-16.167 -8.5 -31.5 -8.5h-262c-33.333 0 -55.833 6.33301 -67.5 19s-17.5 33 -17.5 61v76c0 23.333 5.83301 41.333 17.5 54
s34.167 19 67.5 19h214v29c0 18 -3.83301 30.833 -11.5 38.5s-22.834 11.5 -45.501 11.5h-223c-6.66699 0 -10 3.33301 -10 10v62c0 6.66699 3.33301 10 10 10h237zM325.001 387.002c9.33301 0 14 5.66699 14 17v70h-185c-10.667 0 -17.834 -2.16699 -21.501 -6.5
s-5.5 -10.833 -5.5 -19.5v-33c0 -9.33301 1.83301 -16.333 5.5 -21s10.834 -7 21.501 -7h171z" />
    <glyph glyph-name="guillemotleft" unicode="&#xab;" horiz-adv-x="535" 
d="M485 549c7.33301 0 12.5 -2.16699 15.5 -6.5s2.83301 -9.16602 -0.5 -14.499l-111 -227c-4 -8 -6 -15.667 -6 -23v-7c0 -8.66699 2 -16.334 6 -23.001l111 -227c3.33301 -5.33301 3.5 -10.166 0.5 -14.499s-8.16699 -6.5 -15.5 -6.5h-76
c-12.667 0 -21.667 5.66699 -27 17l-99 205c-4.66699 9.33301 -7.83398 17.166 -9.50098 23.499s-2.5 14.833 -2.5 25.5v7c0 10 0.833008 18.333 2.5 25s4.83398 14.667 9.50098 24l99 205c5.33301 11.333 14.333 17 27 17h76zM246 549c7.33301 0 12.5 -2.16699 15.5 -6.5
s2.83301 -9.16602 -0.5 -14.499l-111 -227c-4 -8 -6 -15.667 -6 -23v-7c0 -8.66699 2 -16.334 6 -23.001l111 -227c3.33301 -5.33301 3.5 -10.166 0.5 -14.499s-8.16699 -6.5 -15.5 -6.5h-76c-12.667 0 -21.667 5.66699 -27 17l-99 205
c-4.66699 9.33301 -7.83398 17.166 -9.50098 23.499s-2.5 14.833 -2.5 25.5v7c0 10 0.833008 18.333 2.5 25s4.83398 14.667 9.50098 24l99 205c5.33301 11.333 14.333 17 27 17h76z" />
    <glyph glyph-name="logicalnot" unicode="&#xac;" horiz-adv-x="613" 
d="M550 550c14 0 21 -7 21 -21v-511c0 -12 -6 -18 -18 -18h-60c-12 0 -18 6 -18 18v437h-415c-12 0 -18 6 -18 18v59c0 12 6 18 18 18h490z" />
    <glyph glyph-name="uni00AD" unicode="&#xad;" horiz-adv-x="382" 
d="M341 398c12 0 18 -6 18 -18v-72c0 -12 -6 -18 -18 -18h-301c-12 0 -18 6 -18 18v72c0 12 6 18 18 18h301z" />
    <glyph glyph-name="registered" unicode="&#xae;" horiz-adv-x="985" 
d="M647 700c50.667 0 93.834 -4.83301 129.501 -14.5s64.667 -25 87 -46s38.5 -48.167 48.5 -81.5s15 -74 15 -122v-172c0 -48 -5 -88.833 -15 -122.5s-26.167 -61 -48.5 -82s-51.333 -36.167 -87 -45.5s-78.834 -14 -129.501 -14h-309c-50.667 0 -93.667 4.66699 -129 14
s-64.166 24.5 -86.499 45.5s-38.666 48.333 -48.999 82s-15.5 74.5 -15.5 122.5v172c0 48 5.16699 88.667 15.5 122s26.666 60.5 48.999 81.5s51.166 36.333 86.499 46s78.333 14.5 129 14.5h309zM133 264c0 -34 3.66699 -63.167 11 -87.5s19.333 -44 36 -59
s37.834 -26 63.501 -33s57.167 -10.5 94.5 -10.5h309c36.667 0 68 3.5 94 10.5s47.333 18 64 33s28.667 34.667 36 59s11 53.5 11 87.5v172c0 34 -3.66699 63 -11 87s-19.333 43.5 -36 58.5s-38 26 -64 33s-57.333 10.5 -94 10.5h-309c-37.333 0 -68.833 -3.5 -94.5 -10.5
s-46.834 -18 -63.501 -33s-28.667 -34.5 -36 -58.5s-11 -53 -11 -87v-172zM585 536c40 0 68.501 -8.83301 85.501 -26.5s25.5 -44.167 25.5 -79.5v-29c0 -30 -6 -53.333 -18 -70s-31.667 -27.667 -59 -33l88 -109c1.33301 -2 1.83301 -4.66699 1.5 -8s-2.83301 -5 -7.5 -5
h-67c-4.66699 0 -7.83398 0.5 -9.50098 1.5s-3.16699 2.83301 -4.5 5.5l-82 107h-166v-103c0 -7.33301 -3.66699 -11 -11 -11h-56c-8 0 -12 3.66699 -12 11v334c0 10 5 15 15 15h277zM372.001 353l197 0.000976562c17.333 0 29.666 3.66699 36.999 11s11 18.666 11 33.999
v22c0 15.333 -3.66699 26.833 -11 34.5s-19.666 11.5 -36.999 11.5h-190c-4.66699 0 -7 -2 -7 -6v-107z" />
    <glyph glyph-name="macron" unicode="&#xaf;" horiz-adv-x="639" 
d="M554 734c14.667 0 22 -7.33301 22 -22v-58c0 -14.667 -7.33301 -22 -22 -22h-469c-15.333 0 -23 7.33301 -23 22v58c0 14.667 7.66699 22 23 22h469z" />
    <glyph glyph-name="degree" unicode="&#xb0;" horiz-adv-x="519" 
d="M319 700c53.333 0 91 -10.5 113 -31.5s33 -56.5 33 -106.5v-89c0 -50 -11 -85.5 -33 -106.5s-59.667 -31.5 -113 -31.5h-121c-52.667 0 -90 10.5 -112 31.5s-33 56.5 -33 106.5v89c0 50 11 85.5 33 106.5s59.333 31.5 112 31.5h121zM146 490
c0 -26.667 4.66699 -44.834 14 -54.501s26.666 -14.5 51.999 -14.5h93c26 0 43.5 4.83301 52.5 14.5s13.5 27.834 13.5 54.501v55c0 26.667 -4.5 44.667 -13.5 54s-26.5 14 -52.5 14h-93c-25.333 0 -42.666 -4.66699 -51.999 -14s-14 -27.333 -14 -54v-55z" />
    <glyph glyph-name="plusminus" unicode="&#xb1;" horiz-adv-x="613" 
d="M336 670c12 0 18 -6 18 -18v-198h199c12 0 18 -6 18 -18v-60c0 -12 -6 -18 -18 -18h-199v-199c0 -12 -6 -18 -18 -18h-60c-12 0 -18 6 -18 18v199h-198c-12 0 -18 6 -18 18v60c0 12 6 18 18 18h198v198c0 12 6 18 18 18h60zM553 96c12 0 18 -6 18 -18v-60
c0 -12 -6 -18 -18 -18h-493c-12 0 -18 6 -18 18v60c0 12 6 18 18 18h493z" />
    <glyph glyph-name="twosuperior" unicode="&#xb2;" horiz-adv-x="510" 
d="M365 700c34 0 58.833 -8.16895 74.5 -24.502s23.5 -38.166 23.5 -65.499v-41c0 -30 -8.16699 -53.333 -24.5 -70s-40.5 -25 -72.5 -25h-204c-17.333 0 -26 -10 -26 -30v-40c0 -6 3 -9 9 -9h304c8.66699 0 13 -4 13 -12v-56c0 -8 -4.33301 -12 -13 -12h-351
c-18 0 -30.833 3.66699 -38.5 11s-11.5 19 -11.5 35v87c0 30.667 8 54.334 24 71.001s40 25 72 25h205c16.667 0 25 10 25 30v17c0 19.333 -8.66699 29 -26 29h-273c-8.66699 0 -13 4 -13 12v56c0 8 4.33301 12 13 12h290z" />
    <glyph glyph-name="threesuperior" unicode="&#xb3;" horiz-adv-x="499" 
d="M346 700c36.667 0 62.5 -7.33301 77.5 -22s22.5 -37.667 22.5 -69v-26c0 -29.333 -10 -52.333 -30 -69c22 -17.333 33 -41.333 33 -72v-32c0 -30 -6.66699 -53.333 -20 -70s-37.333 -25 -72 -25h-300c-8 0 -12 4 -12 12v56c0 8 4 12 12 12h270
c13.333 0 22.166 2.5 26.499 7.5s6.5 12.833 6.5 23.5v14c0 11.333 -2.16699 20 -6.5 26s-13.166 9 -26.499 9h-266c-8.66699 0 -13 4 -13 12v46c0 8 4.33301 12 13 12h266c13.333 0 22.166 2.66699 26.499 8s6.5 13 6.5 23v13c0 10.667 -2.16699 18.5 -6.5 23.5
s-13.166 7.5 -26.499 7.5h-270c-8 0 -12 4 -12 12v56c0 8 4 12 12 12h289z" />
    <glyph glyph-name="acute" unicode="&#xb4;" horiz-adv-x="393" 
d="M292 816c7.33301 0 12.666 -2 15.999 -6s3 -9.66699 -1 -17l-103 -185c-4 -7.33301 -8.16699 -13 -12.5 -17s-10.166 -6 -17.499 -6h-76c-7.33301 0 -12.666 2 -15.999 6s-3.33301 9.66699 0 17l91 185c7.33301 15.333 17.666 23 30.999 23h88z" />
    <glyph glyph-name="paragraph" unicode="&#xb6;" horiz-adv-x="803" 
d="M421 750c59.333 0 89 -28.333 89 -85v-867c0 -12.667 -6.66699 -19 -20 -19h-83c-12 0 -18 6.33301 -18 19v481h-130c-37.333 0 -68.833 3.16699 -94.5 9.5s-46.167 16.5 -61.5 30.5s-26.333 32 -33 54s-10 48.667 -10 80v124c0 31.333 3.33301 58 10 80
s17.667 39.833 33 53.5s35.833 23.667 61.5 30s57.167 9.5 94.5 9.5h162zM721 750c12.667 0 19 -6.33301 19 -19v-933c0 -12.667 -6.33301 -19 -19 -19h-82c-12.667 0 -19 6.33301 -19 19v933c0 12.667 6.33301 19 19 19h82zM181 475c0 -18 1.33301 -33.1689 4 -45.502
s7.33398 -22.166 14.001 -29.499s15.834 -12.5 27.501 -15.5s26.5 -4.5 44.5 -4.5h118v232c0 24.667 -11.333 37 -34 37h-84c-18 0 -32.833 -1.5 -44.5 -4.5s-20.834 -8.16699 -27.501 -15.5s-11.334 -17.166 -14.001 -29.499s-4 -27.5 -4 -45.5v-79z" />
    <glyph glyph-name="periodcentered" unicode="&#xb7;" horiz-adv-x="267" 
d="M183 421c14.667 0 22 -7.33301 22 -22v-96c0 -14.667 -7.33301 -22 -22 -22h-98c-15.333 0 -23 7.33301 -23 22v96c0 14.667 7.66699 22 23 22h98z" />
    <glyph glyph-name="cedilla" unicode="&#xb8;" horiz-adv-x="316" 
d="M231 -41c16.667 0 23.001 -8.66699 19.001 -26l-44 -182c-4 -15.333 -12.333 -23 -25 -23h-57c-16.667 0 -24.334 7.66699 -23.001 23l16 185c1.33301 15.333 9.33301 23 24 23h90z" />
    <glyph glyph-name="onesuperior" unicode="&#xb9;" horiz-adv-x="243" 
d="M127 700c21.333 0 36.5 -4.33203 45.5 -12.999s13.5 -22.334 13.5 -41.001v-319c0 -8 -4.66699 -12 -14 -12h-62c-8 0 -12 4 -12 12v276c0 11.333 -5.66699 17 -17 17h-39c-8 0 -12 4 -12 12v56c0 8 4 12 12 12h85z" />
    <glyph glyph-name="ordmasculine" unicode="&#xba;" horiz-adv-x="512" 
d="M334 700c48.667 0 82.668 -8.83301 102.001 -26.5s29 -46.834 29 -87.501v-162c0 -20.667 -2.16699 -38.167 -6.5 -52.5s-11.666 -26 -21.999 -35s-23.833 -15.667 -40.5 -20s-37.334 -6.5 -62.001 -6.5h-156c-24.667 0 -45.334 2.16699 -62.001 6.5s-30 11 -40 20
s-17.167 20.667 -21.5 35s-6.5 31.833 -6.5 52.5v162c0 40.667 9.33301 69.834 28 87.501s52.667 26.5 102 26.5h156zM136.001 452c0 -23.333 3.66699 -39.333 11 -48s22.666 -13 45.999 -13h126c22.667 0 37.834 4.33301 45.501 13s11.5 24.667 11.5 48v107
c0 23.333 -3.83301 39.166 -11.5 47.499s-22.834 12.5 -45.501 12.5h-126c-23.333 0 -38.666 -4.16699 -45.999 -12.5s-11 -24.166 -11 -47.499v-107z" />
    <glyph glyph-name="guillemotright" unicode="&#xbb;" horiz-adv-x="535" 
d="M365 549c12 0 21 -5.66699 27 -17l99 -205c4.66699 -9.33301 7.83398 -17.333 9.50098 -24s2.5 -15 2.5 -25v-7c0 -10.667 -0.833008 -19.167 -2.5 -25.5s-4.83398 -14.166 -9.50098 -23.499l-99 -205c-6 -11.333 -15 -17 -27 -17h-76
c-7.33301 0 -12.5 2.16699 -15.5 6.5s-2.83301 9.16602 0.5 14.499l111 227c3.33301 6 5 13.667 5 23v7c0 8.66699 -1.66699 16.334 -5 23.001l-111 227c-3.33301 5.33301 -3.5 10.166 -0.5 14.499s8.16699 6.5 15.5 6.5h76zM126 549c12 0 21 -5.66699 27 -17l99 -205
c4.66699 -9.33301 7.83398 -17.333 9.50098 -24s2.5 -15 2.5 -25v-7c0 -10.667 -0.833008 -19.167 -2.5 -25.5s-4.83398 -14.166 -9.50098 -23.499l-99 -205c-6 -11.333 -15 -17 -27 -17h-76c-7.33301 0 -12.5 2.16699 -15.5 6.5s-2.83301 9.16602 0.5 14.499l111 227
c3.33301 6 5 13.667 5 23v7c0 8.66699 -1.66699 16.334 -5 23.001l-111 227c-3.33301 5.33301 -3.5 10.166 -0.5 14.499s8.16699 6.5 15.5 6.5h76z" />
    <glyph glyph-name="onequarter" unicode="&#xbc;" horiz-adv-x="940" 
d="M704 700c5.33301 0 8.66797 -2 10.001 -6s0.333008 -8 -3 -12l-540 -672c-3.33301 -3.33301 -6.83301 -5.83301 -10.5 -7.5s-9.16699 -2.5 -16.5 -2.5h-61c-5.33301 0 -8.83301 2 -10.5 6s-0.833984 8 2.49902 12l540 672c3.33301 3.33301 6.83301 5.83301 10.5 7.5
s9.16699 2.5 16.5 2.5h62zM189.002 700c21.333 0 36.5 -4.33203 45.5 -12.999s13.5 -22.334 13.5 -41.001v-319c0 -8 -4.66699 -12 -14 -12h-62c-8 0 -12 4 -12 12v276c0 11.333 -5.66699 17 -17 17h-39c-8 0 -12 4 -12 12v56c0 8 4 12 12 12h85zM678.002 367.001
c10 7.33301 19.167 12.1689 27.5 14.502s19.166 3.5 32.499 3.5h36c17.333 0 30.166 -4 38.499 -12s12.5 -23.667 12.5 -47v-181h44c8 0 12 -4 12 -12v-51c0 -8.66699 -4 -13 -12 -13h-44v-57c0 -8 -4.66699 -12 -14 -12h-62c-8 0 -12 4 -12 12v57h-280
c-13.333 0 -23.166 3.5 -29.499 10.5s-9.5 15.5 -9.5 25.5v46c0 9.33301 1.33301 18.166 4 26.499s9.33398 16.166 20.001 23.499zM515.002 150.004c0 -3.33301 1.66699 -5 5 -5h217v154c0 4.66699 -2 7 -6 7h-4c-5.33301 0 -10.333 -1.66699 -15 -5l-192 -136
c-3.33301 -2 -5 -5.33301 -5 -10v-5z" />
    <glyph glyph-name="onehalf" unicode="&#xbd;" horiz-adv-x="1000" 
d="M704 700c5.33301 0 8.66797 -2 10.001 -6s0.333008 -8 -3 -12l-540 -672c-3.33301 -3.33301 -6.83301 -5.83301 -10.5 -7.5s-9.16699 -2.5 -16.5 -2.5h-61c-5.33301 0 -8.83301 2 -10.5 6s-0.833984 8 2.49902 12l540 672c3.33301 3.33301 6.83301 5.83301 10.5 7.5
s9.16699 2.5 16.5 2.5h62zM189.002 700c21.333 0 36.5 -4.33203 45.5 -12.999s13.5 -22.334 13.5 -41.001v-319c0 -8 -4.66699 -12 -14 -12h-62c-8 0 -12 4 -12 12v276c0 11.333 -5.66699 17 -17 17h-39c-8 0 -12 4 -12 12v56c0 8 4 12 12 12h85zM844.002 385.001
c34 0 58.833 -8.16895 74.5 -24.502s23.5 -38.166 23.5 -65.499v-41c0 -30 -8.16699 -53.333 -24.5 -70s-40.5 -25 -72.5 -25h-204c-17.333 0 -26 -10 -26 -30v-40c0 -6 3 -9 9 -9h304c8.66699 0 13 -4 13 -12v-56c0 -8 -4.33301 -12 -13 -12h-351
c-18 0 -30.833 3.66699 -38.5 11s-11.5 19 -11.5 35v87c0 30.667 8 54.334 24 71.001s40 25 72 25h205c16.667 0 25 10 25 30v17c0 19.333 -8.66699 29 -26 29h-273c-8.66699 0 -13 4 -13 12v56c0 8 4.33301 12 13 12h290z" />
    <glyph glyph-name="threequarters" unicode="&#xbe;" horiz-adv-x="1147" 
d="M911 700c5.33301 0 8.66797 -2 10.001 -6s0.333008 -8 -3 -12l-540 -672c-3.33301 -3.33301 -6.83301 -5.83301 -10.5 -7.5s-9.16699 -2.5 -16.5 -2.5h-61c-5.33301 0 -8.83301 2 -10.5 6s-0.833984 8 2.49902 12l540 672c3.33301 3.33301 6.83301 5.83301 10.5 7.5
s9.16699 2.5 16.5 2.5h62zM885.002 367c10 7.33301 19.167 12.1689 27.5 14.502s19.166 3.5 32.499 3.5h36c17.333 0 30.166 -4 38.499 -12s12.5 -23.667 12.5 -47v-181h44c8 0 12 -4 12 -12v-51c0 -8.66699 -4 -13 -12 -13h-44v-57c0 -8 -4.66699 -12 -14 -12h-62
c-8 0 -12 4 -12 12v57h-280c-13.333 0 -23.166 3.5 -29.499 10.5s-9.5 15.5 -9.5 25.5v46c0 9.33301 1.33301 18.166 4 26.499s9.33398 16.166 20.001 23.499zM722.002 150.003c0 -3.33301 1.66699 -5 5 -5h217v154c0 4.66699 -2 7 -6 7h-4
c-5.33301 0 -10.333 -1.66699 -15 -5l-192 -136c-3.33301 -2 -5 -5.33301 -5 -10v-5zM360.002 700.003c36.667 0 62.5 -7.33301 77.5 -22s22.5 -37.667 22.5 -69v-26c0 -29.333 -10 -52.333 -30 -69c22 -17.333 33 -41.333 33 -72v-32c0 -30 -6.66699 -53.333 -20 -70
s-37.333 -25 -72 -25h-300c-8 0 -12 4 -12 12v56c0 8 4 12 12 12h270c13.333 0 22.166 2.5 26.499 7.5s6.5 12.833 6.5 23.5v14c0 11.333 -2.16699 20 -6.5 26s-13.166 9 -26.499 9h-266c-8.66699 0 -13 4 -13 12v46c0 8 4.33301 12 13 12h266
c13.333 0 22.166 2.66699 26.499 8s6.5 13 6.5 23v13c0 10.667 -2.16699 18.5 -6.5 23.5s-13.166 7.5 -26.499 7.5h-270c-8 0 -12 4 -12 12v56c0 8 4 12 12 12h289z" />
    <glyph glyph-name="questiondown" unicode="&#xbf;" horiz-adv-x="631" 
d="M321 375c-15.333 0 -23 7.33301 -23 22v96c0 14.667 7.66699 22 23 22h98c14.667 0 22 -7.33301 22 -22v-96c0 -14.667 -7.33301 -22 -22 -22h-98zM167 -220c-47.333 0 -81.832 11.4971 -103.499 34.4971s-32.5 56.5 -32.5 100.5v42c0 20 1.5 37.5 4.5 52.5
s8.16699 28.167 15.5 39.5s16.833 21.5 28.5 30.5s26.167 17.5 43.5 25.5l165 79c10 4.66699 16.667 10.334 20 17.001s5.66602 14.667 6.99902 24l3 25c1.33301 10 3.83301 16.667 7.5 20s11.167 5 22.5 5h44c10.667 0 18 -2 22 -6s6 -10.333 6 -19l1 -49
c0 -17.333 -2.5 -33.5 -7.5 -48.5s-17.167 -27.5 -36.5 -37.5l-170 -88c-11.333 -5.33301 -19.333 -12.166 -24 -20.499s-7 -19.166 -7 -32.499v-26c0 -28 14.333 -42 43 -42h359c14.667 0 22 -7.33301 22 -22v-82c0 -14.667 -7.33301 -22 -22 -22h-411z" />
    <glyph glyph-name="Agrave" unicode="&#xc0;" horiz-adv-x="975" 
d="M510 700c25.333 0 46.6709 -5.16699 64.0039 -15.5s34.333 -30.5 51 -60.5l331 -601c3.33301 -6.66699 4.16602 -12.167 2.49902 -16.5s-6.5 -6.5 -14.5 -6.5h-127c-11.333 -0 -19 4.33301 -23 13l-71 129h-470l-69 -129c-4.66699 -8.66699 -12.334 -13 -23.001 -13h-130
c-8.66699 0 -13.834 2.16699 -15.501 6.5s-0.833984 9.83301 2.49902 16.5l328 601c16.667 30 33 50.167 49 60.5s34.667 15.5 56 15.5h59zM316.005 258h344.002l-159 293c-2.66699 4.66699 -6.33398 7 -11.001 7h-6c-4.66699 0 -8.33398 -2.33301 -11.001 -7zM449.007 916
c13.333 0 23.665 -6.33301 30.998 -19l90 -147c3.33301 -6 3.5 -10.667 0.5 -14s-8.5 -5 -16.5 -5h-76c-7.33301 0 -13.166 1.5 -17.499 4.5s-8.5 7.83301 -12.5 14.5l-102 147c-4.66699 6 -5.16699 10.667 -1.5 14s8.83398 5 15.501 5h89z" />
    <glyph glyph-name="Aacute" unicode="&#xc1;" horiz-adv-x="975" 
d="M510 700c25.333 0 46.6709 -5.16699 64.0039 -15.5s34.333 -30.5 51 -60.5l331 -601c3.33301 -6.66699 4.16602 -12.167 2.49902 -16.5s-6.5 -6.5 -14.5 -6.5h-127c-11.333 -0 -19 4.33301 -23 13l-71 129h-470l-69 -129c-4.66699 -8.66699 -12.334 -13 -23.001 -13h-130
c-8.66699 0 -13.834 2.16699 -15.501 6.5s-0.833984 9.83301 2.49902 16.5l328 601c16.667 30 33 50.167 49 60.5s34.667 15.5 56 15.5h59zM316.005 258h344.002l-159 293c-2.66699 4.66699 -6.33398 7 -11.001 7h-6c-4.66699 0 -8.33398 -2.33301 -11.001 -7zM614.007 916
c7.33301 0 12.667 -1.66699 16 -5s2.66602 -8 -2.00098 -14l-102 -147c-4 -6.66699 -8.16699 -11.5 -12.5 -14.5s-10.166 -4.5 -17.499 -4.5h-76c-7.33301 0 -12.666 1.66699 -15.999 5s-3 8 1 14l89 147c7.33301 12.667 17.666 19 30.999 19h89z" />
    <glyph glyph-name="Acircumflex" unicode="&#xc2;" horiz-adv-x="975" 
d="M510 700c25.333 0 46.6709 -5.16699 64.0039 -15.5s34.333 -30.5 51 -60.5l331 -601c3.33301 -6.66699 4.16602 -12.167 2.49902 -16.5s-6.5 -6.5 -14.5 -6.5h-127c-11.333 -0 -19 4.33301 -23 13l-71 129h-470l-69 -129c-4.66699 -8.66699 -12.334 -13 -23.001 -13h-130
c-8.66699 0 -13.834 2.16699 -15.501 6.5s-0.833984 9.83301 2.49902 16.5l328 601c16.667 30 33 50.167 49 60.5s34.667 15.5 56 15.5h59zM316.005 258h344.002l-159 293c-2.66699 4.66699 -6.33398 7 -11.001 7h-6c-4.66699 0 -8.33398 -2.33301 -11.001 -7zM532.007 916
c11.333 0 20.167 -1.83203 26.5 -5.49902s12.166 -9.16699 17.499 -16.5l105 -142c4.66699 -6 5.5 -11 2.5 -15s-7.83301 -6 -14.5 -6h-78c-13.333 0 -23.666 6 -30.999 18l-57 86c-2.66699 5.33301 -7 8 -13 8h-4c-6 0 -10.333 -2.66699 -13 -8l-58 -86
c-3.33301 -6.66699 -7.33301 -11.334 -12 -14.001s-11 -4 -19 -4h-77c-7.33301 0 -12.5 2 -15.5 6s-2.16699 9 2.5 15l106 142c5.33301 7.33301 11 12.833 17 16.5s14.667 5.5 26 5.5h89z" />
    <glyph glyph-name="Atilde" unicode="&#xc3;" horiz-adv-x="975" 
d="M510 700c25.333 0 46.6709 -5.16699 64.0039 -15.5s34.333 -30.5 51 -60.5l331 -601c3.33301 -6.66699 4.16602 -12.167 2.49902 -16.5s-6.5 -6.5 -14.5 -6.5h-127c-11.333 -0 -19 4.33301 -23 13l-71 129h-470l-69 -129c-4.66699 -8.66699 -12.334 -13 -23.001 -13h-130
c-8.66699 0 -13.834 2.16699 -15.501 6.5s-0.833984 9.83301 2.49902 16.5l328 601c16.667 30 33 50.167 49 60.5s34.667 15.5 56 15.5h59zM316.005 258h344.002l-159 293c-2.66699 4.66699 -6.33398 7 -11.001 7h-6c-4.66699 0 -8.33398 -2.33301 -11.001 -7zM248.007 743
c-8 0 -13.0029 2.16797 -15.0029 6.50098s-3 11.833 -3 22.5c0 27.333 2.33301 50 7 68s12 32.333 22 43s23 18.167 39 22.5s35 6.5 57 6.5c36 0 66.833 -4.83301 92.5 -14.5s49.834 -23.5 72.501 -41.5c11.333 -9.33301 22 -16.833 32 -22.5s24.667 -8.5 44 -8.5
c10 0 18 1 24 3s10.5 5.66699 13.5 11s5.16699 12.5 6.5 21.5s2 20.167 2 33.5c0.666992 14.667 9.66699 22 27 22h57c7.33301 0 12.166 -2.16699 14.499 -6.5s3.5 -11.833 3.5 -22.5c0 -27.333 -2.33301 -50 -7 -68s-12.167 -32.333 -22.5 -43s-23.5 -18.167 -39.5 -22.5
s-35 -6.5 -57 -6.5c-36 0 -66.667 4.83301 -92 14.5s-49.333 23.5 -72 41.5c-11.333 9.33301 -22.166 16.833 -32.499 22.5s-25.166 8.5 -44.499 8.5s-31.666 -4.83301 -36.999 -14.5s-8 -27.834 -8 -54.501c-0.666992 -14.667 -10 -22 -28 -22h-56z" />
    <glyph glyph-name="Adieresis" unicode="&#xc4;" horiz-adv-x="975" 
d="M510 700c25.333 0 46.6709 -5.16699 64.0039 -15.5s34.333 -30.5 51 -60.5l331 -601c3.33301 -6.66699 4.16602 -12.167 2.49902 -16.5s-6.5 -6.5 -14.5 -6.5h-127c-11.333 -0 -19 4.33301 -23 13l-71 129h-470l-69 -129c-4.66699 -8.66699 -12.334 -13 -23.001 -13h-130
c-8.66699 0 -13.834 2.16699 -15.501 6.5s-0.833984 9.83301 2.49902 16.5l328 601c16.667 30 33 50.167 49 60.5s34.667 15.5 56 15.5h59zM316.005 258h344.002l-159 293c-2.66699 4.66699 -6.33398 7 -11.001 7h-6c-4.66699 0 -8.33398 -2.33301 -11.001 -7zM397.007 885
c14.667 0 22 -6 22 -18v-95c0 -12 -7.33301 -18 -22 -18h-98c-14.667 0 -22 6 -22 18v95c0 12 7.33301 18 22 18h98zM676.007 885c15.333 0 23 -6 23 -18v-95c0 -12 -7.66699 -18 -23 -18h-98c-14.667 0 -22 6 -22 18v95c0 12 7.33301 18 22 18h98z" />
    <glyph glyph-name="Aring" unicode="&#xc5;" horiz-adv-x="975" 
d="M510 700c25.333 0 46.6709 -5.16699 64.0039 -15.5s34.333 -30.5 51 -60.5l331 -601c3.33301 -6.66699 4.16602 -12.167 2.49902 -16.5s-6.5 -6.5 -14.5 -6.5h-127c-11.333 -0 -19 4.33301 -23 13l-71 129h-470l-69 -129c-4.66699 -8.66699 -12.334 -13 -23.001 -13h-130
c-8.66699 0 -13.834 2.16699 -15.501 6.5s-0.833984 9.83301 2.49902 16.5l328 601c16.667 30 33 50.167 49 60.5s34.667 15.5 56 15.5h59zM316.005 258h344.002l-159 293c-2.66699 4.66699 -6.33398 7 -11.001 7h-6c-4.66699 0 -8.33398 -2.33301 -11.001 -7zM535.007 916
c38 0 64.667 -6 80 -18s23 -32 23 -60v-50c0 -28 -7.66699 -48 -23 -60s-42 -18 -80 -18h-97c-37.333 0 -63.666 6 -78.999 18s-23 32 -23 60v50c0 28 7.66699 48 23 60s41.666 18 78.999 18h97zM409.007 798c0 -13.333 2.83301 -22.333 8.5 -27s17.167 -7 34.5 -7h70
c17.333 0 28.833 2.33301 34.5 7s8.5 13.667 8.5 27v29c0 13.333 -2.83301 22.5 -8.5 27.5s-17.167 7.5 -34.5 7.5h-70c-17.333 0 -28.833 -2.5 -34.5 -7.5s-8.5 -14.167 -8.5 -27.5v-29z" />
    <glyph glyph-name="AE" unicode="&#xc6;" horiz-adv-x="1350" 
d="M1278 700c14.667 0 22.0029 -7.33398 22.0029 -22.001v-95c0 -14.667 -7.33301 -22 -22 -22h-523v-147h517c14.667 0 22 -7.33301 22 -22v-78c0 -15.333 -7.33301 -23 -22 -23h-517v-16c0 -26 2.16699 -47.833 6.5 -65.5s11.5 -31.667 21.5 -42
s23.5 -17.666 40.5 -21.999s38.5 -6.5 64.5 -6.5h390c14.667 0 22 -7.33301 22 -22v-95c0 -14.667 -7.33301 -22 -22 -22h-392c-76.667 -0 -136.167 10.833 -178.5 32.5s-71.166 58.167 -86.499 109.5h-368l-69 -129c-4.66699 -8.66699 -12.334 -13 -23.001 -13h-130
c-8.66699 0 -13.834 2.16699 -15.501 6.5s-0.833984 9.83301 2.49902 16.5l328 601c16 30.667 32.167 51 48.5 61s35.166 15 56.499 15h827zM315.003 257.999h291v303h-120c-4 0 -8 -2.33301 -12 -7z" />
    <glyph glyph-name="Ccedilla" unicode="&#xc7;" horiz-adv-x="852" 
d="M789 700c14.667 0 22 -7.33496 22 -22.002v-98c0 -15.333 -7.33301 -23 -22 -23h-445c-26 0 -47.5 -2.16699 -64.5 -6.5s-30.5 -11.666 -40.5 -21.999s-17.167 -24.166 -21.5 -41.499s-6.5 -39.333 -6.5 -66v-142c0 -26.667 2.16699 -48.834 6.5 -66.501
s11.5 -31.667 21.5 -42s23.5 -17.666 40.5 -21.999s38.5 -6.5 64.5 -6.5h445c14.667 0 22 -7.33301 22 -22v-98c0 -14.667 -7.33301 -22 -22 -22h-451c-50.667 0 -93.667 4.66699 -129 14s-64.166 24.5 -86.499 45.5s-38.666 48.333 -48.999 82s-15.5 74.5 -15.5 122.5v172
c0 48 5.16699 88.667 15.5 122s26.666 60.5 48.999 81.5s51.166 36.333 86.499 46s78.333 14.5 129 14.5h451zM513 -41.002c16.667 0 23.001 -8.66699 19.001 -26l-44 -182c-4 -15.333 -12.333 -23 -25 -23h-57c-16.667 0 -24.334 7.66699 -23.001 23l16 185
c1.33301 15.333 9.33301 23 24 23h90z" />
    <glyph glyph-name="Egrave" unicode="&#xc8;" horiz-adv-x="850" 
d="M778 700c15.333 0 23 -7.33496 23 -22.002v-95c0 -14.667 -7.66699 -22 -23 -22h-437c-26 0 -47.5 -2.16699 -64.5 -6.5s-30.667 -11.666 -41 -21.999s-17.5 -24.333 -21.5 -42s-6 -39.5 -6 -65.5v-10h565c14.667 0 22 -7.33301 22 -22v-79
c0 -14.667 -7.33301 -22 -22 -22h-565v-17c0 -26 2 -47.833 6 -65.5s11.167 -31.667 21.5 -42s24 -17.666 41 -21.999s38.5 -6.5 64.5 -6.5h437c15.333 0 23 -7.33301 23 -22v-95c0 -14.667 -7.66699 -22 -23 -22h-440c-50.667 0 -93.667 4.66699 -129 14
s-64.166 24.5 -86.499 45.5s-38.666 48.333 -48.999 82s-15.5 74.5 -15.5 122.5v172c0 48 5.16699 88.667 15.5 122s26.666 60.5 48.999 81.5s51.166 36.333 86.499 46s78.333 14.5 129 14.5h440zM428 915.998c13.333 0 23.665 -6.33301 30.998 -19l90 -147
c3.33301 -6 3.5 -10.667 0.5 -14s-8.5 -5 -16.5 -5h-76c-7.33301 0 -13.166 1.5 -17.499 4.5s-8.5 7.83301 -12.5 14.5l-102 147c-4.66699 6 -5.16699 10.667 -1.5 14s8.83398 5 15.501 5h89z" />
    <glyph glyph-name="Eacute" unicode="&#xc9;" horiz-adv-x="850" 
d="M778 700c15.333 0 23 -7.33496 23 -22.002v-95c0 -14.667 -7.66699 -22 -23 -22h-437c-26 0 -47.5 -2.16699 -64.5 -6.5s-30.667 -11.666 -41 -21.999s-17.5 -24.333 -21.5 -42s-6 -39.5 -6 -65.5v-10h565c14.667 0 22 -7.33301 22 -22v-79
c0 -14.667 -7.33301 -22 -22 -22h-565v-17c0 -26 2 -47.833 6 -65.5s11.167 -31.667 21.5 -42s24 -17.666 41 -21.999s38.5 -6.5 64.5 -6.5h437c15.333 0 23 -7.33301 23 -22v-95c0 -14.667 -7.66699 -22 -23 -22h-440c-50.667 0 -93.667 4.66699 -129 14
s-64.166 24.5 -86.499 45.5s-38.666 48.333 -48.999 82s-15.5 74.5 -15.5 122.5v172c0 48 5.16699 88.667 15.5 122s26.666 60.5 48.999 81.5s51.166 36.333 86.499 46s78.333 14.5 129 14.5h440zM593 915.998c7.33301 0 12.667 -1.66699 16 -5s2.66602 -8 -2.00098 -14
l-102 -147c-4 -6.66699 -8.16699 -11.5 -12.5 -14.5s-10.166 -4.5 -17.499 -4.5h-76c-7.33301 0 -12.666 1.66699 -15.999 5s-3 8 1 14l89 147c7.33301 12.667 17.666 19 30.999 19h89z" />
    <glyph glyph-name="Ecircumflex" unicode="&#xca;" horiz-adv-x="850" 
d="M778 700c15.333 0 23 -7.33496 23 -22.002v-95c0 -14.667 -7.66699 -22 -23 -22h-437c-26 0 -47.5 -2.16699 -64.5 -6.5s-30.667 -11.666 -41 -21.999s-17.5 -24.333 -21.5 -42s-6 -39.5 -6 -65.5v-10h565c14.667 0 22 -7.33301 22 -22v-79
c0 -14.667 -7.33301 -22 -22 -22h-565v-17c0 -26 2 -47.833 6 -65.5s11.167 -31.667 21.5 -42s24 -17.666 41 -21.999s38.5 -6.5 64.5 -6.5h437c15.333 0 23 -7.33301 23 -22v-95c0 -14.667 -7.66699 -22 -23 -22h-440c-50.667 0 -93.667 4.66699 -129 14
s-64.166 24.5 -86.499 45.5s-38.666 48.333 -48.999 82s-15.5 74.5 -15.5 122.5v172c0 48 5.16699 88.667 15.5 122s26.666 60.5 48.999 81.5s51.166 36.333 86.499 46s78.333 14.5 129 14.5h440zM510 915.998c11.333 0 20.167 -1.83203 26.5 -5.49902
s12.166 -9.16699 17.499 -16.5l105 -142c4.66699 -6 5.5 -11 2.5 -15s-7.83301 -6 -14.5 -6h-78c-13.333 0 -23.666 6 -30.999 18l-57 86c-2.66699 5.33301 -7 8 -13 8h-4c-6 0 -10.333 -2.66699 -13 -8l-58 -86c-3.33301 -6.66699 -7.33301 -11.334 -12 -14.001
s-11 -4 -19 -4h-77c-7.33301 0 -12.5 2 -15.5 6s-2.16699 9 2.5 15l106 142c5.33301 7.33301 11 12.833 17 16.5s14.667 5.5 26 5.5h89z" />
    <glyph glyph-name="Edieresis" unicode="&#xcb;" horiz-adv-x="850" 
d="M778 700c15.333 0 23 -7.33496 23 -22.002v-95c0 -14.667 -7.66699 -22 -23 -22h-437c-26 0 -47.5 -2.16699 -64.5 -6.5s-30.667 -11.666 -41 -21.999s-17.5 -24.333 -21.5 -42s-6 -39.5 -6 -65.5v-10h565c14.667 0 22 -7.33301 22 -22v-79
c0 -14.667 -7.33301 -22 -22 -22h-565v-17c0 -26 2 -47.833 6 -65.5s11.167 -31.667 21.5 -42s24 -17.666 41 -21.999s38.5 -6.5 64.5 -6.5h437c15.333 0 23 -7.33301 23 -22v-95c0 -14.667 -7.66699 -22 -23 -22h-440c-50.667 0 -93.667 4.66699 -129 14
s-64.166 24.5 -86.499 45.5s-38.666 48.333 -48.999 82s-15.5 74.5 -15.5 122.5v172c0 48 5.16699 88.667 15.5 122s26.666 60.5 48.999 81.5s51.166 36.333 86.499 46s78.333 14.5 129 14.5h440zM374 884.998c14.667 0 22 -6 22 -18v-95c0 -12 -7.33301 -18 -22 -18h-98
c-14.667 0 -22 6 -22 18v95c0 12 7.33301 18 22 18h98zM653 884.998c15.333 0 23 -6 23 -18v-95c0 -12 -7.66699 -18 -23 -18h-98c-14.667 0 -22 6 -22 18v95c0 12 7.33301 18 22 18h98z" />
    <glyph glyph-name="Igrave" unicode="&#xcc;" horiz-adv-x="289" 
d="M199 700c14.667 0 22 -7.33301 22 -22v-656c0 -14.667 -7.33301 -22 -22 -22h-108c-15.333 -0 -23 7.33301 -23 22v656c0 14.667 7.66699 22 23 22h108zM107 916c13.333 0 23.665 -6.33301 30.998 -19l90 -147c3.33301 -6 3.5 -10.667 0.5 -14s-8.5 -5 -16.5 -5h-76
c-7.33301 0 -13.166 1.5 -17.499 4.5s-8.5 7.83301 -12.5 14.5l-102 147c-4.66699 6 -5.16699 10.667 -1.5 14s8.83398 5 15.501 5h89z" />
    <glyph glyph-name="Iacute" unicode="&#xcd;" horiz-adv-x="289" 
d="M197 700c14.667 0 22 -7.33301 22 -22v-656c0 -14.667 -7.33301 -22 -22 -22h-108c-15.333 -0 -23 7.33301 -23 22v656c0 14.667 7.66699 22 23 22h108zM270 916c7.33301 0 12.667 -1.66699 16 -5s2.66602 -8 -2.00098 -14l-102 -147
c-4 -6.66699 -8.16699 -11.5 -12.5 -14.5s-10.166 -4.5 -17.499 -4.5h-76c-7.33301 0 -12.666 1.66699 -15.999 5s-3 8 1 14l89 147c7.33301 12.667 17.666 19 30.999 19h89z" />
    <glyph glyph-name="Icircumflex" unicode="&#xce;" horiz-adv-x="372" 
d="M240 700c14.667 0 22 -7.33301 22 -22v-656c0 -14.667 -7.33301 -22 -22 -22h-108c-15.333 -0 -23 7.33301 -23 22v656c0 14.667 7.66699 22 23 22h108zM230 916c11.333 0 20.167 -1.83203 26.5 -5.49902s12.166 -9.16699 17.499 -16.5l105 -142
c4.66699 -6 5.5 -11 2.5 -15s-7.83301 -6 -14.5 -6h-78c-13.333 0 -23.666 6 -30.999 18l-57 86c-2.66699 5.33301 -7 8 -13 8h-4c-6 0 -10.333 -2.66699 -13 -8l-58 -86c-3.33301 -6.66699 -7.33301 -11.334 -12 -14.001s-11 -4 -19 -4h-77c-7.33301 0 -12.5 2 -15.5 6
s-2.16699 9 2.5 15l106 142c5.33301 7.33301 11 12.833 17 16.5s14.667 5.5 26 5.5h89z" />
    <glyph glyph-name="Idieresis" unicode="&#xcf;" horiz-adv-x="381" 
d="M244 700c14.667 0 22 -7.33301 22 -22v-656c0 -14.667 -7.33301 -22 -22 -22h-108c-15.333 -0 -23 7.33301 -23 22v656c0 14.667 7.66699 22 23 22h108zM357 885c14.667 0 22 -6 22 -18v-95c0 -12 -7.33301 -18 -22 -18h-98c-14.667 0 -22 6 -22 18v95
c0 12 7.33301 18 22 18h98zM122 885c14.667 0 22 -6 22 -18v-95c0 -12 -7.33301 -18 -22 -18h-98c-14.667 0 -22 6 -22 18v95c0 12 7.33301 18 22 18h98z" />
    <glyph glyph-name="Eth" unicode="&#xd0;" horiz-adv-x="983" 
d="M619 700c54 0 100.333 -5.49805 139 -16.498s70.334 -28 95.001 -51s42.834 -52.333 54.501 -88s17.5 -77.834 17.5 -126.501v-136c0 -48.667 -5.83301 -90.834 -17.5 -126.501s-29.834 -65 -54.501 -88s-56.334 -40 -95.001 -51s-85 -16.5 -139 -16.5h-468
c-20 0 -30 10 -30 30v262h-86c-14.667 0 -22 7.33301 -22 22v79c0 14.667 7.33301 22 22 22h86v255c0 20 10 30 30 30h468zM274 415.002h340c14.667 0 22 -7.33301 22 -22v-79c0 -14.667 -7.33301 -22 -22 -22h-340v-140c0 -8.66699 4.33301 -13 13 -13h328
c29.333 0 54 2.66699 74 8s36.167 14 48.5 26s21.166 28 26.499 48s8 44.667 8 74v110c0 29.333 -2.66699 54 -8 74s-14.166 36 -26.499 48s-28.5 20.667 -48.5 26s-44.667 8 -74 8h-328c-8.66699 0 -13 -4.66699 -13 -14v-132z" />
    <glyph glyph-name="Ntilde" unicode="&#xd1;" horiz-adv-x="978" 
d="M244 700c16 0 29.333 -0.666992 40 -2s20 -4.16602 28 -8.49902s15.667 -10.333 23 -18s15.666 -17.834 24.999 -30.501l372 -488c2.66699 -4.66699 7 -7 13 -7h9c5.33301 0 8 3.33301 8 10v522c0 14.667 7.33301 22 22 22h105c14.667 0 22 -7.33301 22 -22v-574
c0 -40.667 -7.33301 -68.167 -22 -82.5s-37.334 -21.5 -68.001 -21.5h-86c-15.333 0 -28.166 0.666992 -38.499 2s-19.5 4 -27.5 8s-15.833 9.83301 -23.5 17.5s-16.5 18.167 -26.5 31.5l-373 488c-4 4.66699 -8.33301 7 -13 7h-9c-5.33301 0 -8 -3.33301 -8 -10v-522
c0 -14.667 -7.33301 -22 -22 -22h-105c-15.333 -0 -23 7.33301 -23 22v574c0 40.667 7.33301 68.167 22 82.5s37.334 21.5 68.001 21.5h88zM251 743c-8 0 -13.0029 2.16797 -15.0029 6.50098s-3 11.833 -3 22.5c0 27.333 2.33301 50 7 68s12 32.333 22 43s23 18.167 39 22.5
s35 6.5 57 6.5c36 0 66.833 -4.83301 92.5 -14.5s49.834 -23.5 72.501 -41.5c11.333 -9.33301 22 -16.833 32 -22.5s24.667 -8.5 44 -8.5c10 0 18 1 24 3s10.5 5.66699 13.5 11s5.16699 12.5 6.5 21.5s2 20.167 2 33.5c0.666992 14.667 9.66699 22 27 22h57
c7.33301 0 12.166 -2.16699 14.499 -6.5s3.5 -11.833 3.5 -22.5c0 -27.333 -2.33301 -50 -7 -68s-12.167 -32.333 -22.5 -43s-23.5 -18.167 -39.5 -22.5s-35 -6.5 -57 -6.5c-36 0 -66.667 4.83301 -92 14.5s-49.333 23.5 -72 41.5
c-11.333 9.33301 -22.166 16.833 -32.499 22.5s-25.166 8.5 -44.499 8.5s-31.666 -4.83301 -36.999 -14.5s-8 -27.834 -8 -54.501c-0.666992 -14.667 -10 -22 -28 -22h-56z" />
    <glyph glyph-name="Ograve" unicode="&#xd2;" horiz-adv-x="985" 
d="M647 700c50.667 0 93.834 -4.83301 129.501 -14.5s64.667 -25 87 -46s38.5 -48.167 48.5 -81.5s15 -74 15 -122v-172c0 -48 -5 -88.833 -15 -122.5s-26.167 -61 -48.5 -82s-51.333 -36.167 -87 -45.5s-78.834 -14 -129.501 -14h-309c-50.667 0 -93.667 4.66699 -129 14
s-64.166 24.5 -86.499 45.5s-38.666 48.333 -48.999 82s-15.5 74.5 -15.5 122.5v172c0 48 5.16699 88.667 15.5 122s26.666 60.5 48.999 81.5s51.166 36.333 86.499 46s78.333 14.5 129 14.5h309zM211 275c0 -26 2.16699 -47.833 6.5 -65.5s11.5 -31.667 21.5 -42
s23.5 -17.666 40.5 -21.999s38.5 -6.5 64.5 -6.5h297c26 0 47.5 2.16699 64.5 6.5s30.5 11.666 40.5 21.999s17.167 24.333 21.5 42s6.5 39.5 6.5 65.5v150c0 26 -2.16699 47.833 -6.5 65.5s-11.5 31.667 -21.5 42s-23.5 17.666 -40.5 21.999s-38.5 6.5 -64.5 6.5h-297
c-26 0 -47.5 -2.16699 -64.5 -6.5s-30.5 -11.666 -40.5 -21.999s-17.167 -24.333 -21.5 -42s-6.5 -39.5 -6.5 -65.5v-150zM450 916c13.333 0 23.665 -6.33301 30.998 -19l90 -147c3.33301 -6 3.5 -10.667 0.5 -14s-8.5 -5 -16.5 -5h-76c-7.33301 0 -13.166 1.5 -17.499 4.5
s-8.5 7.83301 -12.5 14.5l-102 147c-4.66699 6 -5.16699 10.667 -1.5 14s8.83398 5 15.501 5h89z" />
    <glyph glyph-name="Oacute" unicode="&#xd3;" horiz-adv-x="985" 
d="M647 700c50.667 0 93.834 -4.83301 129.501 -14.5s64.667 -25 87 -46s38.5 -48.167 48.5 -81.5s15 -74 15 -122v-172c0 -48 -5 -88.833 -15 -122.5s-26.167 -61 -48.5 -82s-51.333 -36.167 -87 -45.5s-78.834 -14 -129.501 -14h-309c-50.667 0 -93.667 4.66699 -129 14
s-64.166 24.5 -86.499 45.5s-38.666 48.333 -48.999 82s-15.5 74.5 -15.5 122.5v172c0 48 5.16699 88.667 15.5 122s26.666 60.5 48.999 81.5s51.166 36.333 86.499 46s78.333 14.5 129 14.5h309zM211 275c0 -26 2.16699 -47.833 6.5 -65.5s11.5 -31.667 21.5 -42
s23.5 -17.666 40.5 -21.999s38.5 -6.5 64.5 -6.5h297c26 0 47.5 2.16699 64.5 6.5s30.5 11.666 40.5 21.999s17.167 24.333 21.5 42s6.5 39.5 6.5 65.5v150c0 26 -2.16699 47.833 -6.5 65.5s-11.5 31.667 -21.5 42s-23.5 17.666 -40.5 21.999s-38.5 6.5 -64.5 6.5h-297
c-26 0 -47.5 -2.16699 -64.5 -6.5s-30.5 -11.666 -40.5 -21.999s-17.167 -24.333 -21.5 -42s-6.5 -39.5 -6.5 -65.5v-150zM618 916c7.33301 0 12.667 -1.66699 16 -5s2.66602 -8 -2.00098 -14l-102 -147c-4 -6.66699 -8.16699 -11.5 -12.5 -14.5s-10.166 -4.5 -17.499 -4.5
h-76c-7.33301 0 -12.666 1.66699 -15.999 5s-3 8 1 14l89 147c7.33301 12.667 17.666 19 30.999 19h89z" />
    <glyph glyph-name="Ocircumflex" unicode="&#xd4;" horiz-adv-x="985" 
d="M647 700c50.667 0 93.834 -4.83301 129.501 -14.5s64.667 -25 87 -46s38.5 -48.167 48.5 -81.5s15 -74 15 -122v-172c0 -48 -5 -88.833 -15 -122.5s-26.167 -61 -48.5 -82s-51.333 -36.167 -87 -45.5s-78.834 -14 -129.501 -14h-309c-50.667 0 -93.667 4.66699 -129 14
s-64.166 24.5 -86.499 45.5s-38.666 48.333 -48.999 82s-15.5 74.5 -15.5 122.5v172c0 48 5.16699 88.667 15.5 122s26.666 60.5 48.999 81.5s51.166 36.333 86.499 46s78.333 14.5 129 14.5h309zM211 275c0 -26 2.16699 -47.833 6.5 -65.5s11.5 -31.667 21.5 -42
s23.5 -17.666 40.5 -21.999s38.5 -6.5 64.5 -6.5h297c26 0 47.5 2.16699 64.5 6.5s30.5 11.666 40.5 21.999s17.167 24.333 21.5 42s6.5 39.5 6.5 65.5v150c0 26 -2.16699 47.833 -6.5 65.5s-11.5 31.667 -21.5 42s-23.5 17.666 -40.5 21.999s-38.5 6.5 -64.5 6.5h-297
c-26 0 -47.5 -2.16699 -64.5 -6.5s-30.5 -11.666 -40.5 -21.999s-17.167 -24.333 -21.5 -42s-6.5 -39.5 -6.5 -65.5v-150zM536 916c11.333 0 20.167 -1.83203 26.5 -5.49902s12.166 -9.16699 17.499 -16.5l105 -142c4.66699 -6 5.5 -11 2.5 -15s-7.83301 -6 -14.5 -6h-78
c-13.333 0 -23.666 6 -30.999 18l-57 86c-2.66699 5.33301 -7 8 -13 8h-4c-6 0 -10.333 -2.66699 -13 -8l-58 -86c-3.33301 -6.66699 -7.33301 -11.334 -12 -14.001s-11 -4 -19 -4h-77c-7.33301 0 -12.5 2 -15.5 6s-2.16699 9 2.5 15l106 142
c5.33301 7.33301 11 12.833 17 16.5s14.667 5.5 26 5.5h89z" />
    <glyph glyph-name="Otilde" unicode="&#xd5;" horiz-adv-x="985" 
d="M647 700c50.667 0 93.834 -4.83301 129.501 -14.5s64.667 -25 87 -46s38.5 -48.167 48.5 -81.5s15 -74 15 -122v-172c0 -48 -5 -88.833 -15 -122.5s-26.167 -61 -48.5 -82s-51.333 -36.167 -87 -45.5s-78.834 -14 -129.501 -14h-309c-50.667 0 -93.667 4.66699 -129 14
s-64.166 24.5 -86.499 45.5s-38.666 48.333 -48.999 82s-15.5 74.5 -15.5 122.5v172c0 48 5.16699 88.667 15.5 122s26.666 60.5 48.999 81.5s51.166 36.333 86.499 46s78.333 14.5 129 14.5h309zM211 275c0 -26 2.16699 -47.833 6.5 -65.5s11.5 -31.667 21.5 -42
s23.5 -17.666 40.5 -21.999s38.5 -6.5 64.5 -6.5h297c26 0 47.5 2.16699 64.5 6.5s30.5 11.666 40.5 21.999s17.167 24.333 21.5 42s6.5 39.5 6.5 65.5v150c0 26 -2.16699 47.833 -6.5 65.5s-11.5 31.667 -21.5 42s-23.5 17.666 -40.5 21.999s-38.5 6.5 -64.5 6.5h-297
c-26 0 -47.5 -2.16699 -64.5 -6.5s-30.5 -11.666 -40.5 -21.999s-17.167 -24.333 -21.5 -42s-6.5 -39.5 -6.5 -65.5v-150zM254 743c-8 0 -13.0029 2.16797 -15.0029 6.50098s-3 11.833 -3 22.5c0 27.333 2.33301 50 7 68s12 32.333 22 43s23 18.167 39 22.5s35 6.5 57 6.5
c36 0 66.833 -4.83301 92.5 -14.5s49.834 -23.5 72.501 -41.5c11.333 -9.33301 22 -16.833 32 -22.5s24.667 -8.5 44 -8.5c10 0 18 1 24 3s10.5 5.66699 13.5 11s5.16699 12.5 6.5 21.5s2 20.167 2 33.5c0.666992 14.667 9.66699 22 27 22h57
c7.33301 0 12.166 -2.16699 14.499 -6.5s3.5 -11.833 3.5 -22.5c0 -27.333 -2.33301 -50 -7 -68s-12.167 -32.333 -22.5 -43s-23.5 -18.167 -39.5 -22.5s-35 -6.5 -57 -6.5c-36 0 -66.667 4.83301 -92 14.5s-49.333 23.5 -72 41.5
c-11.333 9.33301 -22.166 16.833 -32.499 22.5s-25.166 8.5 -44.499 8.5s-31.666 -4.83301 -36.999 -14.5s-8 -27.834 -8 -54.501c-0.666992 -14.667 -10 -22 -28 -22h-56z" />
    <glyph glyph-name="Odieresis" unicode="&#xd6;" horiz-adv-x="985" 
d="M647 700c50.667 0 93.834 -4.83301 129.501 -14.5s64.667 -25 87 -46s38.5 -48.167 48.5 -81.5s15 -74 15 -122v-172c0 -48 -5 -88.833 -15 -122.5s-26.167 -61 -48.5 -82s-51.333 -36.167 -87 -45.5s-78.834 -14 -129.501 -14h-309c-50.667 0 -93.667 4.66699 -129 14
s-64.166 24.5 -86.499 45.5s-38.666 48.333 -48.999 82s-15.5 74.5 -15.5 122.5v172c0 48 5.16699 88.667 15.5 122s26.666 60.5 48.999 81.5s51.166 36.333 86.499 46s78.333 14.5 129 14.5h309zM211 275c0 -26 2.16699 -47.833 6.5 -65.5s11.5 -31.667 21.5 -42
s23.5 -17.666 40.5 -21.999s38.5 -6.5 64.5 -6.5h297c26 0 47.5 2.16699 64.5 6.5s30.5 11.666 40.5 21.999s17.167 24.333 21.5 42s6.5 39.5 6.5 65.5v150c0 26 -2.16699 47.833 -6.5 65.5s-11.5 31.667 -21.5 42s-23.5 17.666 -40.5 21.999s-38.5 6.5 -64.5 6.5h-297
c-26 0 -47.5 -2.16699 -64.5 -6.5s-30.5 -11.666 -40.5 -21.999s-17.167 -24.333 -21.5 -42s-6.5 -39.5 -6.5 -65.5v-150zM402 885c14.667 0 22 -6 22 -18v-95c0 -12 -7.33301 -18 -22 -18h-98c-14.667 0 -22 6 -22 18v95c0 12 7.33301 18 22 18h98zM681 885
c15.333 0 23 -6 23 -18v-95c0 -12 -7.66699 -18 -23 -18h-98c-14.667 0 -22 6 -22 18v95c0 12 7.33301 18 22 18h98z" />
    <glyph glyph-name="multiply" unicode="&#xd7;" horiz-adv-x="613" 
d="M105 594c8 8 16.667 8 26 0l175 -176l176 176c8 8 16.333 8 25 0l43 -43c8 -8.66699 8 -17 0 -25l-176 -176l176 -176c9.33301 -8 9.33301 -16.667 0 -26l-42 -42c-9.33301 -8 -18 -8 -26 0l-176 176l-176 -176c-8.66699 -8.66699 -17 -8.66699 -25 0l-43 42
c-8 9.33301 -8 18 0 26l176 176l-175 176c-9.33301 8 -9.33301 16.333 0 25z" />
    <glyph glyph-name="Oslash" unicode="&#xd8;" horiz-adv-x="985" 
d="M647 700c9.33301 0 18.5029 -0.166992 27.5029 -0.5s17.833 -0.833008 26.5 -1.5l65 86c5.33301 7.33301 10.5 11.833 15.5 13.5s10.5 2.5 16.5 2.5h60c5.33301 0 9.16602 -1.83301 11.499 -5.5s1.16602 -8.16699 -3.50098 -13.5l-75 -100c48 -16 82.667 -43.667 104 -83
s32 -93.333 32 -162v-172c0 -48 -5 -88.833 -15 -122.5s-26.167 -61 -48.5 -82s-51.333 -36.167 -87 -45.5s-78.834 -14 -129.501 -14h-309h-28.5c-9 0 -18.167 0.666992 -27.5 2l-64 -86c-5.33301 -7.33301 -10.5 -11.833 -15.5 -13.5s-10.5 -2.5 -16.5 -2.5h-60
c-5.33301 0 -9.16602 1.83301 -11.499 5.5s-1.16602 8.16699 3.50098 13.5l75 100c-48 16 -82.5 43.667 -103.5 83s-31.5 93.333 -31.5 162v172c0 48 5.16699 88.667 15.5 122s26.666 60.5 48.999 81.5s51.166 36.333 86.499 46s78.333 14.5 129 14.5h309zM774.003 425
c0 41.333 -5.5 72.001 -16.5 92.001s-31.167 33 -60.5 39l-312 -417h256c26 0 47.5 2.16699 64.5 6.5s30.5 11.666 40.5 21.999s17.167 24.333 21.5 42s6.5 39.5 6.5 65.5v150zM211.003 275.001c0 -41.333 5.33203 -72.168 15.999 -92.501s30.334 -33.5 59.001 -39.5
l313 418h-255c-26 0 -47.5 -2.16699 -64.5 -6.5s-30.5 -11.666 -40.5 -21.999s-17.167 -24.333 -21.5 -42s-6.5 -39.5 -6.5 -65.5v-150z" />
    <glyph glyph-name="Ugrave" unicode="&#xd9;" horiz-adv-x="977" 
d="M195 700c14.667 0 21.999 -7.33301 21.999 -22v-399c0 -26.667 2.16699 -48.834 6.5 -66.501s11.5 -31.667 21.5 -42s23.5 -17.666 40.5 -21.999s38.5 -6.5 64.5 -6.5h277c26 0 47.5 2.16699 64.5 6.5s30.5 11.666 40.5 21.999s17 24.333 21 42s6 39.834 6 66.501v399
c0 14.667 7.33301 22 22 22h109c14.667 0 22 -7.33301 22 -22v-414c0 -48 -5 -88.833 -15 -122.5s-26.167 -61 -48.5 -82s-51.333 -36.167 -87 -45.5s-78.834 -14 -129.501 -14h-288c-50.667 0 -93.667 4.66699 -129 14s-64.166 24.5 -86.499 45.5
s-38.666 48.333 -48.999 82s-15.5 74.5 -15.5 122.5v414c0 14.667 7.66699 22 23 22h108zM449.999 916c13.333 0 23.665 -6.33301 30.998 -19l90 -147c3.33301 -6 3.5 -10.667 0.5 -14s-8.5 -5 -16.5 -5h-76c-7.33301 0 -13.166 1.5 -17.499 4.5s-8.5 7.83301 -12.5 14.5
l-102 147c-4.66699 6 -5.16699 10.667 -1.5 14s8.83398 5 15.501 5h89z" />
    <glyph glyph-name="Uacute" unicode="&#xda;" horiz-adv-x="977" 
d="M195 700c14.667 0 21.999 -7.33301 21.999 -22v-399c0 -26.667 2.16699 -48.834 6.5 -66.501s11.5 -31.667 21.5 -42s23.5 -17.666 40.5 -21.999s38.5 -6.5 64.5 -6.5h277c26 0 47.5 2.16699 64.5 6.5s30.5 11.666 40.5 21.999s17 24.333 21 42s6 39.834 6 66.501v399
c0 14.667 7.33301 22 22 22h109c14.667 0 22 -7.33301 22 -22v-414c0 -48 -5 -88.833 -15 -122.5s-26.167 -61 -48.5 -82s-51.333 -36.167 -87 -45.5s-78.834 -14 -129.501 -14h-288c-50.667 0 -93.667 4.66699 -129 14s-64.166 24.5 -86.499 45.5
s-38.666 48.333 -48.999 82s-15.5 74.5 -15.5 122.5v414c0 14.667 7.66699 22 23 22h108zM613.999 916c7.33301 0 12.667 -1.66699 16 -5s2.66602 -8 -2.00098 -14l-102 -147c-4 -6.66699 -8.16699 -11.5 -12.5 -14.5s-10.166 -4.5 -17.499 -4.5h-76
c-7.33301 0 -12.666 1.66699 -15.999 5s-3 8 1 14l89 147c7.33301 12.667 17.666 19 30.999 19h89z" />
    <glyph glyph-name="Ucircumflex" unicode="&#xdb;" horiz-adv-x="977" 
d="M195 700c14.667 0 21.999 -7.33301 21.999 -22v-399c0 -26.667 2.16699 -48.834 6.5 -66.501s11.5 -31.667 21.5 -42s23.5 -17.666 40.5 -21.999s38.5 -6.5 64.5 -6.5h277c26 0 47.5 2.16699 64.5 6.5s30.5 11.666 40.5 21.999s17 24.333 21 42s6 39.834 6 66.501v399
c0 14.667 7.33301 22 22 22h109c14.667 0 22 -7.33301 22 -22v-414c0 -48 -5 -88.833 -15 -122.5s-26.167 -61 -48.5 -82s-51.333 -36.167 -87 -45.5s-78.834 -14 -129.501 -14h-288c-50.667 0 -93.667 4.66699 -129 14s-64.166 24.5 -86.499 45.5
s-38.666 48.333 -48.999 82s-15.5 74.5 -15.5 122.5v414c0 14.667 7.66699 22 23 22h108zM531.999 916c11.333 0 20.167 -1.83203 26.5 -5.49902s12.166 -9.16699 17.499 -16.5l105 -142c4.66699 -6 5.5 -11 2.5 -15s-7.83301 -6 -14.5 -6h-78
c-13.333 0 -23.666 6 -30.999 18l-57 86c-2.66699 5.33301 -7 8 -13 8h-4c-6 0 -10.333 -2.66699 -13 -8l-58 -86c-3.33301 -6.66699 -7.33301 -11.334 -12 -14.001s-11 -4 -19 -4h-77c-7.33301 0 -12.5 2 -15.5 6s-2.16699 9 2.5 15l106 142
c5.33301 7.33301 11 12.833 17 16.5s14.667 5.5 26 5.5h89z" />
    <glyph glyph-name="Udieresis" unicode="&#xdc;" horiz-adv-x="977" 
d="M195 700c14.667 0 21.999 -7.33301 21.999 -22v-399c0 -26.667 2.16699 -48.834 6.5 -66.501s11.5 -31.667 21.5 -42s23.5 -17.666 40.5 -21.999s38.5 -6.5 64.5 -6.5h277c26 0 47.5 2.16699 64.5 6.5s30.5 11.666 40.5 21.999s17 24.333 21 42s6 39.834 6 66.501v399
c0 14.667 7.33301 22 22 22h109c14.667 0 22 -7.33301 22 -22v-414c0 -48 -5 -88.833 -15 -122.5s-26.167 -61 -48.5 -82s-51.333 -36.167 -87 -45.5s-78.834 -14 -129.501 -14h-288c-50.667 0 -93.667 4.66699 -129 14s-64.166 24.5 -86.499 45.5
s-38.666 48.333 -48.999 82s-15.5 74.5 -15.5 122.5v414c0 14.667 7.66699 22 23 22h108zM396.999 885c14.667 0 22 -6 22 -18v-95c0 -12 -7.33301 -18 -22 -18h-98c-14.667 0 -22 6 -22 18v95c0 12 7.33301 18 22 18h98zM675.999 885c15.333 0 23 -6 23 -18v-95
c0 -12 -7.66699 -18 -23 -18h-98c-14.667 0 -22 6 -22 18v95c0 12 7.33301 18 22 18h98z" />
    <glyph glyph-name="Yacute" unicode="&#xdd;" horiz-adv-x="896" 
d="M158 700c10.667 0 18.666 -4 23.999 -12l267 -361l269 361c5.33301 8 13.333 12 24 12h131c5.33301 0 9 -2.16699 11 -6.5s1.33301 -8.83301 -2 -13.5l-359 -466v-192c0 -14.667 -7.33301 -22 -22 -22h-108c-15.333 -0 -23 7.33301 -23 22v192l-355 466
c-3.33301 4.66699 -4.16602 9.16699 -2.49902 13.5s5.5 6.5 11.5 6.5h134zM574.999 916c7.33301 0 12.667 -1.66699 16 -5s2.66602 -8 -2.00098 -14l-102 -147c-4 -6.66699 -8.16699 -11.5 -12.5 -14.5s-10.166 -4.5 -17.499 -4.5h-76c-7.33301 0 -12.666 1.66699 -15.999 5
s-3 8 1 14l89 147c7.33301 12.667 17.666 19 30.999 19h89z" />
    <glyph glyph-name="Thorn" unicode="&#xde;" horiz-adv-x="888" 
d="M197 700c14.667 0 22 -7.33301 22 -22v-107h418c75.333 0 129.333 -17 162 -51s49 -83.667 49 -149v-58c0 -65.333 -16.333 -115 -49 -149s-86.667 -51 -162 -51h-418v-91c0 -14.667 -7.33301 -22 -22 -22h-108c-15.333 -0 -23 7.33301 -23 22v656
c0 14.667 7.66699 22 23 22h108zM219 245l388 -0.00195312c32.667 0 55.5 6.83301 68.5 20.5s19.5 34.834 19.5 63.501v26c0 28.667 -6.5 49.834 -19.5 63.501s-35.833 20.5 -68.5 20.5h-388v-194z" />
    <glyph glyph-name="germandbls" unicode="&#xdf;" horiz-adv-x="916" 
d="M376 769c38.667 0 70.502 -3.83301 95.502 -11.5s45 -19.5 60 -35.5s25.5 -36.5 31.5 -61.5s9 -55.167 9 -90.5v-98c0 -15.333 3.33301 -26.833 10 -34.5s18.667 -11.5 36 -11.5h87c55.333 0 95.166 -12.167 119.499 -36.5s36.5 -64.166 36.5 -119.499v-108
c0 -52.667 -11.5 -92.834 -34.5 -120.501s-63.833 -41.5 -122.5 -41.5h-376c-12 0 -18 6 -18 18v82c0 12 6 18 18 18h327c23.333 0 39.833 5.5 49.5 16.5s14.5 27.167 14.5 48.5v64c0 22 -5.33301 38 -16 48s-27 15 -49 15h-77c-54 0 -92.167 11.333 -114.5 34
s-33.5 56 -33.5 100v126c0 28 -5.33301 48.5 -16 61.5s-31.334 19.5 -62.001 19.5h-62c-32.667 0 -54.667 -6.5 -66 -19.5s-17 -33.5 -17 -61.5v-548c0 -14.667 -7.33301 -22 -22 -22h-98c-15.333 -0 -23 7.33301 -23 22v548c0 35.333 3 65.5 9 90.5s16.667 45.5 32 61.5
s36 27.833 62 35.5s59 11.5 99 11.5h111z" />
    <glyph glyph-name="agrave" unicode="&#xe0;" 
d="M507 549c44.667 0 82.333 -3.83203 113 -11.499s55.167 -19.667 73.5 -36s31.5 -37.333 39.5 -63s12 -56.5 12 -92.5v-266c0 -16 -1.16699 -29.167 -3.5 -39.5s-6.33301 -18.5 -12 -24.5s-13.167 -10.167 -22.5 -12.5s-21.333 -3.5 -36 -3.5h-476
c-29.333 0 -53.833 2.83301 -73.5 8.5s-35.5 14.167 -47.5 25.5s-20.5 26 -25.5 44s-7.5 39.333 -7.5 64v48c0 20.667 2.5 39.167 7.5 55.5s13.5 30.166 25.5 41.499s27.833 19.833 47.5 25.5s44.167 8.5 73.5 8.5h407v19c0 16 -1.66699 29.667 -5 41s-9 20.5 -17 27.5
s-19 12.167 -33 15.5s-32 5 -54 5h-418c-12 0 -18 6 -18 18v84c0 12 6 18 18 18h432zM572.999 110.001c10.667 0 18.167 2.5 22.5 7.5s6.5 13.833 6.5 26.5v88h-366c-20.667 0 -35.167 -4.16699 -43.5 -12.5s-12.5 -20.5 -12.5 -36.5v-21c0 -18 4.16699 -31.167 12.5 -39.5
s22.833 -12.5 43.5 -12.5h337zM358.999 816.001c13.333 0 23.668 -7.66699 31.001 -23l91 -185c3.33301 -7.33301 3.5 -13 0.5 -17s-8.5 -6 -16.5 -6h-75c-8 0 -14.167 2 -18.5 6s-8.5 9.66699 -12.5 17l-103 185c-4 7.33301 -4.33301 13 -1 17s8.66602 6 15.999 6h88z" />
    <glyph glyph-name="aacute" unicode="&#xe1;" 
d="M507 549c44.667 0 82.333 -3.83203 113 -11.499s55.167 -19.667 73.5 -36s31.5 -37.333 39.5 -63s12 -56.5 12 -92.5v-266c0 -16 -1.16699 -29.167 -3.5 -39.5s-6.33301 -18.5 -12 -24.5s-13.167 -10.167 -22.5 -12.5s-21.333 -3.5 -36 -3.5h-476
c-29.333 0 -53.833 2.83301 -73.5 8.5s-35.5 14.167 -47.5 25.5s-20.5 26 -25.5 44s-7.5 39.333 -7.5 64v48c0 20.667 2.5 39.167 7.5 55.5s13.5 30.166 25.5 41.499s27.833 19.833 47.5 25.5s44.167 8.5 73.5 8.5h407v19c0 16 -1.66699 29.667 -5 41s-9 20.5 -17 27.5
s-19 12.167 -33 15.5s-32 5 -54 5h-418c-12 0 -18 6 -18 18v84c0 12 6 18 18 18h432zM572.999 110.001c10.667 0 18.167 2.5 22.5 7.5s6.5 13.833 6.5 26.5v88h-366c-20.667 0 -35.167 -4.16699 -43.5 -12.5s-12.5 -20.5 -12.5 -36.5v-21c0 -18 4.16699 -31.167 12.5 -39.5
s22.833 -12.5 43.5 -12.5h337zM521.999 816.001c7.33301 0 12.666 -2 15.999 -6s3 -9.66699 -1 -17l-103 -185c-4 -7.33301 -8.16699 -13 -12.5 -17s-10.166 -6 -17.499 -6h-76c-7.33301 0 -12.666 2 -15.999 6s-3.33301 9.66699 0 17l91 185
c7.33301 15.333 17.666 23 30.999 23h88z" />
    <glyph glyph-name="acircumflex" unicode="&#xe2;" 
d="M507 549c44.667 0 82.333 -3.83203 113 -11.499s55.167 -19.667 73.5 -36s31.5 -37.333 39.5 -63s12 -56.5 12 -92.5v-266c0 -16 -1.16699 -29.167 -3.5 -39.5s-6.33301 -18.5 -12 -24.5s-13.167 -10.167 -22.5 -12.5s-21.333 -3.5 -36 -3.5h-476
c-29.333 0 -53.833 2.83301 -73.5 8.5s-35.5 14.167 -47.5 25.5s-20.5 26 -25.5 44s-7.5 39.333 -7.5 64v48c0 20.667 2.5 39.167 7.5 55.5s13.5 30.166 25.5 41.499s27.833 19.833 47.5 25.5s44.167 8.5 73.5 8.5h407v19c0 16 -1.66699 29.667 -5 41s-9 20.5 -17 27.5
s-19 12.167 -33 15.5s-32 5 -54 5h-418c-12 0 -18 6 -18 18v84c0 12 6 18 18 18h432zM572.999 110.001c10.667 0 18.167 2.5 22.5 7.5s6.5 13.833 6.5 26.5v88h-366c-20.667 0 -35.167 -4.16699 -43.5 -12.5s-12.5 -20.5 -12.5 -36.5v-21c0 -18 4.16699 -31.167 12.5 -39.5
s22.833 -12.5 43.5 -12.5h337zM437.999 816.001c11.333 0 20 -2 26 -6s11.667 -10.333 17 -19l106 -181c4.66699 -7.33301 5.5 -13.333 2.5 -18s-8.16699 -7 -15.5 -7h-77c-8 0 -14.333 1.83301 -19 5.5s-8.66699 9.16699 -12 16.5l-58 111c-3.33301 6 -7.33301 9 -12 9h-4
c-6 0 -10.333 -3 -13 -9l-58 -111c-3.33301 -7.33301 -7.33301 -12.833 -12 -16.5s-11 -5.5 -19 -5.5h-77c-7.33301 0 -12.5 2.33301 -15.5 7s-2.16699 10.667 2.5 18l106 181c5.33301 8.66699 11 15 17 19s14.667 6 26 6h89z" />
    <glyph glyph-name="atilde" unicode="&#xe3;" 
d="M507 549c44.667 0 82.333 -3.83203 113 -11.499s55.167 -19.667 73.5 -36s31.5 -37.333 39.5 -63s12 -56.5 12 -92.5v-266c0 -16 -1.16699 -29.167 -3.5 -39.5s-6.33301 -18.5 -12 -24.5s-13.167 -10.167 -22.5 -12.5s-21.333 -3.5 -36 -3.5h-476
c-29.333 0 -53.833 2.83301 -73.5 8.5s-35.5 14.167 -47.5 25.5s-20.5 26 -25.5 44s-7.5 39.333 -7.5 64v48c0 20.667 2.5 39.167 7.5 55.5s13.5 30.166 25.5 41.499s27.833 19.833 47.5 25.5s44.167 8.5 73.5 8.5h407v19c0 16 -1.66699 29.667 -5 41s-9 20.5 -17 27.5
s-19 12.167 -33 15.5s-32 5 -54 5h-418c-12 0 -18 6 -18 18v84c0 12 6 18 18 18h432zM572.999 110.001c10.667 0 18.167 2.5 22.5 7.5s6.5 13.833 6.5 26.5v88h-366c-20.667 0 -35.167 -4.16699 -43.5 -12.5s-12.5 -20.5 -12.5 -36.5v-21c0 -18 4.16699 -31.167 12.5 -39.5
s22.833 -12.5 43.5 -12.5h337zM155.999 602.001c-8 0 -13.168 2.33301 -15.501 7s-3.5 12.667 -3.5 24c0 29.333 2.33301 53.833 7 73.5s12.167 35.334 22.5 47.001s23.333 19.834 39 24.501s34.5 7 56.5 7c36.667 0 67.667 -5.16699 93 -15.5
s49.666 -25.166 72.999 -44.499c10.667 -9.33301 21.167 -17 31.5 -23s25.166 -9 44.499 -9c20 0 32.5 4.83301 37.5 14.5s7.5 28.5 7.5 56.5c0.666992 9.33301 3.33398 15.666 8.00098 18.999s11.334 5 20.001 5h56c8 0 13 -2.33301 15 -7s3 -12.667 3 -24
c0 -29.333 -2.33301 -53.833 -7 -73.5s-12 -35.334 -22 -47.001s-22.833 -19.834 -38.5 -24.501s-34.5 -7 -56.5 -7c-36.667 0 -67.667 5.16699 -93 15.5s-49.666 25.166 -72.999 44.499c-10.667 9.33301 -21.167 17 -31.5 23s-25.166 9 -44.499 9
c-20 0 -32.5 -4.83301 -37.5 -14.5s-7.83301 -28.5 -8.5 -56.5c0 -9.33301 -2.33301 -15.666 -7 -18.999s-11.334 -5 -20.001 -5h-56z" />
    <glyph glyph-name="adieresis" unicode="&#xe4;" 
d="M507 549c44.667 0 82.333 -3.83203 113 -11.499s55.167 -19.667 73.5 -36s31.5 -37.333 39.5 -63s12 -56.5 12 -92.5v-266c0 -16 -1.16699 -29.167 -3.5 -39.5s-6.33301 -18.5 -12 -24.5s-13.167 -10.167 -22.5 -12.5s-21.333 -3.5 -36 -3.5h-476
c-29.333 0 -53.833 2.83301 -73.5 8.5s-35.5 14.167 -47.5 25.5s-20.5 26 -25.5 44s-7.5 39.333 -7.5 64v48c0 20.667 2.5 39.167 7.5 55.5s13.5 30.166 25.5 41.499s27.833 19.833 47.5 25.5s44.167 8.5 73.5 8.5h407v19c0 16 -1.66699 29.667 -5 41s-9 20.5 -17 27.5
s-19 12.167 -33 15.5s-32 5 -54 5h-418c-12 0 -18 6 -18 18v84c0 12 6 18 18 18h432zM572.999 110.001c10.667 0 18.167 2.5 22.5 7.5s6.5 13.833 6.5 26.5v88h-366c-20.667 0 -35.167 -4.16699 -43.5 -12.5s-12.5 -20.5 -12.5 -36.5v-21c0 -18 4.16699 -31.167 12.5 -39.5
s22.833 -12.5 43.5 -12.5h337zM582.999 752.001c14.667 0 22 -7.33301 22 -22v-95c0 -15.333 -7.33301 -23 -22 -23h-98c-14.667 0 -22 7.66699 -22 23v95c0 14.667 7.33301 22 22 22h98zM303.999 752.001c14.667 0 22 -7.33301 22 -22v-95c0 -15.333 -7.33301 -23 -22 -23
h-98c-15.333 0 -23 7.66699 -23 23v95c0 14.667 7.66699 22 23 22h98z" />
    <glyph glyph-name="aring" unicode="&#xe5;" 
d="M507 549c44.667 0 82.333 -3.83203 113 -11.499s55.167 -19.667 73.5 -36s31.5 -37.333 39.5 -63s12 -56.5 12 -92.5v-266c0 -16 -1.16699 -29.167 -3.5 -39.5s-6.33301 -18.5 -12 -24.5s-13.167 -10.167 -22.5 -12.5s-21.333 -3.5 -36 -3.5h-476
c-29.333 0 -53.833 2.83301 -73.5 8.5s-35.5 14.167 -47.5 25.5s-20.5 26 -25.5 44s-7.5 39.333 -7.5 64v48c0 20.667 2.5 39.167 7.5 55.5s13.5 30.166 25.5 41.499s27.833 19.833 47.5 25.5s44.167 8.5 73.5 8.5h407v19c0 16 -1.66699 29.667 -5 41s-9 20.5 -17 27.5
s-19 12.167 -33 15.5s-32 5 -54 5h-418c-12 0 -18 6 -18 18v84c0 12 6 18 18 18h432zM572.999 110.001c10.667 0 18.167 2.5 22.5 7.5s6.5 13.833 6.5 26.5v88h-366c-20.667 0 -35.167 -4.16699 -43.5 -12.5s-12.5 -20.5 -12.5 -36.5v-21c0 -18 4.16699 -31.167 12.5 -39.5
s22.833 -12.5 43.5 -12.5h337zM451.999 816.001c37.333 0 63.833 -7.33301 79.5 -22s23.5 -39.667 23.5 -75v-63c0 -35.333 -7.83301 -60.333 -23.5 -75s-42.167 -22 -79.5 -22h-113c-37.333 0 -63.833 7.33301 -79.5 22s-23.5 39.667 -23.5 75v63
c0 35.333 7.83301 60.333 23.5 75s42.167 22 79.5 22h113zM309.999 669.001c0 -17.333 2.83301 -29 8.5 -35s17.167 -9 34.5 -9h86c16.667 0 27.834 3 33.501 9s8.5 17.667 8.5 35v37c0 17.333 -2.83301 29 -8.5 35s-16.834 9 -33.501 9h-86c-17.333 0 -28.833 -3 -34.5 -9
s-8.5 -17.667 -8.5 -35v-37z" />
    <glyph glyph-name="ae" unicode="&#xe6;" horiz-adv-x="1354" 
d="M1138 549c34 0 62.167 -2.83301 84.5 -8.5s40 -15 53 -28s22.167 -30 27.5 -51s8 -46.5 8 -76.5v-95c0 -21.333 -4.66699 -36.166 -14 -44.499s-23.666 -12.5 -42.999 -12.5h-505v-24c0 -31.333 7.5 -54 22.5 -68s44.167 -21 87.5 -21h417c12 0 18 -6 18 -18v-84
c0 -12 -6 -18 -18 -18h-437c-47.333 0 -87 4 -119 12c-10.667 -8 -29 -12 -55 -12h-470c-29.333 0 -53.833 2.83301 -73.5 8.5s-35.5 14.167 -47.5 25.5s-20.5 26 -25.5 44s-7.5 39.333 -7.5 64v48c0 20.667 2.5 39.167 7.5 55.5s13.5 30.166 25.5 41.499
s27.833 19.833 47.5 25.5s44.167 8.5 73.5 8.5h407v19c0 16 -1.66699 29.667 -5 41s-9 20.5 -17 27.5s-19 12.167 -33 15.5s-32 5 -54 5h-418c-12 0 -18 6 -18 18v84c0 12 6 18 18 18h432c75.333 0 131.666 -11.333 168.999 -34c36.667 22.667 93 34 169 34h293zM573 110
c10.667 0 18.167 2.5 22.5 7.5s6.5 13.833 6.5 26.5v88h-366c-20.667 0 -35.167 -4.16699 -43.5 -12.5s-12.5 -20.5 -12.5 -36.5v-21c0 -18 4.16699 -31.167 12.5 -39.5s22.833 -12.5 43.5 -12.5h337zM749 322l405 -0.000976562c11.333 0 17 5.66699 17 17v42
c0 20.667 -4.33301 35.334 -13 44.001s-24.667 13 -48 13h-251c-43.333 0 -72.5 -6.83301 -87.5 -20.5s-22.5 -36.5 -22.5 -68.5v-27z" />
    <glyph glyph-name="ccedilla" unicode="&#xe7;" horiz-adv-x="729" 
d="M679 549c12 0 18 -6 18 -18v-84c0 -12 -6 -18 -18 -18h-388c-22 0 -40 -1.83301 -54 -5.5s-25 -9.66699 -33 -18s-13.667 -19.666 -17 -33.999s-5 -31.833 -5 -52.5v-89c0 -21.333 1.66699 -39 5 -53s9 -25.167 17 -33.5s19 -14.333 33 -18s32 -5.5 54 -5.5h388
c12 0 18 -6 18 -18v-84c0 -12 -6 -18 -18 -18h-402c-45.333 0 -83.166 3.66699 -113.499 11s-54.666 19.166 -72.999 35.499s-31.5 37.333 -39.5 63s-12 56.5 -12 92.5v144c0 36 4 66.833 12 92.5s21.167 46.667 39.5 63s42.666 28.333 72.999 36s68.166 11.5 113.499 11.5
h402zM438 -41c16.667 0 23.001 -8.66699 19.001 -26l-44 -182c-4 -15.333 -12.333 -23 -25 -23h-57c-16.667 0 -24.334 7.66699 -23.001 23l16 185c1.33301 15.333 9.33301 23 24 23h90z" />
    <glyph glyph-name="egrave" unicode="&#xe8;" 
d="M572 549c34 0 62.166 -2.83301 84.499 -8.5s40 -15 53 -28s22.167 -30 27.5 -51s8 -46.5 8 -76.5v-95c0 -21.333 -4.66699 -36.166 -14 -44.499s-23.666 -12.5 -42.999 -12.5h-505v-24c0 -31.333 7.5 -54 22.5 -68s44.167 -21 87.5 -21h417c12 0 18 -6 18 -18v-84
c0 -12 -6 -18 -18 -18h-431c-45.333 0 -83.166 3.66699 -113.499 11s-54.666 19.166 -72.999 35.499s-31.5 37.333 -39.5 63s-12 56.5 -12 92.5v144c0 36 4 66.833 12 92.5s21.167 46.667 39.5 63s42.666 28.333 72.999 36s68.166 11.5 113.499 11.5h293zM182.999 322
l405 -0.000976562c11.333 0 17 5.66699 17 17v42c0 20.667 -4.33301 35.334 -13 44.001s-24.667 13 -48 13h-251c-43.333 0 -72.5 -6.83301 -87.5 -20.5s-22.5 -36.5 -22.5 -68.5v-27zM355.999 815.999c13.333 0 23.668 -7.66699 31.001 -23l91 -185
c3.33301 -7.33301 3.5 -13 0.5 -17s-8.5 -6 -16.5 -6h-75c-8 0 -14.167 2 -18.5 6s-8.5 9.66699 -12.5 17l-103 185c-4 7.33301 -4.33301 13 -1 17s8.66602 6 15.999 6h88z" />
    <glyph glyph-name="eacute" unicode="&#xe9;" 
d="M572 549c34 0 62.166 -2.83301 84.499 -8.5s40 -15 53 -28s22.167 -30 27.5 -51s8 -46.5 8 -76.5v-95c0 -21.333 -4.66699 -36.166 -14 -44.499s-23.666 -12.5 -42.999 -12.5h-505v-24c0 -31.333 7.5 -54 22.5 -68s44.167 -21 87.5 -21h417c12 0 18 -6 18 -18v-84
c0 -12 -6 -18 -18 -18h-431c-45.333 0 -83.166 3.66699 -113.499 11s-54.666 19.166 -72.999 35.499s-31.5 37.333 -39.5 63s-12 56.5 -12 92.5v144c0 36 4 66.833 12 92.5s21.167 46.667 39.5 63s42.666 28.333 72.999 36s68.166 11.5 113.499 11.5h293zM182.999 322
l405 -0.000976562c11.333 0 17 5.66699 17 17v42c0 20.667 -4.33301 35.334 -13 44.001s-24.667 13 -48 13h-251c-43.333 0 -72.5 -6.83301 -87.5 -20.5s-22.5 -36.5 -22.5 -68.5v-27zM520.999 815.999c7.33301 0 12.666 -2 15.999 -6s3 -9.66699 -1 -17l-103 -185
c-4 -7.33301 -8.16699 -13 -12.5 -17s-10.166 -6 -17.499 -6h-76c-7.33301 0 -12.666 2 -15.999 6s-3.33301 9.66699 0 17l91 185c7.33301 15.333 17.666 23 30.999 23h88z" />
    <glyph glyph-name="ecircumflex" unicode="&#xea;" 
d="M572 549c34 0 62.166 -2.83301 84.499 -8.5s40 -15 53 -28s22.167 -30 27.5 -51s8 -46.5 8 -76.5v-95c0 -21.333 -4.66699 -36.166 -14 -44.499s-23.666 -12.5 -42.999 -12.5h-505v-24c0 -31.333 7.5 -54 22.5 -68s44.167 -21 87.5 -21h417c12 0 18 -6 18 -18v-84
c0 -12 -6 -18 -18 -18h-431c-45.333 0 -83.166 3.66699 -113.499 11s-54.666 19.166 -72.999 35.499s-31.5 37.333 -39.5 63s-12 56.5 -12 92.5v144c0 36 4 66.833 12 92.5s21.167 46.667 39.5 63s42.666 28.333 72.999 36s68.166 11.5 113.499 11.5h293zM182.999 322
l405 -0.000976562c11.333 0 17 5.66699 17 17v42c0 20.667 -4.33301 35.334 -13 44.001s-24.667 13 -48 13h-251c-43.333 0 -72.5 -6.83301 -87.5 -20.5s-22.5 -36.5 -22.5 -68.5v-27zM437.999 815.999c11.333 0 20 -2 26 -6s11.667 -10.333 17 -19l106 -181
c4.66699 -7.33301 5.5 -13.333 2.5 -18s-8.16699 -7 -15.5 -7h-77c-8 0 -14.333 1.83301 -19 5.5s-8.66699 9.16699 -12 16.5l-58 111c-3.33301 6 -7.33301 9 -12 9h-4c-6 0 -10.333 -3 -13 -9l-58 -111c-3.33301 -7.33301 -7.33301 -12.833 -12 -16.5s-11 -5.5 -19 -5.5
h-77c-7.33301 0 -12.5 2.33301 -15.5 7s-2.16699 10.667 2.5 18l106 181c5.33301 8.66699 11 15 17 19s14.667 6 26 6h89z" />
    <glyph glyph-name="edieresis" unicode="&#xeb;" 
d="M572 549c34 0 62.166 -2.83301 84.499 -8.5s40 -15 53 -28s22.167 -30 27.5 -51s8 -46.5 8 -76.5v-95c0 -21.333 -4.66699 -36.166 -14 -44.499s-23.666 -12.5 -42.999 -12.5h-505v-24c0 -31.333 7.5 -54 22.5 -68s44.167 -21 87.5 -21h417c12 0 18 -6 18 -18v-84
c0 -12 -6 -18 -18 -18h-431c-45.333 0 -83.166 3.66699 -113.499 11s-54.666 19.166 -72.999 35.499s-31.5 37.333 -39.5 63s-12 56.5 -12 92.5v144c0 36 4 66.833 12 92.5s21.167 46.667 39.5 63s42.666 28.333 72.999 36s68.166 11.5 113.499 11.5h293zM182.999 322
l405 -0.000976562c11.333 0 17 5.66699 17 17v42c0 20.667 -4.33301 35.334 -13 44.001s-24.667 13 -48 13h-251c-43.333 0 -72.5 -6.83301 -87.5 -20.5s-22.5 -36.5 -22.5 -68.5v-27zM582.999 751.999c14.667 0 22 -7.33301 22 -22v-95c0 -15.333 -7.33301 -23 -22 -23h-98
c-14.667 0 -22 7.66699 -22 23v95c0 14.667 7.33301 22 22 22h98zM303.999 751.999c14.667 0 22 -7.33301 22 -22v-95c0 -15.333 -7.33301 -23 -22 -23h-98c-15.333 0 -23 7.66699 -23 23v95c0 14.667 7.66699 22 23 22h98z" />
    <glyph glyph-name="igrave" unicode="&#xec;" horiz-adv-x="280" 
d="M106 816c13.333 0 23.668 -7.66699 31.001 -23l91 -185c3.33301 -7.33301 3.5 -13 0.5 -17s-8.5 -6 -16.5 -6h-75c-8 0 -14.167 2 -18.5 6s-8.5 9.66699 -12.5 17l-103 185c-4 7.33301 -4.33301 13 -1 17s8.66602 6 15.999 6h88zM194.002 549
c14.667 0 22 -7.66699 22 -23v-504c0 -14.667 -7.33301 -22 -22 -22h-98c-14.667 -0 -22 7.33301 -22 22v504c0 15.333 7.33301 23 22 23h98z" />
    <glyph glyph-name="iacute" unicode="&#xed;" horiz-adv-x="281" 
d="M262 816c7.33301 0 12.666 -2 15.999 -6s3 -9.66699 -1 -17l-103 -185c-4 -7.33301 -8.16699 -13 -12.5 -17s-10.166 -6 -17.499 -6h-76c-7.33301 0 -12.666 2 -15.999 6s-3.33301 9.66699 0 17l91 185c7.33301 15.333 17.666 23 30.999 23h88zM184 549
c14.667 0 22 -7.66699 22 -23v-504c0 -14.667 -7.33301 -22 -22 -22h-98c-14.667 -0 -22 7.33301 -22 22v504c0 15.333 7.33301 23 22 23h98z" />
    <glyph glyph-name="icircumflex" unicode="&#xee;" horiz-adv-x="365" 
d="M231 549c14.667 0 22 -7.66699 22 -23v-504c0 -14.667 -7.33301 -22 -22 -22h-98c-14.667 -0 -22 7.33301 -22 22v504c0 15.333 7.33301 23 22 23h98zM227 816c11.333 0 20 -2 26 -6s11.667 -10.333 17 -19l106 -181c4.66699 -7.33301 5.5 -13.333 2.5 -18
s-8.16699 -7 -15.5 -7h-77c-8 0 -14.333 1.83301 -19 5.5s-8.66699 9.16699 -12 16.5l-58 111c-3.33301 6 -7.33301 9 -12 9h-4c-6 0 -10.333 -3 -13 -9l-58 -111c-3.33301 -7.33301 -7.33301 -12.833 -12 -16.5s-11 -5.5 -19 -5.5h-77c-7.33301 0 -12.5 2.33301 -15.5 7
s-2.16699 10.667 2.5 18l106 181c5.33301 8.66699 11 15 17 19s14.667 6 26 6h89z" />
    <glyph glyph-name="idieresis" unicode="&#xef;" horiz-adv-x="384" 
d="M241 549c14.667 0 22 -7.66699 22 -23v-504c0 -14.667 -7.33301 -22 -22 -22h-98c-14.667 -0 -22 7.33301 -22 22v504c0 15.333 7.33301 23 22 23h98zM357 752c14.667 0 22 -7.33301 22 -22v-95c0 -15.333 -7.33301 -23 -22 -23h-98c-15.333 0 -23 7.66699 -23 23v95
c0 14.667 7.66699 22 23 22h98zM124 752c14.667 0 22 -7.33301 22 -22v-95c0 -15.333 -7.33301 -23 -22 -23h-98c-15.333 0 -23 7.66699 -23 23v95c0 14.667 7.66699 22 23 22h98z" />
    <glyph glyph-name="eth" unicode="&#xf0;" horiz-adv-x="871" 
d="M478 864c12.667 0 16.667 -5.99805 12 -17.998l-32 -69h114c45.333 0 83.166 -3.83301 113.499 -11.5s54.833 -19.834 73.5 -36.501s31.834 -37.834 39.501 -63.501s11.5 -56.834 11.5 -93.501v-367c0 -36.667 -3.83301 -68 -11.5 -94s-20.834 -47.167 -39.501 -63.5
s-43.167 -28.333 -73.5 -36s-68.166 -11.5 -113.499 -11.5h-280c-45.333 0 -83.166 3.83301 -113.499 11.5s-54.666 19.667 -72.999 36s-31.5 37.5 -39.5 63.5s-12 57.333 -12 94v76c0 36.667 4 67.834 12 93.501s21.167 46.667 39.5 63s42.666 28.333 72.999 36
s68.166 11.5 113.499 11.5h376v73c0 34.667 -7.5 59.667 -22.5 75s-43.833 23 -86.5 23h-157l-46 -100c-2 -5.33301 -4.16699 -9.33301 -6.5 -12s-6.83301 -4 -13.5 -4h-68c-5.33301 0 -9.33301 1.66699 -12 5s-2.66699 8 0 14l45 97h-87c-12 0 -18 6 -18 18v85
c0 12 6 18 18 18h143l33 71c2 6 4.16699 10.167 6.5 12.5s6.83301 3.5 13.5 3.5h68zM558 120.002c22 0 40.166 1.83203 54.499 5.49902s25.5 9.83398 33.5 18.501s13.667 20.167 17 34.5s5 32.5 5 54.5v148h-362c-22 0 -40 -1.83301 -54 -5.5
s-25.167 -9.83398 -33.5 -18.501s-14 -20.167 -17 -34.5s-4.5 -32.166 -4.5 -53.499v-37c0 -21.333 1.66699 -39.166 5 -53.499s9.33301 -25.833 18 -34.5s20.334 -14.834 35.001 -18.501s33.667 -5.5 57 -5.5h246z" />
    <glyph glyph-name="ntilde" unicode="&#xf1;" horiz-adv-x="884" 
d="M585 549c44.667 0 82.334 -3.83301 113.001 -11.5s55.167 -19.667 73.5 -36s31.5 -37.333 39.5 -63s12 -56.5 12 -92.5v-324c0 -14.667 -7.33301 -22 -22 -22h-98c-14.667 -0 -22 7.33301 -22 22v290c0 20.667 -1.33301 38.167 -4 52.5s-7.83398 25.666 -15.501 33.999
s-18.167 14.333 -31.5 18s-30.666 5.5 -51.999 5.5h-266c-21.333 0 -39 -1.83301 -53 -5.5s-25.167 -9.66699 -33.5 -18s-14.166 -19.666 -17.499 -33.999s-5 -31.833 -5 -52.5v-290c0 -14.667 -7.33301 -22 -22 -22h-98c-15.333 -0 -23 7.33301 -23 22v324
c0 36 4 66.833 12 92.5s21.167 46.667 39.5 63s42.666 28.333 72.999 36s68.166 11.5 113.499 11.5h287zM203 602c-8 0 -13.168 2.33301 -15.501 7s-3.5 12.667 -3.5 24c0 29.333 2.33301 53.833 7 73.5s12.167 35.334 22.5 47.001s23.333 19.834 39 24.501s34.5 7 56.5 7
c36.667 0 67.667 -5.16699 93 -15.5s49.666 -25.166 72.999 -44.499c10.667 -9.33301 21.167 -17 31.5 -23s25.166 -9 44.499 -9c20 0 32.5 4.83301 37.5 14.5s7.5 28.5 7.5 56.5c0.666992 9.33301 3.33398 15.666 8.00098 18.999s11.334 5 20.001 5h56
c8 0 13 -2.33301 15 -7s3 -12.667 3 -24c0 -29.333 -2.33301 -53.833 -7 -73.5s-12 -35.334 -22 -47.001s-22.833 -19.834 -38.5 -24.501s-34.5 -7 -56.5 -7c-36.667 0 -67.667 5.16699 -93 15.5s-49.666 25.166 -72.999 44.499c-10.667 9.33301 -21.167 17 -31.5 23
s-25.166 9 -44.499 9c-20 0 -32.5 -4.83301 -37.5 -14.5s-7.83301 -28.5 -8.5 -56.5c0 -9.33301 -2.33301 -15.666 -7 -18.999s-11.334 -5 -20.001 -5h-56z" />
    <glyph glyph-name="ograve" unicode="&#xf2;" horiz-adv-x="868" 
d="M575 549c44.667 0 82.334 -3.83301 113.001 -11.5s55.167 -19.667 73.5 -36s31.5 -37.333 39.5 -63s12 -56.5 12 -92.5v-144c0 -36 -4 -66.833 -12 -92.5s-21.167 -46.667 -39.5 -63s-42.833 -28.166 -73.5 -35.499s-68.334 -11 -113.001 -11h-283
c-45.333 0 -83.166 3.66699 -113.499 11s-54.666 19.166 -72.999 35.499s-31.5 37.333 -39.5 63s-12 56.5 -12 92.5v144c0 36 4 66.833 12 92.5s21.167 46.667 39.5 63s42.666 28.333 72.999 36s68.166 11.5 113.499 11.5h283zM197 227c0 -21.333 1.66699 -39 5 -53
s9.16602 -25.167 17.499 -33.5s19.5 -14.333 33.5 -18s31.667 -5.5 53 -5.5h255c22 0 40 1.83301 54 5.5s25.167 9.66699 33.5 18s14.166 19.5 17.499 33.5s5 31.667 5 53v95c0 20.667 -1.66699 38 -5 52s-9.16602 25.333 -17.499 34s-19.5 14.667 -33.5 18s-32 5 -54 5
h-255c-21.333 0 -39 -1.66699 -53 -5s-25.167 -9.33301 -33.5 -18s-14.166 -20 -17.499 -34s-5 -31.333 -5 -52v-95zM396 816c13.333 0 23.668 -7.66699 31.001 -23l91 -185c3.33301 -7.33301 3.5 -13 0.5 -17s-8.5 -6 -16.5 -6h-75c-8 0 -14.167 2 -18.5 6
s-8.5 9.66699 -12.5 17l-103 185c-4 7.33301 -4.33301 13 -1 17s8.66602 6 15.999 6h88z" />
    <glyph glyph-name="oacute" unicode="&#xf3;" horiz-adv-x="868" 
d="M575 549c44.667 0 82.334 -3.83301 113.001 -11.5s55.167 -19.667 73.5 -36s31.5 -37.333 39.5 -63s12 -56.5 12 -92.5v-144c0 -36 -4 -66.833 -12 -92.5s-21.167 -46.667 -39.5 -63s-42.833 -28.166 -73.5 -35.499s-68.334 -11 -113.001 -11h-283
c-45.333 0 -83.166 3.66699 -113.499 11s-54.666 19.166 -72.999 35.499s-31.5 37.333 -39.5 63s-12 56.5 -12 92.5v144c0 36 4 66.833 12 92.5s21.167 46.667 39.5 63s42.666 28.333 72.999 36s68.166 11.5 113.499 11.5h283zM197 227c0 -21.333 1.66699 -39 5 -53
s9.16602 -25.167 17.499 -33.5s19.5 -14.333 33.5 -18s31.667 -5.5 53 -5.5h255c22 0 40 1.83301 54 5.5s25.167 9.66699 33.5 18s14.166 19.5 17.499 33.5s5 31.667 5 53v95c0 20.667 -1.66699 38 -5 52s-9.16602 25.333 -17.499 34s-19.5 14.667 -33.5 18s-32 5 -54 5
h-255c-21.333 0 -39 -1.66699 -53 -5s-25.167 -9.33301 -33.5 -18s-14.166 -20 -17.499 -34s-5 -31.333 -5 -52v-95zM558 816c7.33301 0 12.666 -2 15.999 -6s3 -9.66699 -1 -17l-103 -185c-4 -7.33301 -8.16699 -13 -12.5 -17s-10.166 -6 -17.499 -6h-76
c-7.33301 0 -12.666 2 -15.999 6s-3.33301 9.66699 0 17l91 185c7.33301 15.333 17.666 23 30.999 23h88z" />
    <glyph glyph-name="ocircumflex" unicode="&#xf4;" horiz-adv-x="868" 
d="M575 549c44.667 0 82.334 -3.83301 113.001 -11.5s55.167 -19.667 73.5 -36s31.5 -37.333 39.5 -63s12 -56.5 12 -92.5v-144c0 -36 -4 -66.833 -12 -92.5s-21.167 -46.667 -39.5 -63s-42.833 -28.166 -73.5 -35.499s-68.334 -11 -113.001 -11h-283
c-45.333 0 -83.166 3.66699 -113.499 11s-54.666 19.166 -72.999 35.499s-31.5 37.333 -39.5 63s-12 56.5 -12 92.5v144c0 36 4 66.833 12 92.5s21.167 46.667 39.5 63s42.666 28.333 72.999 36s68.166 11.5 113.499 11.5h283zM197 227c0 -21.333 1.66699 -39 5 -53
s9.16602 -25.167 17.499 -33.5s19.5 -14.333 33.5 -18s31.667 -5.5 53 -5.5h255c22 0 40 1.83301 54 5.5s25.167 9.66699 33.5 18s14.166 19.5 17.499 33.5s5 31.667 5 53v95c0 20.667 -1.66699 38 -5 52s-9.16602 25.333 -17.499 34s-19.5 14.667 -33.5 18s-32 5 -54 5
h-255c-21.333 0 -39 -1.66699 -53 -5s-25.167 -9.33301 -33.5 -18s-14.166 -20 -17.499 -34s-5 -31.333 -5 -52v-95zM477 816c11.333 0 20 -2 26 -6s11.667 -10.333 17 -19l106 -181c4.66699 -7.33301 5.5 -13.333 2.5 -18s-8.16699 -7 -15.5 -7h-77
c-8 0 -14.333 1.83301 -19 5.5s-8.66699 9.16699 -12 16.5l-58 111c-3.33301 6 -7.33301 9 -12 9h-4c-6 0 -10.333 -3 -13 -9l-58 -111c-3.33301 -7.33301 -7.33301 -12.833 -12 -16.5s-11 -5.5 -19 -5.5h-77c-7.33301 0 -12.5 2.33301 -15.5 7s-2.16699 10.667 2.5 18
l106 181c5.33301 8.66699 11 15 17 19s14.667 6 26 6h89z" />
    <glyph glyph-name="otilde" unicode="&#xf5;" horiz-adv-x="868" 
d="M575 549c44.667 0 82.334 -3.83301 113.001 -11.5s55.167 -19.667 73.5 -36s31.5 -37.333 39.5 -63s12 -56.5 12 -92.5v-144c0 -36 -4 -66.833 -12 -92.5s-21.167 -46.667 -39.5 -63s-42.833 -28.166 -73.5 -35.499s-68.334 -11 -113.001 -11h-283
c-45.333 0 -83.166 3.66699 -113.499 11s-54.666 19.166 -72.999 35.499s-31.5 37.333 -39.5 63s-12 56.5 -12 92.5v144c0 36 4 66.833 12 92.5s21.167 46.667 39.5 63s42.666 28.333 72.999 36s68.166 11.5 113.499 11.5h283zM197 227c0 -21.333 1.66699 -39 5 -53
s9.16602 -25.167 17.499 -33.5s19.5 -14.333 33.5 -18s31.667 -5.5 53 -5.5h255c22 0 40 1.83301 54 5.5s25.167 9.66699 33.5 18s14.166 19.5 17.499 33.5s5 31.667 5 53v95c0 20.667 -1.66699 38 -5 52s-9.16602 25.333 -17.499 34s-19.5 14.667 -33.5 18s-32 5 -54 5
h-255c-21.333 0 -39 -1.66699 -53 -5s-25.167 -9.33301 -33.5 -18s-14.166 -20 -17.499 -34s-5 -31.333 -5 -52v-95zM196 602c-8 0 -13.168 2.33301 -15.501 7s-3.5 12.667 -3.5 24c0 29.333 2.33301 53.833 7 73.5s12.167 35.334 22.5 47.001s23.333 19.834 39 24.501
s34.5 7 56.5 7c36.667 0 67.667 -5.16699 93 -15.5s49.666 -25.166 72.999 -44.499c10.667 -9.33301 21.167 -17 31.5 -23s25.166 -9 44.499 -9c20 0 32.5 4.83301 37.5 14.5s7.5 28.5 7.5 56.5c0.666992 9.33301 3.33398 15.666 8.00098 18.999s11.334 5 20.001 5h56
c8 0 13 -2.33301 15 -7s3 -12.667 3 -24c0 -29.333 -2.33301 -53.833 -7 -73.5s-12 -35.334 -22 -47.001s-22.833 -19.834 -38.5 -24.501s-34.5 -7 -56.5 -7c-36.667 0 -67.667 5.16699 -93 15.5s-49.666 25.166 -72.999 44.499c-10.667 9.33301 -21.167 17 -31.5 23
s-25.166 9 -44.499 9c-20 0 -32.5 -4.83301 -37.5 -14.5s-7.83301 -28.5 -8.5 -56.5c0 -9.33301 -2.33301 -15.666 -7 -18.999s-11.334 -5 -20.001 -5h-56z" />
    <glyph glyph-name="odieresis" unicode="&#xf6;" horiz-adv-x="868" 
d="M575 549c44.667 0 82.334 -3.83301 113.001 -11.5s55.167 -19.667 73.5 -36s31.5 -37.333 39.5 -63s12 -56.5 12 -92.5v-144c0 -36 -4 -66.833 -12 -92.5s-21.167 -46.667 -39.5 -63s-42.833 -28.166 -73.5 -35.499s-68.334 -11 -113.001 -11h-283
c-45.333 0 -83.166 3.66699 -113.499 11s-54.666 19.166 -72.999 35.499s-31.5 37.333 -39.5 63s-12 56.5 -12 92.5v144c0 36 4 66.833 12 92.5s21.167 46.667 39.5 63s42.666 28.333 72.999 36s68.166 11.5 113.499 11.5h283zM197 227c0 -21.333 1.66699 -39 5 -53
s9.16602 -25.167 17.499 -33.5s19.5 -14.333 33.5 -18s31.667 -5.5 53 -5.5h255c22 0 40 1.83301 54 5.5s25.167 9.66699 33.5 18s14.166 19.5 17.499 33.5s5 31.667 5 53v95c0 20.667 -1.66699 38 -5 52s-9.16602 25.333 -17.499 34s-19.5 14.667 -33.5 18s-32 5 -54 5
h-255c-21.333 0 -39 -1.66699 -53 -5s-25.167 -9.33301 -33.5 -18s-14.166 -20 -17.499 -34s-5 -31.333 -5 -52v-95zM622 752c14.667 0 22 -7.33301 22 -22v-95c0 -15.333 -7.33301 -23 -22 -23h-98c-14.667 0 -22 7.66699 -22 23v95c0 14.667 7.33301 22 22 22h98zM343 752
c14.667 0 22 -7.33301 22 -22v-95c0 -15.333 -7.33301 -23 -22 -23h-98c-15.333 0 -23 7.66699 -23 23v95c0 14.667 7.66699 22 23 22h98z" />
    <glyph glyph-name="divide" unicode="&#xf7;" horiz-adv-x="613" 
d="M553 398c12 0 18 -6 18 -18v-60c0 -12 -6 -18 -18 -18h-493c-12 0 -18 6 -18 18v60c0 12 6 18 18 18h493zM356 193c14.667 0 22 -7.33301 22 -22v-96c0 -14.667 -7.33301 -22 -22 -22h-98c-15.333 0 -23 7.33301 -23 22v96c0 14.667 7.66699 22 23 22h98zM356 647
c14.667 0 22 -7.33301 22 -22v-96c0 -14.667 -7.33301 -22 -22 -22h-98c-15.333 0 -23 7.33301 -23 22v96c0 14.667 7.66699 22 23 22h98z" />
    <glyph glyph-name="oslash" unicode="&#xf8;" horiz-adv-x="868" 
d="M575 549c20 0 39.0029 -1.00195 57.0029 -3.00195l73 80c5.33301 6.66699 10 11.167 14 13.5s10 3.5 18 3.5h60c6.66699 0 10.834 -2.16699 12.501 -6.5s0.5 -8.83301 -3.5 -13.5l-88 -95c34.667 -14 59.167 -35.833 73.5 -65.5s21.5 -68.5 21.5 -116.5v-144
c0 -36 -4 -66.833 -12 -92.5s-21.167 -46.667 -39.5 -63s-42.833 -28.166 -73.5 -35.499s-68.334 -11 -113.001 -11h-283h-28.5c-9 0 -17.833 0.666992 -26.5 2l-73 -80c-5.33301 -6 -10 -10.167 -14 -12.5s-10 -3.5 -18 -3.5h-60c-6 0 -9.83301 2.16699 -11.5 6.5
s-0.833984 8.5 2.49902 12.5l87 95c-36 13.333 -61 34.833 -75 64.5s-21 68.834 -21 117.501v144c0 36 4 66.833 12 92.5s21.167 46.667 39.5 63s42.666 28.333 72.999 36s68.166 11.5 113.499 11.5h283zM197.003 226.998c0 -30 3.33105 -53 9.99805 -69
s19.334 -27.333 38.001 -34l281 307h-220c-21.333 0 -39 -1.66699 -53 -5s-25.167 -9.33301 -33.5 -18s-14.166 -20 -17.499 -34s-5 -31.333 -5 -52v-95zM671.001 321.998c0 30 -3.49902 52.833 -10.499 68.5s-19.5 26.5 -37.5 32.5l-281 -306h219c22 0 40 1.83301 54 5.5
s25.167 9.66699 33.5 18s14.166 19.5 17.499 33.5s5 31.667 5 53v95z" />
    <glyph glyph-name="ugrave" unicode="&#xf9;" horiz-adv-x="876" 
d="M181 549c14.667 0 22.001 -7.66699 22.001 -23v-289c0 -21.333 1.33301 -39 4 -53s7.66699 -25.167 15 -33.5s17.666 -14.333 30.999 -18s31 -5.5 53 -5.5h257c22 0 40 1.83301 54 5.5s25.167 9.66699 33.5 18s14.166 19.5 17.499 33.5s5 31.667 5 53v289
c0 15.333 7.33301 23 22 23h98c14.667 0 22 -7.66699 22 -23v-324c0 -36 -4 -66.833 -12 -92.5s-21.167 -46.667 -39.5 -63s-42.833 -28.166 -73.5 -35.499s-68.334 -11 -113.001 -11h-279c-45.333 0 -83.166 3.66699 -113.499 11s-54.666 19.166 -72.999 35.499
s-31.5 37.333 -39.5 63s-12 56.5 -12 92.5v324c0 15.333 7.66699 23 23 23h98zM400.001 816c13.333 0 23.668 -7.66699 31.001 -23l91 -185c3.33301 -7.33301 3.5 -13 0.5 -17s-8.5 -6 -16.5 -6h-75c-8 0 -14.167 2 -18.5 6s-8.5 9.66699 -12.5 17l-103 185
c-4 7.33301 -4.33301 13 -1 17s8.66602 6 15.999 6h88z" />
    <glyph glyph-name="uacute" unicode="&#xfa;" horiz-adv-x="876" 
d="M181 549c14.667 0 22.001 -7.66699 22.001 -23v-289c0 -21.333 1.33301 -39 4 -53s7.66699 -25.167 15 -33.5s17.666 -14.333 30.999 -18s31 -5.5 53 -5.5h257c22 0 40 1.83301 54 5.5s25.167 9.66699 33.5 18s14.166 19.5 17.499 33.5s5 31.667 5 53v289
c0 15.333 7.33301 23 22 23h98c14.667 0 22 -7.66699 22 -23v-324c0 -36 -4 -66.833 -12 -92.5s-21.167 -46.667 -39.5 -63s-42.833 -28.166 -73.5 -35.499s-68.334 -11 -113.001 -11h-279c-45.333 0 -83.166 3.66699 -113.499 11s-54.666 19.166 -72.999 35.499
s-31.5 37.333 -39.5 63s-12 56.5 -12 92.5v324c0 15.333 7.66699 23 23 23h98zM564.001 816c7.33301 0 12.666 -2 15.999 -6s3 -9.66699 -1 -17l-103 -185c-4 -7.33301 -8.16699 -13 -12.5 -17s-10.166 -6 -17.499 -6h-76c-7.33301 0 -12.666 2 -15.999 6
s-3.33301 9.66699 0 17l91 185c7.33301 15.333 17.666 23 30.999 23h88z" />
    <glyph glyph-name="ucircumflex" unicode="&#xfb;" horiz-adv-x="876" 
d="M181 549c14.667 0 22.001 -7.66699 22.001 -23v-289c0 -21.333 1.33301 -39 4 -53s7.66699 -25.167 15 -33.5s17.666 -14.333 30.999 -18s31 -5.5 53 -5.5h257c22 0 40 1.83301 54 5.5s25.167 9.66699 33.5 18s14.166 19.5 17.499 33.5s5 31.667 5 53v289
c0 15.333 7.33301 23 22 23h98c14.667 0 22 -7.66699 22 -23v-324c0 -36 -4 -66.833 -12 -92.5s-21.167 -46.667 -39.5 -63s-42.833 -28.166 -73.5 -35.499s-68.334 -11 -113.001 -11h-279c-45.333 0 -83.166 3.66699 -113.499 11s-54.666 19.166 -72.999 35.499
s-31.5 37.333 -39.5 63s-12 56.5 -12 92.5v324c0 15.333 7.66699 23 23 23h98zM481.001 816c11.333 0 20 -2 26 -6s11.667 -10.333 17 -19l106 -181c4.66699 -7.33301 5.5 -13.333 2.5 -18s-8.16699 -7 -15.5 -7h-77c-8 0 -14.333 1.83301 -19 5.5
s-8.66699 9.16699 -12 16.5l-58 111c-3.33301 6 -7.33301 9 -12 9h-4c-6 0 -10.333 -3 -13 -9l-58 -111c-3.33301 -7.33301 -7.33301 -12.833 -12 -16.5s-11 -5.5 -19 -5.5h-77c-7.33301 0 -12.5 2.33301 -15.5 7s-2.16699 10.667 2.5 18l106 181
c5.33301 8.66699 11 15 17 19s14.667 6 26 6h89z" />
    <glyph glyph-name="udieresis" unicode="&#xfc;" horiz-adv-x="876" 
d="M181 549c14.667 0 22.001 -7.66699 22.001 -23v-289c0 -21.333 1.33301 -39 4 -53s7.66699 -25.167 15 -33.5s17.666 -14.333 30.999 -18s31 -5.5 53 -5.5h257c22 0 40 1.83301 54 5.5s25.167 9.66699 33.5 18s14.166 19.5 17.499 33.5s5 31.667 5 53v289
c0 15.333 7.33301 23 22 23h98c14.667 0 22 -7.66699 22 -23v-324c0 -36 -4 -66.833 -12 -92.5s-21.167 -46.667 -39.5 -63s-42.833 -28.166 -73.5 -35.499s-68.334 -11 -113.001 -11h-279c-45.333 0 -83.166 3.66699 -113.499 11s-54.666 19.166 -72.999 35.499
s-31.5 37.333 -39.5 63s-12 56.5 -12 92.5v324c0 15.333 7.66699 23 23 23h98zM627.001 752c14.667 0 22 -7.33301 22 -22v-95c0 -15.333 -7.33301 -23 -22 -23h-98c-14.667 0 -22 7.66699 -22 23v95c0 14.667 7.33301 22 22 22h98zM348.001 752
c14.667 0 22 -7.33301 22 -22v-95c0 -15.333 -7.33301 -23 -22 -23h-98c-15.333 0 -23 7.66699 -23 23v95c0 14.667 7.66699 22 23 22h98z" />
    <glyph glyph-name="yacute" unicode="&#xfd;" horiz-adv-x="830" 
d="M786 549c7.33301 0 12.166 -2.5 14.499 -7.5s1.83301 -10.833 -1.5 -17.5l-384 -677c-13.333 -23.333 -32.166 -40.5 -56.499 -51.5s-58.166 -16.5 -101.499 -16.5h-70c-12 0 -18 6 -18 18v82c0 12 6 18 18 18h59c25.333 0 42.333 7.66699 51 23l54 95
c-16.667 1.33301 -29.5 5.33301 -38.5 12s-17.5 17 -25.5 31l-270 466c-3.33301 6.66699 -3.83301 12.5 -1.5 17.5s7.16602 7.5 14.499 7.5h115c11.333 0 19.333 -4.66699 24 -14l222 -385c5.33301 -9.33301 9.5 -15.5 12.5 -18.5s6.83301 -4.5 11.5 -4.5l235 408
c4.66699 9.33301 12.667 14 24 14h112zM543 816c7.33301 0 12.666 -2 15.999 -6s3 -9.66699 -1 -17l-103 -185c-4 -7.33301 -8.16699 -13 -12.5 -17s-10.166 -6 -17.499 -6h-76c-7.33301 0 -12.666 2 -15.999 6s-3.33301 9.66699 0 17l91 185
c7.33301 15.333 17.666 23 30.999 23h88z" />
    <glyph glyph-name="thorn" unicode="&#xfe;" horiz-adv-x="871" 
d="M181 750c14.667 0 22 -7.33398 22 -22.001v-179h375c44.667 0 82.334 -3.83301 113.001 -11.5s55.167 -19.667 73.5 -36s31.5 -37.333 39.5 -63s12 -56.5 12 -92.5v-144c0 -36 -4 -66.833 -12 -92.5s-21.167 -46.667 -39.5 -63s-42.833 -28.166 -73.5 -35.499
s-68.334 -11 -113.001 -11h-375v-199c0 -14.667 -7.33301 -22 -22 -22h-98c-15.333 0 -23 7.33301 -23 22v927c0 14.667 7.66699 22 23 22h98zM203 119.999l361 0.000976562c22 0 40 1.83301 54 5.5s25.167 9.66699 33.5 18s14.166 19.5 17.499 33.5s5 31.667 5 53v89
c0 20.667 -1.66699 38.167 -5 52.5s-9.16602 25.666 -17.499 33.999s-19.5 14.333 -33.5 18s-32 5.5 -54 5.5h-361v-309z" />
    <glyph glyph-name="ydieresis" unicode="&#xff;" horiz-adv-x="830" 
d="M786 549c7.33301 0 12.166 -2.5 14.499 -7.5s1.83301 -10.833 -1.5 -17.5l-384 -677c-13.333 -23.333 -32.166 -40.5 -56.499 -51.5s-58.166 -16.5 -101.499 -16.5h-70c-12 0 -18 6 -18 18v82c0 12 6 18 18 18h59c25.333 0 42.333 7.66699 51 23l54 95
c-16.667 1.33301 -29.5 5.33301 -38.5 12s-17.5 17 -25.5 31l-270 466c-3.33301 6.66699 -3.83301 12.5 -1.5 17.5s7.16602 7.5 14.499 7.5h115c11.333 0 19.333 -4.66699 24 -14l222 -385c5.33301 -9.33301 9.5 -15.5 12.5 -18.5s6.83301 -4.5 11.5 -4.5l235 408
c4.66699 9.33301 12.667 14 24 14h112zM604 752c14.667 0 22 -7.33301 22 -22v-95c0 -15.333 -7.33301 -23 -22 -23h-98c-14.667 0 -22 7.66699 -22 23v95c0 14.667 7.33301 22 22 22h98zM325 752c14.667 0 22 -7.33301 22 -22v-95c0 -15.333 -7.33301 -23 -22 -23h-98
c-15.333 0 -23 7.66699 -23 23v95c0 14.667 7.66699 22 23 22h98z" />
    <glyph glyph-name="Amacron" unicode="&#x100;" horiz-adv-x="975" 
d="M510 700c25.333 0 46.6709 -5.16699 64.0039 -15.5s34.333 -30.5 51 -60.5l331 -601c3.33301 -6.66699 4.16602 -12.167 2.49902 -16.5s-6.5 -6.5 -14.5 -6.5h-127c-11.333 -0 -19 4.33301 -23 13l-71 129h-470l-69 -129c-4.66699 -8.66699 -12.334 -13 -23.001 -13h-130
c-8.66699 0 -13.834 2.16699 -15.501 6.5s-0.833984 9.83301 2.49902 16.5l328 601c16.667 30 33 50.167 49 60.5s34.667 15.5 56 15.5h59zM316.005 258h344.002l-159 293c-2.66699 4.66699 -6.33398 7 -11.001 7h-6c-4.66699 0 -8.33398 -2.33301 -11.001 -7zM723.007 870
c14.667 0 22 -6 22 -18v-62c0 -12 -7.33301 -18 -22 -18h-470c-14.667 0 -22 6 -22 18v62c0 12 7.33301 18 22 18h470z" />
    <glyph glyph-name="amacron" unicode="&#x101;" 
d="M507 549c44.667 0 82.333 -3.83203 113 -11.499s55.167 -19.667 73.5 -36s31.5 -37.333 39.5 -63s12 -56.5 12 -92.5v-266c0 -16 -1.16699 -29.167 -3.5 -39.5s-6.33301 -18.5 -12 -24.5s-13.167 -10.167 -22.5 -12.5s-21.333 -3.5 -36 -3.5h-476
c-29.333 0 -53.833 2.83301 -73.5 8.5s-35.5 14.167 -47.5 25.5s-20.5 26 -25.5 44s-7.5 39.333 -7.5 64v48c0 20.667 2.5 39.167 7.5 55.5s13.5 30.166 25.5 41.499s27.833 19.833 47.5 25.5s44.167 8.5 73.5 8.5h407v19c0 16 -1.66699 29.667 -5 41s-9 20.5 -17 27.5
s-19 12.167 -33 15.5s-32 5 -54 5h-418c-12 0 -18 6 -18 18v84c0 12 6 18 18 18h432zM572.999 110.001c10.667 0 18.167 2.5 22.5 7.5s6.5 13.833 6.5 26.5v88h-366c-20.667 0 -35.167 -4.16699 -43.5 -12.5s-12.5 -20.5 -12.5 -36.5v-21c0 -18 4.16699 -31.167 12.5 -39.5
s22.833 -12.5 43.5 -12.5h337zM628.999 734.001c14.667 0 22 -7.33301 22 -22v-58c0 -14.667 -7.33301 -22 -22 -22h-469c-15.333 0 -23 7.33301 -23 22v58c0 14.667 7.66699 22 23 22h469z" />
    <glyph glyph-name="Abreve" unicode="&#x102;" horiz-adv-x="975" 
d="M510 700c25.333 0 46.6709 -5.16699 64.0039 -15.5s34.333 -30.5 51 -60.5l331 -601c3.33301 -6.66699 4.16602 -12.167 2.49902 -16.5s-6.5 -6.5 -14.5 -6.5h-127c-11.333 -0 -19 4.33301 -23 13l-71 129h-470l-69 -129c-4.66699 -8.66699 -12.334 -13 -23.001 -13h-130
c-8.66699 0 -13.834 2.16699 -15.501 6.5s-0.833984 9.83301 2.49902 16.5l328 601c16.667 30 33 50.167 49 60.5s34.667 15.5 56 15.5h59zM316.005 258h344.002l-159 293c-2.66699 4.66699 -6.33398 7 -11.001 7h-6c-4.66699 0 -8.33398 -2.33301 -11.001 -7zM248.007 890
c0 12.667 5.99707 19 17.9971 19c7.33301 0 15.666 -3.33301 24.999 -10c5.33301 -4 13.833 -9.66699 25.5 -17s25.834 -14.833 42.501 -22.5s35.834 -14.167 57.501 -19.5s45.167 -8 70.5 -8c26 0 49.833 2.66699 71.5 8s40.834 11.833 57.501 19.5
s30.834 15.167 42.501 22.5s20.167 13 25.5 17c9.33301 6.66699 17.666 10 24.999 10c12 0 18 -6.33301 18 -19v-41c0 -6.66699 -1 -12.5 -3 -17.5s-7.33301 -10.5 -16 -16.5c-9.33301 -6.66699 -21.5 -13.667 -36.5 -21s-32.167 -14 -51.5 -20s-40.333 -11 -63 -15
s-46 -6 -70 -6s-47.167 2 -69.5 6s-43.166 9 -62.499 15s-36.5 12.667 -51.5 20s-27.167 14.333 -36.5 21c-8.66699 6 -14 11.5 -16 16.5s-3 10.833 -3 17.5v41z" />
    <glyph glyph-name="abreve" unicode="&#x103;" 
d="M507 549c44.667 0 82.333 -3.83203 113 -11.499s55.167 -19.667 73.5 -36s31.5 -37.333 39.5 -63s12 -56.5 12 -92.5v-266c0 -16 -1.16699 -29.167 -3.5 -39.5s-6.33301 -18.5 -12 -24.5s-13.167 -10.167 -22.5 -12.5s-21.333 -3.5 -36 -3.5h-476
c-29.333 0 -53.833 2.83301 -73.5 8.5s-35.5 14.167 -47.5 25.5s-20.5 26 -25.5 44s-7.5 39.333 -7.5 64v48c0 20.667 2.5 39.167 7.5 55.5s13.5 30.166 25.5 41.499s27.833 19.833 47.5 25.5s44.167 8.5 73.5 8.5h407v19c0 16 -1.66699 29.667 -5 41s-9 20.5 -17 27.5
s-19 12.167 -33 15.5s-32 5 -54 5h-418c-12 0 -18 6 -18 18v84c0 12 6 18 18 18h432zM572.999 110.001c10.667 0 18.167 2.5 22.5 7.5s6.5 13.833 6.5 26.5v88h-366c-20.667 0 -35.167 -4.16699 -43.5 -12.5s-12.5 -20.5 -12.5 -36.5v-21c0 -18 4.16699 -31.167 12.5 -39.5
s22.833 -12.5 43.5 -12.5h337zM153.999 775.001c0 6 1.66699 11.334 5 16.001s8 7 14 7c7.33301 0 15.666 -3.66699 24.999 -11c5.33301 -4.66699 13.833 -11.334 25.5 -20.001s25.834 -17.334 42.501 -26.001s35.667 -16.167 57 -22.5s45 -9.5 71 -9.5
s49.667 3.16699 71 9.5s40.5 13.833 57.5 22.5s31.167 17.334 42.5 26.001l26 20c4.66699 4 9 6.83301 13 8.5s7.66699 2.5 11 2.5c6 0 10.667 -2.33301 14 -7s5 -10 5 -16v-52c0 -7.33301 -1 -14.166 -3 -20.499s-7.33301 -13.166 -16 -20.499
c-9.33301 -7.33301 -21.5 -15.166 -36.5 -23.499s-32.333 -16 -52 -23s-40.667 -12.667 -63 -17s-45.5 -6.5 -69.5 -6.5s-47.333 2.16699 -70 6.5s-43.5 10 -62.5 17s-36.167 14.667 -51.5 23s-27.333 16.166 -36 23.499c-9.33301 7.33301 -15 14.166 -17 20.499
s-3 13.166 -3 20.499v52z" />
    <glyph glyph-name="Aogonek" unicode="&#x104;" horiz-adv-x="975" 
d="M803 -3l-79.9951 144.999h-470l-69 -129c-4.66699 -8.66699 -12.334 -13 -23.001 -13h-130c-8.66699 0 -13.834 2.16699 -15.501 6.5s-0.833984 9.83301 2.49902 16.5l328 601c16.667 30 33 50.167 49 60.5s34.667 15.5 56 15.5h59
c25.333 0 46.666 -5.16699 63.999 -15.5s34.333 -30.5 51 -60.5l331 -601c4.66699 -10 3 -17.333 -5 -22l-125 -60c-21.333 -10 -35 -19 -41 -27s-9 -19 -9 -33c0 -18 3.66699 -30.167 11 -36.5s21.666 -9.5 42.999 -9.5h84c12 0 18 -6 18 -18v-71c0 -12 -6 -18 -18 -18
h-127c-25.333 0 -46.166 2 -62.499 6s-29.5 10.667 -39.5 20s-17 21.833 -21 37.5s-6 35.167 -6 58.5c0 16 1 30.167 3 42.5s5.66699 23.333 11 33s12.666 17.834 21.999 24.501s21.333 12.667 36 18zM316.005 257.999h344.002l-159 293
c-2.66699 4.66699 -6.33398 7 -11.001 7h-6c-4.66699 0 -8.33398 -2.33301 -11.001 -7z" />
    <glyph glyph-name="aogonek" unicode="&#x105;" 
d="M569 0l-373.999 0.000976562c-29.333 0 -53.833 2.83301 -73.5 8.5s-35.5 14.167 -47.5 25.5s-20.5 26 -25.5 44s-7.5 39.333 -7.5 64v48c0 20.667 2.5 39.167 7.5 55.5s13.5 30.166 25.5 41.499s27.833 19.833 47.5 25.5s44.167 8.5 73.5 8.5h407v19
c0 16 -1.66699 29.667 -5 41s-9 20.5 -17 27.5s-19 12.167 -33 15.5s-32 5 -54 5h-418c-12 0 -18 6 -18 18v84c0 12 6 18 18 18h432c44.667 0 82.334 -3.83301 113.001 -11.5s55.167 -19.667 73.5 -36s31.5 -37.333 39.5 -63s12 -56.5 12 -92.5v-266
c0 -19.333 -1.83301 -34.833 -5.5 -46.5s-11.834 -20.5 -24.501 -26.5l-133 -66c-21.333 -10.667 -35 -19.834 -41 -27.501s-9 -18.5 -9 -32.5c0 -18 3.66699 -30.167 11 -36.5s21.666 -9.5 42.999 -9.5h84c12 0 18 -6 18 -18v-71c0 -12 -6 -18 -18 -18h-127
c-25.333 0 -46.166 2 -62.499 6s-29.5 10.667 -39.5 20s-17 21.833 -21 37.5s-6 35.167 -6 58.5c0 16 1 30.167 3 42.5s5.66699 23.333 11 33s12.666 17.834 21.999 24.501s21.333 12.667 36 18zM573.001 110.001c10.667 0 18.167 2.5 22.5 7.5s6.5 13.833 6.5 26.5v88h-366
c-20.667 0 -35.167 -4.16699 -43.5 -12.5s-12.5 -20.5 -12.5 -36.5v-21c0 -18 4.16699 -31.167 12.5 -39.5s22.833 -12.5 43.5 -12.5h337z" />
    <glyph glyph-name="Cacute" unicode="&#x106;" horiz-adv-x="852" 
d="M789 700c14.667 0 22 -7.33496 22 -22.002v-98c0 -15.333 -7.33301 -23 -22 -23h-445c-26 0 -47.5 -2.16699 -64.5 -6.5s-30.5 -11.666 -40.5 -21.999s-17.167 -24.166 -21.5 -41.499s-6.5 -39.333 -6.5 -66v-142c0 -26.667 2.16699 -48.834 6.5 -66.501
s11.5 -31.667 21.5 -42s23.5 -17.666 40.5 -21.999s38.5 -6.5 64.5 -6.5h445c14.667 0 22 -7.33301 22 -22v-98c0 -14.667 -7.33301 -22 -22 -22h-451c-50.667 0 -93.667 4.66699 -129 14s-64.166 24.5 -86.499 45.5s-38.666 48.333 -48.999 82s-15.5 74.5 -15.5 122.5v172
c0 48 5.16699 88.667 15.5 122s26.666 60.5 48.999 81.5s51.166 36.333 86.499 46s78.333 14.5 129 14.5h451zM593 915.998c7.33301 0 12.667 -1.66699 16 -5s2.66602 -8 -2.00098 -14l-102 -147c-4 -6.66699 -8.16699 -11.5 -12.5 -14.5s-10.166 -4.5 -17.499 -4.5h-76
c-7.33301 0 -12.666 1.66699 -15.999 5s-3 8 1 14l89 147c7.33301 12.667 17.666 19 30.999 19h89z" />
    <glyph glyph-name="cacute" unicode="&#x107;" horiz-adv-x="729" 
d="M679 549c12 0 18 -6 18 -18v-84c0 -12 -6 -18 -18 -18h-388c-22 0 -40 -1.83301 -54 -5.5s-25 -9.66699 -33 -18s-13.667 -19.666 -17 -33.999s-5 -31.833 -5 -52.5v-89c0 -21.333 1.66699 -39 5 -53s9 -25.167 17 -33.5s19 -14.333 33 -18s32 -5.5 54 -5.5h388
c12 0 18 -6 18 -18v-84c0 -12 -6 -18 -18 -18h-402c-45.333 0 -83.166 3.66699 -113.499 11s-54.666 19.166 -72.999 35.499s-31.5 37.333 -39.5 63s-12 56.5 -12 92.5v144c0 36 4 66.833 12 92.5s21.167 46.667 39.5 63s42.666 28.333 72.999 36s68.166 11.5 113.499 11.5
h402zM524 816c7.33301 0 12.666 -2 15.999 -6s3 -9.66699 -1 -17l-103 -185c-4 -7.33301 -8.16699 -13 -12.5 -17s-10.166 -6 -17.499 -6h-76c-7.33301 0 -12.666 2 -15.999 6s-3.33301 9.66699 0 17l91 185c7.33301 15.333 17.666 23 30.999 23h88z" />
    <glyph glyph-name="Cdotaccent" unicode="&#x10a;" horiz-adv-x="852" 
d="M789 700c14.667 0 22 -7.33496 22 -22.002v-98c0 -15.333 -7.33301 -23 -22 -23h-445c-26 0 -47.5 -2.16699 -64.5 -6.5s-30.5 -11.666 -40.5 -21.999s-17.167 -24.166 -21.5 -41.499s-6.5 -39.333 -6.5 -66v-142c0 -26.667 2.16699 -48.834 6.5 -66.501
s11.5 -31.667 21.5 -42s23.5 -17.666 40.5 -21.999s38.5 -6.5 64.5 -6.5h445c14.667 0 22 -7.33301 22 -22v-98c0 -14.667 -7.33301 -22 -22 -22h-451c-50.667 0 -93.667 4.66699 -129 14s-64.166 24.5 -86.499 45.5s-38.666 48.333 -48.999 82s-15.5 74.5 -15.5 122.5v172
c0 48 5.16699 88.667 15.5 122s26.666 60.5 48.999 81.5s51.166 36.333 86.499 46s78.333 14.5 129 14.5h451zM515 884.998c14.667 0 22 -6 22 -18v-95c0 -12 -7.33301 -18 -22 -18h-98c-14.667 0 -22 6 -22 18v95c0 12 7.33301 18 22 18h98z" />
    <glyph glyph-name="cdotaccent" unicode="&#x10b;" horiz-adv-x="729" 
d="M679 549c12 0 18 -6 18 -18v-84c0 -12 -6 -18 -18 -18h-388c-22 0 -40 -1.83301 -54 -5.5s-25 -9.66699 -33 -18s-13.667 -19.666 -17 -33.999s-5 -31.833 -5 -52.5v-89c0 -21.333 1.66699 -39 5 -53s9 -25.167 17 -33.5s19 -14.333 33 -18s32 -5.5 54 -5.5h388
c12 0 18 -6 18 -18v-84c0 -12 -6 -18 -18 -18h-402c-45.333 0 -83.166 3.66699 -113.499 11s-54.666 19.166 -72.999 35.499s-31.5 37.333 -39.5 63s-12 56.5 -12 92.5v144c0 36 4 66.833 12 92.5s21.167 46.667 39.5 63s42.666 28.333 72.999 36s68.166 11.5 113.499 11.5
h402zM443 752c14.667 0 22 -7.33301 22 -22v-95c0 -15.333 -7.33301 -23 -22 -23h-98c-15.333 0 -23 7.66699 -23 23v95c0 14.667 7.66699 22 23 22h98z" />
    <glyph glyph-name="Ccaron" unicode="&#x10c;" horiz-adv-x="852" 
d="M789 700c14.667 0 22 -7.33496 22 -22.002v-98c0 -15.333 -7.33301 -23 -22 -23h-445c-26 0 -47.5 -2.16699 -64.5 -6.5s-30.5 -11.666 -40.5 -21.999s-17.167 -24.166 -21.5 -41.499s-6.5 -39.333 -6.5 -66v-142c0 -26.667 2.16699 -48.834 6.5 -66.501
s11.5 -31.667 21.5 -42s23.5 -17.666 40.5 -21.999s38.5 -6.5 64.5 -6.5h445c14.667 0 22 -7.33301 22 -22v-98c0 -14.667 -7.33301 -22 -22 -22h-451c-50.667 0 -93.667 4.66699 -129 14s-64.166 24.5 -86.499 45.5s-38.666 48.333 -48.999 82s-15.5 74.5 -15.5 122.5v172
c0 48 5.16699 88.667 15.5 122s26.666 60.5 48.999 81.5s51.166 36.333 86.499 46s78.333 14.5 129 14.5h451zM362 915.998c8 0 14.333 -1.5 19 -4.5s8.66699 -7.5 12 -13.5l58 -87c3.33301 -5.33301 7.66602 -8 12.999 -8h4c5.33301 0 9.66602 2.66699 12.999 8l57 87
c4 6 8.33301 10.5 13 13.5s10.667 4.5 18 4.5h78c6.66699 0 11.5 -2 14.5 -6s2.16699 -9 -2.5 -15l-105 -143c-5.33301 -7.33301 -11.166 -12.666 -17.499 -15.999s-15.166 -5 -26.499 -5h-89c-11.333 0 -20 1.66699 -26 5s-11.667 8.66602 -17 15.999l-106 143
c-4.66699 6 -5.5 11 -2.5 15s8.16699 6 15.5 6h77z" />
    <glyph glyph-name="ccaron" unicode="&#x10d;" horiz-adv-x="729" 
d="M679 549c12 0 18 -6 18 -18v-84c0 -12 -6 -18 -18 -18h-388c-22 0 -40 -1.83301 -54 -5.5s-25 -9.66699 -33 -18s-13.667 -19.666 -17 -33.999s-5 -31.833 -5 -52.5v-89c0 -21.333 1.66699 -39 5 -53s9 -25.167 17 -33.5s19 -14.333 33 -18s32 -5.5 54 -5.5h388
c12 0 18 -6 18 -18v-84c0 -12 -6 -18 -18 -18h-402c-45.333 0 -83.166 3.66699 -113.499 11s-54.666 19.166 -72.999 35.499s-31.5 37.333 -39.5 63s-12 56.5 -12 92.5v144c0 36 4 66.833 12 92.5s21.167 46.667 39.5 63s42.666 28.333 72.999 36s68.166 11.5 113.499 11.5
h402zM290 816c8 0 14.333 -1.83301 19 -5.5s8.66699 -9.5 12 -17.5l58 -110c2.66699 -6 7 -9 13 -9h4c4.66699 0 8.66699 3 12 9l58 110c3.33301 8 7.33301 13.833 12 17.5s11 5.5 19 5.5h77c7.33301 0 12.5 -2.33301 15.5 -7s2.16699 -10.667 -2.5 -18l-106 -181
c-5.33301 -8.66699 -11 -15 -17 -19s-14.667 -6 -26 -6h-89c-11.333 0 -20 2 -26 6s-11.667 10.333 -17 19l-106 181c-4.66699 7.33301 -5.5 13.333 -2.5 18s8.16699 7 15.5 7h77z" />
    <glyph glyph-name="Dcaron" unicode="&#x10e;" horiz-adv-x="929" 
d="M564 700c54 0 100.333 -5.49805 139 -16.498s70.334 -28 95.001 -51s42.834 -52.333 54.501 -88s17.5 -77.834 17.5 -126.501v-136c0 -48.667 -5.83301 -90.834 -17.5 -126.501s-29.834 -65 -54.501 -88s-56.334 -40 -95.001 -51s-85 -16.5 -139 -16.5h-468
c-20 0 -30 10 -30 30v640c0 20 10 30 30 30h468zM219 152.002c0 -8.66699 4.33301 -13 13 -13h328c29.333 0 54 2.66699 74 8s36.167 14 48.5 26s21.166 28 26.499 48s8 44.667 8 74v110c0 29.333 -2.66699 54 -8 74s-14.166 36 -26.499 48s-28.5 20.667 -48.5 26
s-44.667 8 -74 8h-328c-8.66699 0 -13 -4.66699 -13 -14v-395zM330 916.002c8 0 14.333 -1.5 19 -4.5s8.66699 -7.5 12 -13.5l58 -87c3.33301 -5.33301 7.66602 -8 12.999 -8h4c5.33301 0 9.66602 2.66699 12.999 8l57 87c4 6 8.33301 10.5 13 13.5s10.667 4.5 18 4.5h78
c6.66699 0 11.5 -2 14.5 -6s2.16699 -9 -2.5 -15l-105 -143c-5.33301 -7.33301 -11.166 -12.666 -17.499 -15.999s-15.166 -5 -26.499 -5h-89c-11.333 0 -20 1.66699 -26 5s-11.667 8.66602 -17 15.999l-106 143c-4.66699 6 -5.5 11 -2.5 15s8.16699 6 15.5 6h77z" />
    <glyph glyph-name="dcaron" unicode="&#x10f;" horiz-adv-x="982" 
d="M668 549l0.000976562 179c0 14.667 7.33301 22 22 22h98c14.667 0 22 -7.33301 22 -22v-526c0 -36 -4 -66.833 -12 -92.5s-21.167 -46.667 -39.5 -63s-42.833 -28.166 -73.5 -35.499s-68.334 -11 -113.001 -11h-280c-45.333 0 -83.166 3.66699 -113.499 11
s-54.666 19.166 -72.999 35.499s-31.5 37.333 -39.5 63s-12 56.5 -12 92.5v144c0 36 4 66.833 12 92.5s21.167 46.667 39.5 63s42.666 28.333 72.999 36s68.166 11.5 113.499 11.5h376zM558.001 120c22 0 40.001 1.83203 54.001 5.49902s25.167 9.66699 33.5 18
s14.166 19.5 17.499 33.5s5 31.667 5 53v199h-362c-21.333 0 -39 -1.83301 -53 -5.5s-25.167 -9.66699 -33.5 -18s-14.166 -19.666 -17.499 -33.999s-5 -31.833 -5 -52.5v-89c0 -21.333 1.66699 -39 5 -53s9.16602 -25.167 17.499 -33.5s19.5 -14.333 33.5 -18
s31.667 -5.5 53 -5.5h252zM986.002 745.999c16.667 0 23.001 -8.66699 19.001 -26l-44 -182c-4 -15.333 -12.333 -23 -25 -23h-57c-16.667 0 -24.334 7.66699 -23.001 23l16 185c1.33301 15.333 9.33301 23 24 23h90z" />
    <glyph glyph-name="Dcroat" unicode="&#x110;" horiz-adv-x="983" 
d="M619 700c54 0 100.333 -5.49805 139 -16.498s70.334 -28 95.001 -51s42.834 -52.333 54.501 -88s17.5 -77.834 17.5 -126.501v-136c0 -48.667 -5.83301 -90.834 -17.5 -126.501s-29.834 -65 -54.501 -88s-56.334 -40 -95.001 -51s-85 -16.5 -139 -16.5h-468
c-20 0 -30 10 -30 30v262h-86c-14.667 0 -22 7.33301 -22 22v79c0 14.667 7.33301 22 22 22h86v255c0 20 10 30 30 30h468zM274 415.002h340c14.667 0 22 -7.33301 22 -22v-79c0 -14.667 -7.33301 -22 -22 -22h-340v-140c0 -8.66699 4.33301 -13 13 -13h328
c29.333 0 54 2.66699 74 8s36.167 14 48.5 26s21.166 28 26.499 48s8 44.667 8 74v110c0 29.333 -2.66699 54 -8 74s-14.166 36 -26.499 48s-28.5 20.667 -48.5 26s-44.667 8 -74 8h-328c-8.66699 0 -13 -4.66699 -13 -14v-132z" />
    <glyph glyph-name="dmacron" unicode="&#x111;" horiz-adv-x="871" 
d="M668 734c2 10.667 9.33398 16 22.001 16h98c12 0 19 -5.33301 21 -16h34c14.667 0 22 -7.33301 22 -22v-58c0 -14.667 -7.33301 -22 -22 -22h-33v-430c0 -36 -4 -66.833 -12 -92.5s-21.167 -46.667 -39.5 -63s-42.833 -28.166 -73.5 -35.499s-68.334 -11 -113.001 -11
h-280c-45.333 0 -83.166 3.66699 -113.499 11s-54.666 19.166 -72.999 35.499s-31.5 37.333 -39.5 63s-12 56.5 -12 92.5v144c0 36 4 66.833 12 92.5s21.167 46.667 39.5 63s42.666 28.333 72.999 36s68.166 11.5 113.499 11.5h376v83h-294c-15.333 0 -23 7.33301 -23 22v58
c0 14.667 7.66699 22 23 22h294zM558.001 120c22 0 40.001 1.83203 54.001 5.49902s25.167 9.66699 33.5 18s14.166 19.5 17.499 33.5s5 31.667 5 53v199h-362c-21.333 0 -39 -1.83301 -53 -5.5s-25.167 -9.66699 -33.5 -18s-14.166 -19.666 -17.499 -33.999
s-5 -31.833 -5 -52.5v-89c0 -21.333 1.66699 -39 5 -53s9.16602 -25.167 17.499 -33.5s19.5 -14.333 33.5 -18s31.667 -5.5 53 -5.5h252z" />
    <glyph glyph-name="Emacron" unicode="&#x112;" horiz-adv-x="850" 
d="M778 700c15.333 0 23 -7.33496 23 -22.002v-95c0 -14.667 -7.66699 -22 -23 -22h-437c-26 0 -47.5 -2.16699 -64.5 -6.5s-30.667 -11.666 -41 -21.999s-17.5 -24.333 -21.5 -42s-6 -39.5 -6 -65.5v-10h565c14.667 0 22 -7.33301 22 -22v-79
c0 -14.667 -7.33301 -22 -22 -22h-565v-17c0 -26 2 -47.833 6 -65.5s11.167 -31.667 21.5 -42s24 -17.666 41 -21.999s38.5 -6.5 64.5 -6.5h437c15.333 0 23 -7.33301 23 -22v-95c0 -14.667 -7.66699 -22 -23 -22h-440c-50.667 0 -93.667 4.66699 -129 14
s-64.166 24.5 -86.499 45.5s-38.666 48.333 -48.999 82s-15.5 74.5 -15.5 122.5v172c0 48 5.16699 88.667 15.5 122s26.666 60.5 48.999 81.5s51.166 36.333 86.499 46s78.333 14.5 129 14.5h440zM700 869.998c14.667 0 22 -6 22 -18v-62c0 -12 -7.33301 -18 -22 -18h-470
c-14.667 0 -22 6 -22 18v62c0 12 7.33301 18 22 18h470z" />
    <glyph glyph-name="emacron" unicode="&#x113;" 
d="M572 549c34 0 62.166 -2.83301 84.499 -8.5s40 -15 53 -28s22.167 -30 27.5 -51s8 -46.5 8 -76.5v-95c0 -21.333 -4.66699 -36.166 -14 -44.499s-23.666 -12.5 -42.999 -12.5h-505v-24c0 -31.333 7.5 -54 22.5 -68s44.167 -21 87.5 -21h417c12 0 18 -6 18 -18v-84
c0 -12 -6 -18 -18 -18h-431c-45.333 0 -83.166 3.66699 -113.499 11s-54.666 19.166 -72.999 35.499s-31.5 37.333 -39.5 63s-12 56.5 -12 92.5v144c0 36 4 66.833 12 92.5s21.167 46.667 39.5 63s42.666 28.333 72.999 36s68.166 11.5 113.499 11.5h293zM182.999 322
l405 -0.000976562c11.333 0 17 5.66699 17 17v42c0 20.667 -4.33301 35.334 -13 44.001s-24.667 13 -48 13h-251c-43.333 0 -72.5 -6.83301 -87.5 -20.5s-22.5 -36.5 -22.5 -68.5v-27zM627.999 733.999c14.667 0 22 -7.33301 22 -22v-58c0 -14.667 -7.33301 -22 -22 -22
h-469c-15.333 0 -23 7.33301 -23 22v58c0 14.667 7.66699 22 23 22h469z" />
    <glyph glyph-name="Ebreve" unicode="&#x114;" horiz-adv-x="850" 
d="M778 700c15.333 0 23 -7.33496 23 -22.002v-95c0 -14.667 -7.66699 -22 -23 -22h-437c-26 0 -47.5 -2.16699 -64.5 -6.5s-30.667 -11.666 -41 -21.999s-17.5 -24.333 -21.5 -42s-6 -39.5 -6 -65.5v-10h565c14.667 0 22 -7.33301 22 -22v-79
c0 -14.667 -7.33301 -22 -22 -22h-565v-17c0 -26 2 -47.833 6 -65.5s11.167 -31.667 21.5 -42s24 -17.666 41 -21.999s38.5 -6.5 64.5 -6.5h437c15.333 0 23 -7.33301 23 -22v-95c0 -14.667 -7.66699 -22 -23 -22h-440c-50.667 0 -93.667 4.66699 -129 14
s-64.166 24.5 -86.499 45.5s-38.666 48.333 -48.999 82s-15.5 74.5 -15.5 122.5v172c0 48 5.16699 88.667 15.5 122s26.666 60.5 48.999 81.5s51.166 36.333 86.499 46s78.333 14.5 129 14.5h440zM226 889.998c0 12.667 5.99707 19 17.9971 19
c7.33301 0 15.666 -3.33301 24.999 -10c5.33301 -4 13.833 -9.66699 25.5 -17s25.834 -14.833 42.501 -22.5s35.834 -14.167 57.501 -19.5s45.167 -8 70.5 -8c26 0 49.833 2.66699 71.5 8s40.834 11.833 57.501 19.5s30.834 15.167 42.501 22.5s20.167 13 25.5 17
c9.33301 6.66699 17.666 10 24.999 10c12 0 18 -6.33301 18 -19v-41c0 -6.66699 -1 -12.5 -3 -17.5s-7.33301 -10.5 -16 -16.5c-9.33301 -6.66699 -21.5 -13.667 -36.5 -21s-32.167 -14 -51.5 -20s-40.333 -11 -63 -15s-46 -6 -70 -6s-47.167 2 -69.5 6
s-43.166 9 -62.499 15s-36.5 12.667 -51.5 20s-27.167 14.333 -36.5 21c-8.66699 6 -14 11.5 -16 16.5s-3 10.833 -3 17.5v41z" />
    <glyph glyph-name="ebreve" unicode="&#x115;" 
d="M572 549c34 0 62.166 -2.83301 84.499 -8.5s40 -15 53 -28s22.167 -30 27.5 -51s8 -46.5 8 -76.5v-95c0 -21.333 -4.66699 -36.166 -14 -44.499s-23.666 -12.5 -42.999 -12.5h-505v-24c0 -31.333 7.5 -54 22.5 -68s44.167 -21 87.5 -21h417c12 0 18 -6 18 -18v-84
c0 -12 -6 -18 -18 -18h-431c-45.333 0 -83.166 3.66699 -113.499 11s-54.666 19.166 -72.999 35.499s-31.5 37.333 -39.5 63s-12 56.5 -12 92.5v144c0 36 4 66.833 12 92.5s21.167 46.667 39.5 63s42.666 28.333 72.999 36s68.166 11.5 113.499 11.5h293zM182.999 322
l405 -0.000976562c11.333 0 17 5.66699 17 17v42c0 20.667 -4.33301 35.334 -13 44.001s-24.667 13 -48 13h-251c-43.333 0 -72.5 -6.83301 -87.5 -20.5s-22.5 -36.5 -22.5 -68.5v-27zM153.999 774.999c0 6 1.66699 11.334 5 16.001s8 7 14 7
c7.33301 0 15.666 -3.66699 24.999 -11c5.33301 -4.66699 13.833 -11.334 25.5 -20.001s25.834 -17.334 42.501 -26.001s35.667 -16.167 57 -22.5s45 -9.5 71 -9.5s49.667 3.16699 71 9.5s40.5 13.833 57.5 22.5s31.167 17.334 42.5 26.001l26 20
c4.66699 4 9 6.83301 13 8.5s7.66699 2.5 11 2.5c6 0 10.667 -2.33301 14 -7s5 -10 5 -16v-52c0 -7.33301 -1 -14.166 -3 -20.499s-7.33301 -13.166 -16 -20.499c-9.33301 -7.33301 -21.5 -15.166 -36.5 -23.499s-32.333 -16 -52 -23s-40.667 -12.667 -63 -17
s-45.5 -6.5 -69.5 -6.5s-47.333 2.16699 -70 6.5s-43.5 10 -62.5 17s-36.167 14.667 -51.5 23s-27.333 16.166 -36 23.499c-9.33301 7.33301 -15 14.166 -17 20.499s-3 13.166 -3 20.499v52z" />
    <glyph glyph-name="Edotaccent" unicode="&#x116;" horiz-adv-x="850" 
d="M778 700c15.333 0 23 -7.33496 23 -22.002v-95c0 -14.667 -7.66699 -22 -23 -22h-437c-26 0 -47.5 -2.16699 -64.5 -6.5s-30.667 -11.666 -41 -21.999s-17.5 -24.333 -21.5 -42s-6 -39.5 -6 -65.5v-10h565c14.667 0 22 -7.33301 22 -22v-79
c0 -14.667 -7.33301 -22 -22 -22h-565v-17c0 -26 2 -47.833 6 -65.5s11.167 -31.667 21.5 -42s24 -17.666 41 -21.999s38.5 -6.5 64.5 -6.5h437c15.333 0 23 -7.33301 23 -22v-95c0 -14.667 -7.66699 -22 -23 -22h-440c-50.667 0 -93.667 4.66699 -129 14
s-64.166 24.5 -86.499 45.5s-38.666 48.333 -48.999 82s-15.5 74.5 -15.5 122.5v172c0 48 5.16699 88.667 15.5 122s26.666 60.5 48.999 81.5s51.166 36.333 86.499 46s78.333 14.5 129 14.5h440zM515 884.998c14.667 0 22 -6 22 -18v-95c0 -12 -7.33301 -18 -22 -18h-98
c-14.667 0 -22 6 -22 18v95c0 12 7.33301 18 22 18h98z" />
    <glyph glyph-name="edotaccent" unicode="&#x117;" 
d="M572 549c34 0 62.166 -2.83301 84.499 -8.5s40 -15 53 -28s22.167 -30 27.5 -51s8 -46.5 8 -76.5v-95c0 -21.333 -4.66699 -36.166 -14 -44.499s-23.666 -12.5 -42.999 -12.5h-505v-24c0 -31.333 7.5 -54 22.5 -68s44.167 -21 87.5 -21h417c12 0 18 -6 18 -18v-84
c0 -12 -6 -18 -18 -18h-431c-45.333 0 -83.166 3.66699 -113.499 11s-54.666 19.166 -72.999 35.499s-31.5 37.333 -39.5 63s-12 56.5 -12 92.5v144c0 36 4 66.833 12 92.5s21.167 46.667 39.5 63s42.666 28.333 72.999 36s68.166 11.5 113.499 11.5h293zM182.999 322
l405 -0.000976562c11.333 0 17 5.66699 17 17v42c0 20.667 -4.33301 35.334 -13 44.001s-24.667 13 -48 13h-251c-43.333 0 -72.5 -6.83301 -87.5 -20.5s-22.5 -36.5 -22.5 -68.5v-27zM442.999 751.999c14.667 0 22 -7.33301 22 -22v-95c0 -15.333 -7.33301 -23 -22 -23h-98
c-15.333 0 -23 7.66699 -23 23v95c0 14.667 7.66699 22 23 22h98z" />
    <glyph glyph-name="Eogonek" unicode="&#x118;" horiz-adv-x="850" 
d="M649 0l-310.999 -0.00292969c-50.667 0 -93.667 4.66699 -129 14s-64.166 24.5 -86.499 45.5s-38.666 48.333 -48.999 82s-15.5 74.5 -15.5 122.5v172c0 48 5.16699 88.667 15.5 122s26.666 60.5 48.999 81.5s51.166 36.333 86.499 46s78.333 14.5 129 14.5h440
c15.333 0 23 -7.33301 23 -22v-95c0 -14.667 -7.66699 -22 -23 -22h-437c-26 0 -47.5 -2.16699 -64.5 -6.5s-30.667 -11.666 -41 -21.999s-17.5 -24.333 -21.5 -42s-6 -39.5 -6 -65.5v-10h565c14.667 0 22 -7.33301 22 -22v-79c0 -14.667 -7.33301 -22 -22 -22h-565v-17
c0 -26 2 -47.833 6 -65.5s11.167 -31.667 21.5 -42s24 -17.666 41 -21.999s38.5 -6.5 64.5 -6.5h437c15.333 0 23 -7.33301 23 -22v-95c0 -10 -4.33301 -17 -13 -21l-126 -60c-21.333 -10 -35 -19 -41 -27s-9 -19 -9 -33c0 -18 3.66699 -30.167 11 -36.5
s21.666 -9.5 42.999 -9.5h84c12 0 18 -6 18 -18v-71c0 -12 -6 -18 -18 -18h-127c-25.333 0 -46.166 2 -62.499 6s-29.5 10.667 -39.5 20s-17 21.833 -21 37.5s-6 35.167 -6 58.5c0 16 1 30.167 3 42.5s5.66699 23.333 11 33s12.666 17.834 21.999 24.501
s21.333 12.667 36 18z" />
    <glyph glyph-name="eogonek" unicode="&#x119;" 
d="M579 0l-300 -0.000976562c-45.333 0 -83.166 3.66699 -113.499 11s-54.666 19.166 -72.999 35.499s-31.5 37.333 -39.5 63s-12 56.5 -12 92.5v144c0 36 4 66.833 12 92.5s21.167 46.667 39.5 63s42.666 28.333 72.999 36s68.166 11.5 113.499 11.5h293
c34 0 62.167 -2.83301 84.5 -8.5s40 -15 53 -28s22.167 -30 27.5 -51s8 -46.5 8 -76.5v-95c0 -21.333 -4.66699 -36.166 -14 -44.499s-23.666 -12.5 -42.999 -12.5h-505v-24c0 -31.333 7.5 -54 22.5 -68s44.167 -21 87.5 -21h417c12 0 18 -6 18 -18v-84
c0 -8.66699 -2.66699 -14 -8 -16l-128 -61c-21.333 -10 -35 -19 -41 -27s-9 -19 -9 -33c0 -18 3.66699 -30.167 11 -36.5s21.666 -9.5 42.999 -9.5h84c12 0 18 -6 18 -18v-71c0 -12 -6 -18 -18 -18h-127c-25.333 0 -46.166 2 -62.499 6s-29.5 10.667 -39.5 20
s-17 21.833 -21 37.5s-6 35.167 -6 58.5c0 16 1 30.167 3 42.5s5.66699 23.333 11 33s12.666 17.834 21.999 24.501s21.333 12.667 36 18zM183 321.999l405 -0.000976562c11.333 0 17 5.66699 17 17v42c0 20.667 -4.33301 35.334 -13 44.001s-24.667 13 -48 13h-251
c-43.333 0 -72.5 -6.83301 -87.5 -20.5s-22.5 -36.5 -22.5 -68.5v-27z" />
    <glyph glyph-name="Ecaron" unicode="&#x11a;" horiz-adv-x="850" 
d="M778 700c15.333 0 23 -7.33496 23 -22.002v-95c0 -14.667 -7.66699 -22 -23 -22h-437c-26 0 -47.5 -2.16699 -64.5 -6.5s-30.667 -11.666 -41 -21.999s-17.5 -24.333 -21.5 -42s-6 -39.5 -6 -65.5v-10h565c14.667 0 22 -7.33301 22 -22v-79
c0 -14.667 -7.33301 -22 -22 -22h-565v-17c0 -26 2 -47.833 6 -65.5s11.167 -31.667 21.5 -42s24 -17.666 41 -21.999s38.5 -6.5 64.5 -6.5h437c15.333 0 23 -7.33301 23 -22v-95c0 -14.667 -7.66699 -22 -23 -22h-440c-50.667 0 -93.667 4.66699 -129 14
s-64.166 24.5 -86.499 45.5s-38.666 48.333 -48.999 82s-15.5 74.5 -15.5 122.5v172c0 48 5.16699 88.667 15.5 122s26.666 60.5 48.999 81.5s51.166 36.333 86.499 46s78.333 14.5 129 14.5h440zM361 915.998c8 0 14.333 -1.5 19 -4.5s8.66699 -7.5 12 -13.5l58 -87
c3.33301 -5.33301 7.66602 -8 12.999 -8h4c5.33301 0 9.66602 2.66699 12.999 8l57 87c4 6 8.33301 10.5 13 13.5s10.667 4.5 18 4.5h78c6.66699 0 11.5 -2 14.5 -6s2.16699 -9 -2.5 -15l-105 -143c-5.33301 -7.33301 -11.166 -12.666 -17.499 -15.999
s-15.166 -5 -26.499 -5h-89c-11.333 0 -20 1.66699 -26 5s-11.667 8.66602 -17 15.999l-106 143c-4.66699 6 -5.5 11 -2.5 15s8.16699 6 15.5 6h77z" />
    <glyph glyph-name="ecaron" unicode="&#x11b;" 
d="M572 549c34 0 62.166 -2.83301 84.499 -8.5s40 -15 53 -28s22.167 -30 27.5 -51s8 -46.5 8 -76.5v-95c0 -21.333 -4.66699 -36.166 -14 -44.499s-23.666 -12.5 -42.999 -12.5h-505v-24c0 -31.333 7.5 -54 22.5 -68s44.167 -21 87.5 -21h417c12 0 18 -6 18 -18v-84
c0 -12 -6 -18 -18 -18h-431c-45.333 0 -83.166 3.66699 -113.499 11s-54.666 19.166 -72.999 35.499s-31.5 37.333 -39.5 63s-12 56.5 -12 92.5v144c0 36 4 66.833 12 92.5s21.167 46.667 39.5 63s42.666 28.333 72.999 36s68.166 11.5 113.499 11.5h293zM182.999 322
l405 -0.000976562c11.333 0 17 5.66699 17 17v42c0 20.667 -4.33301 35.334 -13 44.001s-24.667 13 -48 13h-251c-43.333 0 -72.5 -6.83301 -87.5 -20.5s-22.5 -36.5 -22.5 -68.5v-27zM290.999 815.999c8 0 14.333 -1.83301 19 -5.5s8.66699 -9.5 12 -17.5l58 -110
c2.66699 -6 7 -9 13 -9h4c4.66699 0 8.66699 3 12 9l58 110c3.33301 8 7.33301 13.833 12 17.5s11 5.5 19 5.5h77c7.33301 0 12.5 -2.33301 15.5 -7s2.16699 -10.667 -2.5 -18l-106 -181c-5.33301 -8.66699 -11 -15 -17 -19s-14.667 -6 -26 -6h-89c-11.333 0 -20 2 -26 6
s-11.667 10.333 -17 19l-106 181c-4.66699 7.33301 -5.5 13.333 -2.5 18s8.16699 7 15.5 7h77z" />
    <glyph glyph-name="Gbreve" unicode="&#x11e;" horiz-adv-x="926" 
d="M845 700c14.667 0 22 -7.33496 22 -22.002v-98c0 -15.333 -7.33301 -23 -22 -23h-501c-26 0 -47.5 -2.16699 -64.5 -6.5s-30.5 -11.666 -40.5 -21.999s-17.167 -24.166 -21.5 -41.499s-6.5 -39.333 -6.5 -66v-144c0 -26.667 2.16699 -48.834 6.5 -66.501
s11.5 -31.667 21.5 -42s23.5 -17.666 40.5 -21.999s38.5 -6.5 64.5 -6.5h330c17.333 0 30 4.5 38 13.5s12 24.833 12 47.5v81c0 8.66699 -4 13 -12 13h-293c-14.667 0 -22 7.66699 -22 23v75c0 15.333 7.33301 23 22 23h417c20 0 30 -10 30 -30v-233
c0 -56 -10.667 -95.5 -32 -118.5s-52 -34.5 -92 -34.5h-404c-50.667 0 -93.667 4.66699 -129 14s-64.166 24.5 -86.499 45.5s-38.666 48.333 -48.999 82s-15.5 74.5 -15.5 122.5v172c0 48 5.16699 88.667 15.5 122s26.666 60.5 48.999 81.5s51.166 36.333 86.499 46
s78.333 14.5 129 14.5h507zM242 889.998c0 12.667 5.99707 19 17.9971 19c7.33301 0 15.666 -3.33301 24.999 -10c5.33301 -4 13.833 -9.66699 25.5 -17s25.834 -14.833 42.501 -22.5s35.834 -14.167 57.501 -19.5s45.167 -8 70.5 -8c26 0 49.833 2.66699 71.5 8
s40.834 11.833 57.501 19.5s30.834 15.167 42.501 22.5s20.167 13 25.5 17c9.33301 6.66699 17.666 10 24.999 10c12 0 18 -6.33301 18 -19v-41c0 -6.66699 -1 -12.5 -3 -17.5s-7.33301 -10.5 -16 -16.5c-9.33301 -6.66699 -21.5 -13.667 -36.5 -21s-32.167 -14 -51.5 -20
s-40.333 -11 -63 -15s-46 -6 -70 -6s-47.167 2 -69.5 6s-43.166 9 -62.499 15s-36.5 12.667 -51.5 20s-27.167 14.333 -36.5 21c-8.66699 6 -14 11.5 -16 16.5s-3 10.833 -3 17.5v41z" />
    <glyph glyph-name="gbreve" unicode="&#x11f;" horiz-adv-x="871" 
d="M572 549c45.333 0 83.167 -3.83203 113.5 -11.499s54.833 -19.5 73.5 -35.5s31.834 -36.833 39.501 -62.5s11.5 -56.5 11.5 -92.5v-364c0 -36.667 -3.83301 -67.834 -11.5 -93.501s-20.834 -46.667 -39.501 -63s-43.167 -28.333 -73.5 -36s-68.166 -11.5 -113.499 -11.5
h-471c-12 0 -18 6 -18 18v84c0 12 6 18 18 18h457c22 0 40 1.83301 54 5.5s25.167 9.66699 33.5 18s14.166 19.666 17.499 33.999s5 32.166 5 53.499v26h-376c-45.333 0 -83.166 3.83301 -113.499 11.5s-54.666 19.667 -72.999 36s-31.5 37.333 -39.5 63
s-12 56.834 -12 93.501v105c0 36.667 4 67.834 12 93.501s21.167 46.667 39.5 63s42.666 28.333 72.999 36s68.166 11.5 113.499 11.5h280zM197.001 241.001c0 -17.333 1.66699 -31.832 5 -43.499s9.16602 -21.334 17.499 -29.001s19.5 -13.167 33.5 -16.5s31.667 -5 53 -5
h362v187c0 35.333 -7.5 60.333 -22.5 75s-44.167 22 -87.5 22h-252c-21.333 0 -39 -1.66699 -53 -5s-25.167 -8.83301 -33.5 -16.5s-14.166 -17.5 -17.499 -29.5s-5 -26.333 -5 -43v-96zM195.001 775.002c0 6 1.66699 11.334 5 16.001s8 7 14 7
c7.33301 0 15.666 -3.66699 24.999 -11c5.33301 -4.66699 13.833 -11.334 25.5 -20.001s25.834 -17.334 42.501 -26.001s35.667 -16.167 57 -22.5s45 -9.5 71 -9.5s49.667 3.16699 71 9.5s40.5 13.833 57.5 22.5s31.167 17.334 42.5 26.001l26 20
c4.66699 4 9 6.83301 13 8.5s7.66699 2.5 11 2.5c6 0 10.667 -2.33301 14 -7s5 -10 5 -16v-52c0 -7.33301 -1 -14.166 -3 -20.499s-7.33301 -13.166 -16 -20.499c-9.33301 -7.33301 -21.5 -15.166 -36.5 -23.499s-32.333 -16 -52 -23s-40.667 -12.667 -63 -17
s-45.5 -6.5 -69.5 -6.5s-47.333 2.16699 -70 6.5s-43.5 10 -62.5 17s-36.167 14.667 -51.5 23s-27.333 16.166 -36 23.499c-9.33301 7.33301 -15 14.166 -17 20.499s-3 13.166 -3 20.499v52z" />
    <glyph glyph-name="Gdotaccent" unicode="&#x120;" horiz-adv-x="926" 
d="M845 700c14.667 0 22 -7.33496 22 -22.002v-98c0 -15.333 -7.33301 -23 -22 -23h-501c-26 0 -47.5 -2.16699 -64.5 -6.5s-30.5 -11.666 -40.5 -21.999s-17.167 -24.166 -21.5 -41.499s-6.5 -39.333 -6.5 -66v-144c0 -26.667 2.16699 -48.834 6.5 -66.501
s11.5 -31.667 21.5 -42s23.5 -17.666 40.5 -21.999s38.5 -6.5 64.5 -6.5h330c17.333 0 30 4.5 38 13.5s12 24.833 12 47.5v81c0 8.66699 -4 13 -12 13h-293c-14.667 0 -22 7.66699 -22 23v75c0 15.333 7.33301 23 22 23h417c20 0 30 -10 30 -30v-233
c0 -56 -10.667 -95.5 -32 -118.5s-52 -34.5 -92 -34.5h-404c-50.667 0 -93.667 4.66699 -129 14s-64.166 24.5 -86.499 45.5s-38.666 48.333 -48.999 82s-15.5 74.5 -15.5 122.5v172c0 48 5.16699 88.667 15.5 122s26.666 60.5 48.999 81.5s51.166 36.333 86.499 46
s78.333 14.5 129 14.5h507zM539 884.998c14.667 0 22 -6 22 -18v-95c0 -12 -7.33301 -18 -22 -18h-98c-14.667 0 -22 6 -22 18v95c0 12 7.33301 18 22 18h98z" />
    <glyph glyph-name="gdotaccent" unicode="&#x121;" horiz-adv-x="871" 
d="M572 549c45.333 0 83.167 -3.83203 113.5 -11.499s54.833 -19.5 73.5 -35.5s31.834 -36.833 39.501 -62.5s11.5 -56.5 11.5 -92.5v-364c0 -36.667 -3.83301 -67.834 -11.5 -93.501s-20.834 -46.667 -39.501 -63s-43.167 -28.333 -73.5 -36s-68.166 -11.5 -113.499 -11.5
h-471c-12 0 -18 6 -18 18v84c0 12 6 18 18 18h457c22 0 40 1.83301 54 5.5s25.167 9.66699 33.5 18s14.166 19.666 17.499 33.999s5 32.166 5 53.499v26h-376c-45.333 0 -83.166 3.83301 -113.499 11.5s-54.666 19.667 -72.999 36s-31.5 37.333 -39.5 63
s-12 56.834 -12 93.501v105c0 36.667 4 67.834 12 93.501s21.167 46.667 39.5 63s42.666 28.333 72.999 36s68.166 11.5 113.499 11.5h280zM197.001 241.001c0 -17.333 1.66699 -31.832 5 -43.499s9.16602 -21.334 17.499 -29.001s19.5 -13.167 33.5 -16.5s31.667 -5 53 -5
h362v187c0 35.333 -7.5 60.333 -22.5 75s-44.167 22 -87.5 22h-252c-21.333 0 -39 -1.66699 -53 -5s-25.167 -8.83301 -33.5 -16.5s-14.166 -17.5 -17.499 -29.5s-5 -26.333 -5 -43v-96zM481.001 752.002c14.667 0 22 -7.33301 22 -22v-95c0 -15.333 -7.33301 -23 -22 -23
h-98c-15.333 0 -23 7.66699 -23 23v95c0 14.667 7.66699 22 23 22h98z" />
    <glyph glyph-name="Gcommaaccent" unicode="&#x122;" horiz-adv-x="926" 
d="M845 700c14.667 0 22 -7.33496 22 -22.002v-98c0 -15.333 -7.33301 -23 -22 -23h-501c-26 0 -47.5 -2.16699 -64.5 -6.5s-30.5 -11.666 -40.5 -21.999s-17.167 -24.166 -21.5 -41.499s-6.5 -39.333 -6.5 -66v-144c0 -26.667 2.16699 -48.834 6.5 -66.501
s11.5 -31.667 21.5 -42s23.5 -17.666 40.5 -21.999s38.5 -6.5 64.5 -6.5h330c17.333 0 30 4.5 38 13.5s12 24.833 12 47.5v81c0 8.66699 -4 13 -12 13h-293c-14.667 0 -22 7.66699 -22 23v75c0 15.333 7.33301 23 22 23h417c20 0 30 -10 30 -30v-233
c0 -56 -10.667 -95.5 -32 -118.5s-52 -34.5 -92 -34.5h-404c-50.667 0 -93.667 4.66699 -129 14s-64.166 24.5 -86.499 45.5s-38.666 48.333 -48.999 82s-15.5 74.5 -15.5 122.5v172c0 48 5.16699 88.667 15.5 122s26.666 60.5 48.999 81.5s51.166 36.333 86.499 46
s78.333 14.5 129 14.5h507zM514 -41.002c16.667 0 23.001 -8.66699 19.001 -26l-44 -182c-4 -15.333 -12.333 -23 -25 -23h-57c-16.667 0 -24.334 7.66699 -23.001 23l16 185c1.33301 15.333 9.33301 23 24 23h90z" />
    <glyph glyph-name="gcommaaccent" unicode="&#x123;" horiz-adv-x="871" 
d="M572 549c45.333 0 83.167 -3.83203 113.5 -11.499s54.833 -19.5 73.5 -35.5s31.834 -36.833 39.501 -62.5s11.5 -56.5 11.5 -92.5v-364c0 -36.667 -3.83301 -67.834 -11.5 -93.501s-20.834 -46.667 -39.501 -63s-43.167 -28.333 -73.5 -36s-68.166 -11.5 -113.499 -11.5
h-471c-12 0 -18 6 -18 18v84c0 12 6 18 18 18h457c22 0 40 1.83301 54 5.5s25.167 9.66699 33.5 18s14.166 19.666 17.499 33.999s5 32.166 5 53.499v26h-376c-45.333 0 -83.166 3.83301 -113.499 11.5s-54.666 19.667 -72.999 36s-31.5 37.333 -39.5 63
s-12 56.834 -12 93.501v105c0 36.667 4 67.834 12 93.501s21.167 46.667 39.5 63s42.666 28.333 72.999 36s68.166 11.5 113.499 11.5h280zM197.001 241.001c0 -17.333 1.66699 -31.832 5 -43.499s9.16602 -21.334 17.499 -29.001s19.5 -13.167 33.5 -16.5s31.667 -5 53 -5
h362v187c0 35.333 -7.5 60.333 -22.5 75s-44.167 22 -87.5 22h-252c-21.333 0 -39 -1.66699 -53 -5s-25.167 -8.83301 -33.5 -16.5s-14.166 -17.5 -17.499 -29.5s-5 -26.333 -5 -43v-96zM473.001 816.002c16.667 0 24.333 -7.66699 23 -23l-16 -185
c-1.33301 -15.333 -9 -23 -23 -23h-91c-17.333 0 -23.333 8.33301 -18 25l43 183c4 15.333 12.333 23 25 23h57z" />
    <glyph glyph-name="Hbar" unicode="&#x126;" horiz-adv-x="906" 
d="M66 615v63c0 14.667 7.66699 22 23 22h108c14.667 0 22 -7.33301 22 -22v-63h468v63c0 14.667 7.33301 22 22 22h108c15.333 0 23 -7.33301 23 -22v-63h38c14.667 0 22 -7.33301 22 -22v-58c0 -14.667 -7.33301 -22 -22 -22h-38v-491c0 -14.667 -7.66699 -22 -23 -22
h-108c-14.667 -0 -22 7.33301 -22 22v266h-468v-266c0 -14.667 -7.33301 -22 -22 -22h-108c-15.333 -0 -23 7.33301 -23 22v491h-38c-15.333 0 -23 7.33301 -23 22v58c0 14.667 7.66699 22 23 22h38zM687 418v95h-468v-95h468z" />
    <glyph glyph-name="hbar" unicode="&#x127;" horiz-adv-x="879" 
d="M64 734c2 10.667 9.33203 16.001 21.999 16.001h98c12 0 19 -5.33301 21 -16h292c14.667 0 22 -7.33301 22 -22v-58c0 -14.667 -7.33301 -22 -22 -22h-291v-83h374c44.667 0 82.334 -3.83301 113.001 -11.5s55.167 -19.667 73.5 -36s31.5 -37.333 39.5 -63
s12 -56.5 12 -92.5v-324c0 -14.667 -7.33301 -22 -22 -22h-98c-14.667 0 -22 7.33301 -22 22v290c0 20.667 -1.33301 38.167 -4 52.5s-7.83398 25.666 -15.501 33.999s-18.167 14.333 -31.5 18s-30.666 5.5 -51.999 5.5h-367v-400c0 -14.667 -7.33301 -22 -22 -22h-98
c-14.667 -0 -22 7.33301 -22 22v610h-36c-15.333 0 -23 7.33301 -23 22v58c0 14.667 7.66699 22 23 22h36z" />
    <glyph glyph-name="Itilde" unicode="&#x128;" horiz-adv-x="485" 
d="M297 700c14.667 0 22 -7.33301 22 -22v-656c0 -14.667 -7.33301 -22 -22 -22h-108c-15.333 -0 -23 7.33301 -23 22v656c0 14.667 7.66699 22 23 22h108zM4 743c-8 0 -13.0029 2.16797 -15.0029 6.50098s-3 11.833 -3 22.5c0 27.333 2.33301 50 7 68s12 32.333 22 43
s23 18.167 39 22.5s35 6.5 57 6.5c36 0 66.833 -4.83301 92.5 -14.5s49.834 -23.5 72.501 -41.5c11.333 -9.33301 22 -16.833 32 -22.5s24.667 -8.5 44 -8.5c10 0 18 1 24 3s10.5 5.66699 13.5 11s5.16699 12.5 6.5 21.5s2 20.167 2 33.5c0.666992 14.667 9.66699 22 27 22
h57c7.33301 0 12.166 -2.16699 14.499 -6.5s3.5 -11.833 3.5 -22.5c0 -27.333 -2.33301 -50 -7 -68s-12.167 -32.333 -22.5 -43s-23.5 -18.167 -39.5 -22.5s-35 -6.5 -57 -6.5c-36 0 -66.667 4.83301 -92 14.5s-49.333 23.5 -72 41.5
c-11.333 9.33301 -22.166 16.833 -32.499 22.5s-25.166 8.5 -44.499 8.5s-31.666 -4.83301 -36.999 -14.5s-8 -27.834 -8 -54.501c-0.666992 -14.667 -10 -22 -28 -22h-56z" />
    <glyph glyph-name="itilde" unicode="&#x129;" horiz-adv-x="514" 
d="M18 602c-8 0 -13.168 2.33301 -15.501 7s-3.5 12.667 -3.5 24c0 29.333 2.33301 53.833 7 73.5s12.167 35.334 22.5 47.001s23.333 19.834 39 24.501s34.5 7 56.5 7c36.667 0 67.667 -5.16699 93 -15.5s49.666 -25.166 72.999 -44.499
c10.667 -9.33301 21.167 -17 31.5 -23s25.166 -9 44.499 -9c20 0 32.5 4.83301 37.5 14.5s7.5 28.5 7.5 56.5c0.666992 9.33301 3.33398 15.666 8.00098 18.999s11.334 5 20.001 5h56c8 0 13 -2.33301 15 -7s3 -12.667 3 -24c0 -29.333 -2.33301 -53.833 -7 -73.5
s-12 -35.334 -22 -47.001s-22.833 -19.834 -38.5 -24.501s-34.5 -7 -56.5 -7c-36.667 0 -67.667 5.16699 -93 15.5s-49.666 25.166 -72.999 44.499c-10.667 9.33301 -21.167 17 -31.5 23s-25.166 9 -44.499 9c-20 0 -32.5 -4.83301 -37.5 -14.5s-7.83301 -28.5 -8.5 -56.5
c0 -9.33301 -2.33301 -15.666 -7 -18.999s-11.334 -5 -20.001 -5h-56zM305.999 549c14.667 0 22 -7.66699 22 -23v-504c0 -14.667 -7.33301 -22 -22 -22h-98c-14.667 -0 -22 7.33301 -22 22v504c0 15.333 7.33301 23 22 23h98z" />
    <glyph glyph-name="Imacron" unicode="&#x12a;" horiz-adv-x="458" 
d="M283 700c14.667 0 22 -7.33301 22 -22v-656c0 -14.667 -7.33301 -22 -22 -22h-108c-15.333 -0 -23 7.33301 -23 22v656c0 14.667 7.66699 22 23 22h108zM464 870c14.667 0 22 -6 22 -18v-62c0 -12 -7.33301 -18 -22 -18h-470c-14.667 0 -22 6 -22 18v62
c0 12 7.33301 18 22 18h470z" />
    <glyph glyph-name="imacron" unicode="&#x12b;" horiz-adv-x="496" 
d="M483 734c14.667 0 22 -7.33301 22 -22v-58c0 -14.667 -7.33301 -22 -22 -22h-469c-15.333 0 -23 7.33301 -23 22v58c0 14.667 7.66699 22 23 22h469zM297 549c14.667 0 22 -7.66699 22 -23v-504c0 -14.667 -7.33301 -22 -22 -22h-98c-14.667 -0 -22 7.33301 -22 22v504
c0 15.333 7.33301 23 22 23h98z" />
    <glyph glyph-name="Ibreve" unicode="&#x12c;" horiz-adv-x="437" 
d="M273 700c14.667 0 22 -7.33301 22 -22v-656c0 -14.667 -7.33301 -22 -22 -22h-108c-15.333 -0 -23 7.33301 -23 22v656c0 14.667 7.66699 22 23 22h108zM-20 890c0 12.667 5.99707 19 17.9971 19c7.33301 0 15.666 -3.33301 24.999 -10
c5.33301 -4 13.833 -9.66699 25.5 -17s25.834 -14.833 42.501 -22.5s35.834 -14.167 57.501 -19.5s45.167 -8 70.5 -8c26 0 49.833 2.66699 71.5 8s40.834 11.833 57.501 19.5s30.834 15.167 42.501 22.5s20.167 13 25.5 17c9.33301 6.66699 17.666 10 24.999 10
c12 0 18 -6.33301 18 -19v-41c0 -6.66699 -1 -12.5 -3 -17.5s-7.33301 -10.5 -16 -16.5c-9.33301 -6.66699 -21.5 -13.667 -36.5 -21s-32.167 -14 -51.5 -20s-40.333 -11 -63 -15s-46 -6 -70 -6s-47.167 2 -69.5 6s-43.166 9 -62.499 15s-36.5 12.667 -51.5 20
s-27.167 14.333 -36.5 21c-8.66699 6 -14 11.5 -16 16.5s-3 10.833 -3 17.5v41z" />
    <glyph glyph-name="ibreve" unicode="&#x12d;" horiz-adv-x="469" 
d="M-6 775c0 6 1.66699 11.334 5 16.001s8 7 14 7c7.33301 0 15.666 -3.66699 24.999 -11c5.33301 -4.66699 13.833 -11.334 25.5 -20.001s25.834 -17.334 42.501 -26.001s35.667 -16.167 57 -22.5s45 -9.5 71 -9.5s49.667 3.16699 71 9.5s40.5 13.833 57.5 22.5
s31.167 17.334 42.5 26.001l26 20c4.66699 4 9 6.83301 13 8.5s7.66699 2.5 11 2.5c6 0 10.667 -2.33301 14 -7s5 -10 5 -16v-52c0 -7.33301 -1 -14.166 -3 -20.499s-7.33301 -13.166 -16 -20.499c-9.33301 -7.33301 -21.5 -15.166 -36.5 -23.499s-32.333 -16 -52 -23
s-40.667 -12.667 -63 -17s-45.5 -6.5 -69.5 -6.5s-47.333 2.16699 -70 6.5s-43.5 10 -62.5 17s-36.167 14.667 -51.5 23s-27.333 16.166 -36 23.499c-9.33301 7.33301 -15 14.166 -17 20.499s-3 13.166 -3 20.499v52zM283 549.001c14.667 0 22 -7.66699 22 -23v-504
c0 -14.667 -7.33301 -22 -22 -22h-98c-14.667 0 -22 7.33301 -22 22v504c0 15.333 7.33301 23 22 23h98z" />
    <glyph glyph-name="Iogonek" unicode="&#x12e;" horiz-adv-x="336" 
d="M116 -1l0.000976562 679c0 14.667 7.66699 22 23 22h108c14.667 0 22 -7.33301 22 -22v-656c0 -10 -3 -16.333 -9 -19l-128 -62c-21.333 -10.667 -35 -19.834 -41 -27.501s-9 -18.5 -9 -32.5c0 -18 3.66699 -30.167 11 -36.5s21.666 -9.5 42.999 -9.5h84
c12 0 18 -6 18 -18v-71c0 -12 -6 -18 -18 -18h-127c-25.333 0 -46.166 2 -62.499 6s-29.5 10.667 -39.5 20s-17 21.833 -21 37.5s-6 35.167 -6 58.5c0 16 1 30.167 3 42.5s5.66699 23.333 11 33s12.666 17.834 21.999 24.501s21.333 12.667 36 18z" />
    <glyph glyph-name="iogonek" unicode="&#x12f;" horiz-adv-x="324" 
d="M238 549c14.667 0 22.001 -7.66504 22.001 -22.998v-504c0 -10.667 -3.66699 -17.667 -11 -21l-124 -60c-21.333 -10.667 -35 -19.834 -41 -27.501s-9 -18.5 -9 -32.5c0 -18 3.66699 -30.167 11 -36.5s21.666 -9.5 42.999 -9.5h84c12 0 18 -6 18 -18v-71
c0 -12 -6 -18 -18 -18h-127c-25.333 0 -46.166 2 -62.499 6s-29.5 10.667 -39.5 20s-17 21.833 -21 37.5s-6 35.167 -6 58.5c0 16 1 30.167 3 42.5s5.66699 23.166 11 32.499s12.666 17.5 21.999 24.5s21.333 13.167 36 18.5l89 34v524c0 15.333 7.33301 23 22 23h98z
M239.001 752.002c14.667 0 22 -7.33301 22 -22v-95c0 -15.333 -7.33301 -23 -22 -23h-98c-15.333 0 -23 7.66699 -23 23v95c0 14.667 7.66699 22 23 22h98z" />
    <glyph glyph-name="Idotaccent" unicode="&#x130;" horiz-adv-x="286" 
d="M197 700c14.667 0 22 -7.33301 22 -22v-656c0 -14.667 -7.33301 -22 -22 -22h-108c-15.333 -0 -23 7.33301 -23 22v656c0 14.667 7.66699 22 23 22h108zM191 885c14.667 0 22 -6 22 -18v-95c0 -12 -7.33301 -18 -22 -18h-98c-14.667 0 -22 6 -22 18v95
c0 12 7.33301 18 22 18h98z" />
    <glyph glyph-name="dotlessi" unicode="&#x131;" horiz-adv-x="270" 
d="M184 549c14.667 0 22 -7.66699 22 -23v-504c0 -14.667 -7.33301 -22 -22 -22h-98c-14.667 -0 -22 7.33301 -22 22v504c0 15.333 7.33301 23 22 23h98z" />
    <glyph glyph-name="IJ" unicode="&#x132;" horiz-adv-x="1067" 
d="M197 700c14.667 0 22 -7.33301 22 -22v-656c0 -14.667 -7.33301 -22 -22 -22h-108c-15.333 -0 -23 7.33301 -23 22v656c0 14.667 7.66699 22 23 22h108zM980 700c14.667 0 22.001 -7.33301 22.001 -22v-414c0 -48 -5 -88.833 -15 -122.5s-26.167 -61 -48.5 -82
s-51.333 -36.167 -87 -45.5s-78.834 -14 -129.501 -14h-390c-15.333 -0 -23 7.33301 -23 22v98c0 14.667 7.66699 22 23 22h385c26 0 47.5 2.16699 64.5 6.5s30.5 11.666 40.5 21.999s17 24.333 21 42s6 39.834 6 66.501v399c0 14.667 7.66699 22 23 22h108z" />
    <glyph glyph-name="ij" unicode="&#x133;" horiz-adv-x="552" 
d="M184 549c14.667 0 22 -7.66699 22 -23v-504c0 -14.667 -7.33301 -22 -22 -22h-98c-14.667 -0 -22 7.33301 -22 22v504c0 15.333 7.33301 23 22 23h98zM468 549c14.667 0 21.9971 -7.66895 21.9971 -23.002v-546c0 -36 -3.66699 -66.667 -11 -92
s-19.833 -46.166 -37.5 -62.499s-41.167 -28.166 -70.5 -35.499s-65.666 -11 -108.999 -11h-79c-12 0 -18 6 -18 18v84c0 12 6 18 18 18h65c20 0 36.333 1.83301 49 5.5s22.834 9.66699 30.501 18s12.834 19.5 15.501 33.5s4 31.333 4 52v518c0 15.333 7.66699 23 23 23h98z
M467.997 751.998c14.667 0 22 -7.33301 22 -22v-95c0 -15.333 -7.33301 -23 -22 -23h-98c-15.333 0 -23 7.66699 -23 23v95c0 14.667 7.66699 22 23 22h98zM183.997 751.998c14.667 0 22 -7.33301 22 -22v-95c0 -15.333 -7.33301 -23 -22 -23h-98
c-15.333 0 -23 7.66699 -23 23v95c0 14.667 7.66699 22 23 22h98z" />
    <glyph glyph-name="Kcommaaccent" unicode="&#x136;" horiz-adv-x="854" 
d="M197 700c14.667 0 21.998 -7.33105 21.998 -21.998v-266h141c16 0 29.333 0.5 40 1.5s20 3.16699 28 6.5s15.333 8 22 14s13.667 13.667 21 23l172 230c3.33301 4.66699 6.66602 8 9.99902 10s9.66602 3 18.999 3h124c8.66699 0 13.834 -2.83301 15.501 -8.5
s0.833984 -10.834 -2.49902 -15.501l-194 -251c-11.333 -15.333 -21.833 -28.333 -31.5 -39s-19.167 -20 -28.5 -28c26 -16 51.333 -40 76 -72l205 -260c2.66699 -3.33301 3.66699 -8.5 3 -15.5s-6 -10.5 -16 -10.5h-128c-8.66699 0 -14.667 1 -18 3
s-6.66602 5.33301 -9.99902 10l-184 238c-13.333 17.333 -27.666 29.166 -42.999 35.499s-38.333 9.5 -69 9.5h-152v-274c0 -14.667 -7.33301 -22 -22 -22h-108c-15.333 -0 -23 7.33301 -23 22v656c0 14.667 7.66699 22 23 22h108zM463.998 -40.998
c16.667 0 23.001 -8.66699 19.001 -26l-44 -182c-4 -15.333 -12.333 -23 -25 -23h-57c-16.667 0 -24.334 7.66699 -23.001 23l16 185c1.33301 15.333 9.33301 23 24 23h90z" />
    <glyph glyph-name="kcommaaccent" unicode="&#x137;" horiz-adv-x="794" 
d="M183 750c14.667 0 21.999 -7.33301 21.999 -22v-396h184c14 0 25.833 0.5 35.5 1.5s18.167 3 25.5 6s13.833 7.16699 19.5 12.5s11.834 12.666 18.501 21.999l112 158c4 6 8.16699 10.333 12.5 13s10.166 4 17.499 4h113c7.33301 0 12 -2.83301 14 -8.5
s0.666992 -11.834 -4 -18.501l-129 -177c-20 -27.333 -40.667 -48.666 -62 -63.999c27.333 -15.333 51 -36.666 71 -63.999l142 -192c4 -5.33301 4.83301 -10.833 2.5 -16.5s-7.16602 -8.5 -14.499 -8.5h-112c-8.66699 0 -15 1 -19 3s-8 5.66699 -12 11l-122 168
c-12 16 -24.833 27 -38.5 33s-34.167 9 -61.5 9h-193v-202c0 -14.667 -7.33301 -22 -22 -22h-98c-15.333 -0 -23 7.33301 -23 22v706c0 14.667 7.66699 22 23 22h98zM439.999 -41c16.667 0 23.001 -8.66699 19.001 -26l-44 -182c-4 -15.333 -12.333 -23 -25 -23h-57
c-16.667 0 -24.334 7.66699 -23.001 23l16 185c1.33301 15.333 9.33301 23 24 23h90z" />
    <glyph glyph-name="Lacute" unicode="&#x139;" horiz-adv-x="801" 
d="M195 700c14.667 0 21.998 -7.33301 21.998 -22v-399c0 -26.667 2.16699 -48.834 6.5 -66.501s11.5 -31.667 21.5 -42s23.5 -17.666 40.5 -21.999s38.5 -6.5 64.5 -6.5h405c14.667 0 22 -7.33301 22 -22v-98c0 -14.667 -7.33301 -22 -22 -22h-411
c-50.667 0 -93.667 4.66699 -129 14s-64.166 24.5 -86.499 45.5s-38.666 48.333 -48.999 82s-15.5 74.5 -15.5 122.5v414c0 14.667 7.66699 22 23 22h108zM309.998 916c7.33301 0 12.667 -1.66699 16 -5s2.66602 -8 -2.00098 -14l-102 -147
c-4 -6.66699 -8.16699 -11.5 -12.5 -14.5s-10.166 -4.5 -17.499 -4.5h-76c-7.33301 0 -12.666 1.66699 -15.999 5s-3 8 1 14l89 147c7.33301 12.667 17.666 19 30.999 19h89z" />
    <glyph glyph-name="lacute" unicode="&#x13a;" horiz-adv-x="283" 
d="M295 916c7.33301 0 12.6689 -1.66699 16.002 -5s2.66602 -8 -2.00098 -14l-107 -155c2.66699 -4 4 -8.66699 4 -14v-706c0 -14.667 -7.33301 -22 -22 -22h-98c-14.667 -0 -22 7.33301 -22 22v706c0 14.667 7.33301 22 22 22l89 147c7.33301 12.667 17.666 19 30.999 19
h89z" />
    <glyph glyph-name="Lcommaaccent" unicode="&#x13b;" horiz-adv-x="801" 
d="M195 700c14.667 0 21.998 -7.33301 21.998 -22v-399c0 -26.667 2.16699 -48.834 6.5 -66.501s11.5 -31.667 21.5 -42s23.5 -17.666 40.5 -21.999s38.5 -6.5 64.5 -6.5h405c14.667 0 22 -7.33301 22 -22v-98c0 -14.667 -7.33301 -22 -22 -22h-411
c-50.667 0 -93.667 4.66699 -129 14s-64.166 24.5 -86.499 45.5s-38.666 48.333 -48.999 82s-15.5 74.5 -15.5 122.5v414c0 14.667 7.66699 22 23 22h108zM480.998 -41c16.667 0 23.001 -8.66699 19.001 -26l-44 -182c-4 -15.333 -12.333 -23 -25 -23h-57
c-16.667 0 -24.334 7.66699 -23.001 23l16 185c1.33301 15.333 9.33301 23 24 23h90z" />
    <glyph glyph-name="lcommaaccent" unicode="&#x13c;" horiz-adv-x="270" 
d="M184 750c14.667 0 22 -7.33301 22 -22v-706c0 -14.667 -7.33301 -22 -22 -22h-98c-14.667 -0 -22 7.33301 -22 22v706c0 14.667 7.33301 22 22 22h98zM177 -41c16.667 0 23.001 -8.66699 19.001 -26l-44 -182c-4 -15.333 -12.333 -23 -25 -23h-57
c-16.667 0 -24.334 7.66699 -23.001 23l16 185c1.33301 15.333 9.33301 23 24 23h90z" />
    <glyph glyph-name="Lcaron" unicode="&#x13d;" horiz-adv-x="801" 
d="M195 700c14.667 0 21.998 -7.33301 21.998 -22v-399c0 -26.667 2.16699 -48.834 6.5 -66.501s11.5 -31.667 21.5 -42s23.5 -17.666 40.5 -21.999s38.5 -6.5 64.5 -6.5h405c14.667 0 22 -7.33301 22 -22v-98c0 -14.667 -7.33301 -22 -22 -22h-411
c-50.667 0 -93.667 4.66699 -129 14s-64.166 24.5 -86.499 45.5s-38.666 48.333 -48.999 82s-15.5 74.5 -15.5 122.5v414c0 14.667 7.66699 22 23 22h108zM545.998 746c16.667 0 23.001 -8.66699 19.001 -26l-44 -182c-4 -15.333 -12.333 -23 -25 -23h-57
c-16.667 0 -24.334 7.66699 -23.001 23l16 185c1.33301 15.333 9.33301 23 24 23h90z" />
    <glyph glyph-name="lcaron" unicode="&#x13e;" horiz-adv-x="375" 
d="M184 750c14.667 0 22 -7.33301 22 -22v-706c0 -14.667 -7.33301 -22 -22 -22h-98c-14.667 -0 -22 7.33301 -22 22v706c0 14.667 7.33301 22 22 22h98zM379 746c16.667 0 23.001 -8.66699 19.001 -26l-44 -182c-4 -15.333 -12.333 -23 -25 -23h-57
c-16.667 0 -24.334 7.66699 -23.001 23l16 185c1.33301 15.333 9.33301 23 24 23h90z" />
    <glyph glyph-name="Lslash" unicode="&#x141;" horiz-adv-x="822" 
d="M216 700c14.667 0 21.998 -7.33301 21.998 -22v-165l169 57c12 4 18 0.333008 18 -11v-70c0 -6 -1.33301 -10.167 -4 -12.5s-6.66699 -4.5 -12 -6.5l-171 -58v-133c0 -26.667 2.16699 -48.834 6.5 -66.501s11.5 -31.667 21.5 -42s23.5 -17.666 40.5 -21.999
s38.5 -6.5 64.5 -6.5h405c14.667 0 22 -7.33301 22 -22v-98c0 -14.667 -7.33301 -22 -22 -22h-411c-50.667 0 -93.667 4.66699 -129 14s-64.166 24.5 -86.499 45.5s-38.666 48.333 -48.999 82s-15.5 74.5 -15.5 122.5v96l-61 -21c-12 -4.66699 -18 -0.666992 -18 12v70
c0 6 1.33301 10.167 4 12.5s7 4.5 13 6.5l62 21v217c0 14.667 7.66699 22 23 22h108z" />
    <glyph glyph-name="lslash" unicode="&#x142;" horiz-adv-x="428" 
d="M263 750c14.667 0 22 -7.33301 22 -22v-135l120 41c12 4 18 0.333008 18 -11v-70c0 -6 -1.33301 -10.167 -4 -12.5s-6.66699 -4.5 -12 -6.5l-122 -42v-470c0 -14.667 -7.33301 -22 -22 -22h-98c-14.667 -0 -22 7.33301 -22 22v422l-121 -41
c-12 -4.66699 -18 -0.666992 -18 12v70c0 6 1.33301 10.167 4 12.5s7 4.5 13 6.5l122 41v183c0 14.667 7.33301 22 22 22h98z" />
    <glyph glyph-name="Nacute" unicode="&#x143;" horiz-adv-x="978" 
d="M244 700c16 0 29.333 -0.666992 40 -2s20 -4.16602 28 -8.49902s15.667 -10.333 23 -18s15.666 -17.834 24.999 -30.501l372 -488c2.66699 -4.66699 7 -7 13 -7h9c5.33301 0 8 3.33301 8 10v522c0 14.667 7.33301 22 22 22h105c14.667 0 22 -7.33301 22 -22v-574
c0 -40.667 -7.33301 -68.167 -22 -82.5s-37.334 -21.5 -68.001 -21.5h-86c-15.333 0 -28.166 0.666992 -38.499 2s-19.5 4 -27.5 8s-15.833 9.83301 -23.5 17.5s-16.5 18.167 -26.5 31.5l-373 488c-4 4.66699 -8.33301 7 -13 7h-9c-5.33301 0 -8 -3.33301 -8 -10v-522
c0 -14.667 -7.33301 -22 -22 -22h-105c-15.333 -0 -23 7.33301 -23 22v574c0 40.667 7.33301 68.167 22 82.5s37.334 21.5 68.001 21.5h88zM618 916c7.33301 0 12.667 -1.66699 16 -5s2.66602 -8 -2.00098 -14l-102 -147c-4 -6.66699 -8.16699 -11.5 -12.5 -14.5
s-10.166 -4.5 -17.499 -4.5h-76c-7.33301 0 -12.666 1.66699 -15.999 5s-3 8 1 14l89 147c7.33301 12.667 17.666 19 30.999 19h89z" />
    <glyph glyph-name="nacute" unicode="&#x144;" horiz-adv-x="884" 
d="M585 549c44.667 0 82.334 -3.83301 113.001 -11.5s55.167 -19.667 73.5 -36s31.5 -37.333 39.5 -63s12 -56.5 12 -92.5v-324c0 -14.667 -7.33301 -22 -22 -22h-98c-14.667 -0 -22 7.33301 -22 22v290c0 20.667 -1.33301 38.167 -4 52.5s-7.83398 25.666 -15.501 33.999
s-18.167 14.333 -31.5 18s-30.666 5.5 -51.999 5.5h-266c-21.333 0 -39 -1.83301 -53 -5.5s-25.167 -9.66699 -33.5 -18s-14.166 -19.666 -17.499 -33.999s-5 -31.833 -5 -52.5v-290c0 -14.667 -7.33301 -22 -22 -22h-98c-15.333 -0 -23 7.33301 -23 22v324
c0 36 4 66.833 12 92.5s21.167 46.667 39.5 63s42.666 28.333 72.999 36s68.166 11.5 113.499 11.5h287zM566 816c7.33301 0 12.666 -2 15.999 -6s3 -9.66699 -1 -17l-103 -185c-4 -7.33301 -8.16699 -13 -12.5 -17s-10.166 -6 -17.499 -6h-76
c-7.33301 0 -12.666 2 -15.999 6s-3.33301 9.66699 0 17l91 185c7.33301 15.333 17.666 23 30.999 23h88z" />
    <glyph glyph-name="Ncommaaccent" unicode="&#x145;" horiz-adv-x="978" 
d="M244 700c16 0 29.333 -0.666992 40 -2s20 -4.16602 28 -8.49902s15.667 -10.333 23 -18s15.666 -17.834 24.999 -30.501l372 -488c2.66699 -4.66699 7 -7 13 -7h9c5.33301 0 8 3.33301 8 10v522c0 14.667 7.33301 22 22 22h105c14.667 0 22 -7.33301 22 -22v-574
c0 -40.667 -7.33301 -68.167 -22 -82.5s-37.334 -21.5 -68.001 -21.5h-86c-15.333 0 -28.166 0.666992 -38.499 2s-19.5 4 -27.5 8s-15.833 9.83301 -23.5 17.5s-16.5 18.167 -26.5 31.5l-373 488c-4 4.66699 -8.33301 7 -13 7h-9c-5.33301 0 -8 -3.33301 -8 -10v-522
c0 -14.667 -7.33301 -22 -22 -22h-105c-15.333 -0 -23 7.33301 -23 22v574c0 40.667 7.33301 68.167 22 82.5s37.334 21.5 68.001 21.5h88zM511 -41c16.667 0 23.001 -8.66699 19.001 -26l-44 -182c-4 -15.333 -12.333 -23 -25 -23h-57
c-16.667 0 -24.334 7.66699 -23.001 23l16 185c1.33301 15.333 9.33301 23 24 23h90z" />
    <glyph glyph-name="ncommaaccent" unicode="&#x146;" horiz-adv-x="884" 
d="M585 549c44.667 0 82.334 -3.83301 113.001 -11.5s55.167 -19.667 73.5 -36s31.5 -37.333 39.5 -63s12 -56.5 12 -92.5v-324c0 -14.667 -7.33301 -22 -22 -22h-98c-14.667 -0 -22 7.33301 -22 22v290c0 20.667 -1.33301 38.167 -4 52.5s-7.83398 25.666 -15.501 33.999
s-18.167 14.333 -31.5 18s-30.666 5.5 -51.999 5.5h-266c-21.333 0 -39 -1.83301 -53 -5.5s-25.167 -9.66699 -33.5 -18s-14.166 -19.666 -17.499 -33.999s-5 -31.833 -5 -52.5v-290c0 -14.667 -7.33301 -22 -22 -22h-98c-15.333 -0 -23 7.33301 -23 22v324
c0 36 4 66.833 12 92.5s21.167 46.667 39.5 63s42.666 28.333 72.999 36s68.166 11.5 113.499 11.5h287zM493 -41c16.667 0 23.001 -8.66699 19.001 -26l-44 -182c-4 -15.333 -12.333 -23 -25 -23h-57c-16.667 0 -24.334 7.66699 -23.001 23l16 185
c1.33301 15.333 9.33301 23 24 23h90z" />
    <glyph glyph-name="Ncaron" unicode="&#x147;" horiz-adv-x="978" 
d="M244 700c16 0 29.333 -0.666992 40 -2s20 -4.16602 28 -8.49902s15.667 -10.333 23 -18s15.666 -17.834 24.999 -30.501l372 -488c2.66699 -4.66699 7 -7 13 -7h9c5.33301 0 8 3.33301 8 10v522c0 14.667 7.33301 22 22 22h105c14.667 0 22 -7.33301 22 -22v-574
c0 -40.667 -7.33301 -68.167 -22 -82.5s-37.334 -21.5 -68.001 -21.5h-86c-15.333 0 -28.166 0.666992 -38.499 2s-19.5 4 -27.5 8s-15.833 9.83301 -23.5 17.5s-16.5 18.167 -26.5 31.5l-373 488c-4 4.66699 -8.33301 7 -13 7h-9c-5.33301 0 -8 -3.33301 -8 -10v-522
c0 -14.667 -7.33301 -22 -22 -22h-105c-15.333 -0 -23 7.33301 -23 22v574c0 40.667 7.33301 68.167 22 82.5s37.334 21.5 68.001 21.5h88zM386 916c8 0 14.333 -1.5 19 -4.5s8.66699 -7.5 12 -13.5l58 -87c3.33301 -5.33301 7.66602 -8 12.999 -8h4
c5.33301 0 9.66602 2.66699 12.999 8l57 87c4 6 8.33301 10.5 13 13.5s10.667 4.5 18 4.5h78c6.66699 0 11.5 -2 14.5 -6s2.16699 -9 -2.5 -15l-105 -143c-5.33301 -7.33301 -11.166 -12.666 -17.499 -15.999s-15.166 -5 -26.499 -5h-89c-11.333 0 -20 1.66699 -26 5
s-11.667 8.66602 -17 15.999l-106 143c-4.66699 6 -5.5 11 -2.5 15s8.16699 6 15.5 6h77z" />
    <glyph glyph-name="ncaron" unicode="&#x148;" horiz-adv-x="884" 
d="M585 549c44.667 0 82.334 -3.83301 113.001 -11.5s55.167 -19.667 73.5 -36s31.5 -37.333 39.5 -63s12 -56.5 12 -92.5v-324c0 -14.667 -7.33301 -22 -22 -22h-98c-14.667 -0 -22 7.33301 -22 22v290c0 20.667 -1.33301 38.167 -4 52.5s-7.83398 25.666 -15.501 33.999
s-18.167 14.333 -31.5 18s-30.666 5.5 -51.999 5.5h-266c-21.333 0 -39 -1.83301 -53 -5.5s-25.167 -9.66699 -33.5 -18s-14.166 -19.666 -17.499 -33.999s-5 -31.833 -5 -52.5v-290c0 -14.667 -7.33301 -22 -22 -22h-98c-15.333 -0 -23 7.33301 -23 22v324
c0 36 4 66.833 12 92.5s21.167 46.667 39.5 63s42.666 28.333 72.999 36s68.166 11.5 113.499 11.5h287zM338 816c8 0 14.333 -1.83301 19 -5.5s8.66699 -9.5 12 -17.5l58 -110c2.66699 -6 7 -9 13 -9h4c4.66699 0 8.66699 3 12 9l58 110c3.33301 8 7.33301 13.833 12 17.5
s11 5.5 19 5.5h77c7.33301 0 12.5 -2.33301 15.5 -7s2.16699 -10.667 -2.5 -18l-106 -181c-5.33301 -8.66699 -11 -15 -17 -19s-14.667 -6 -26 -6h-89c-11.333 0 -20 2 -26 6s-11.667 10.333 -17 19l-106 181c-4.66699 7.33301 -5.5 13.333 -2.5 18s8.16699 7 15.5 7h77z
" />
    <glyph glyph-name="Eng" unicode="&#x14a;" horiz-adv-x="977" 
d="M759 421c0 26.667 -2.00195 48.665 -6.00195 65.998s-11 31.166 -21 41.499s-23.5 17.666 -40.5 21.999s-38.5 6.5 -64.5 6.5h-277c-26 0 -47.5 -2.16699 -64.5 -6.5s-30.5 -11.666 -40.5 -21.999s-17.167 -24.166 -21.5 -41.499s-6.5 -39.333 -6.5 -66v-399
c0 -14.667 -7.33301 -22 -22 -22h-108c-15.333 0 -23 7.33301 -23 22v414c0 48 5.16699 88.667 15.5 122s26.666 60.5 48.999 81.5s51.166 36.333 86.499 46s78.333 14.5 129 14.5h288c50.667 0 93.834 -4.83301 129.501 -14.5s64.667 -25 87 -46s38.5 -48.167 48.5 -81.5
s15 -74 15 -122v-456c0 -36 -4.16699 -66.667 -12.5 -92s-22 -46.166 -41 -62.499s-43.667 -28.166 -74 -35.499s-67.166 -11 -110.499 -11h-79c-12 0 -18 6 -18 18v84c0 12 6 18 18 18h65c20 0 36.333 1.83301 49 5.5s22.834 9.66699 30.501 18s12.834 19.5 15.501 33.5
s4 31.333 4 52v413z" />
    <glyph glyph-name="eng" unicode="&#x14b;" horiz-adv-x="884" 
d="M823 -20c0 -36 -3.66895 -66.6689 -11.002 -92.002s-19.833 -46.166 -37.5 -62.499s-41 -28.166 -70 -35.499s-65.167 -11 -108.5 -11h-79c-12 0 -18 6 -18 18v84c0 12 6 18 18 18h65c20 0 36.333 1.83301 49 5.5s22.834 9.66699 30.501 18s12.834 19.5 15.501 33.5
s4 31.333 4 52v304c0 20.667 -1.33301 38.167 -4 52.5s-7.83398 25.666 -15.501 33.999s-18.167 14.333 -31.5 18s-30.666 5.5 -51.999 5.5h-266c-21.333 0 -39 -1.83301 -53 -5.5s-25.167 -9.66699 -33.5 -18s-14.166 -19.666 -17.499 -33.999s-5 -31.833 -5 -52.5v-290
c0 -14.667 -7.33301 -22 -22 -22h-98c-15.333 -0 -23 7.33301 -23 22v324c0 36 4 66.833 12 92.5s21.167 46.667 39.5 63s42.666 28.333 72.999 36s68.166 11.5 113.499 11.5h287c44.667 0 82.334 -3.83301 113.001 -11.5s55.167 -19.667 73.5 -36s31.5 -37.333 39.5 -63
s12 -56.5 12 -92.5v-366z" />
    <glyph glyph-name="Omacron" unicode="&#x14c;" horiz-adv-x="985" 
d="M647 700c50.667 0 93.834 -4.83301 129.501 -14.5s64.667 -25 87 -46s38.5 -48.167 48.5 -81.5s15 -74 15 -122v-172c0 -48 -5 -88.833 -15 -122.5s-26.167 -61 -48.5 -82s-51.333 -36.167 -87 -45.5s-78.834 -14 -129.501 -14h-309c-50.667 0 -93.667 4.66699 -129 14
s-64.166 24.5 -86.499 45.5s-38.666 48.333 -48.999 82s-15.5 74.5 -15.5 122.5v172c0 48 5.16699 88.667 15.5 122s26.666 60.5 48.999 81.5s51.166 36.333 86.499 46s78.333 14.5 129 14.5h309zM211 275c0 -26 2.16699 -47.833 6.5 -65.5s11.5 -31.667 21.5 -42
s23.5 -17.666 40.5 -21.999s38.5 -6.5 64.5 -6.5h297c26 0 47.5 2.16699 64.5 6.5s30.5 11.666 40.5 21.999s17.167 24.333 21.5 42s6.5 39.5 6.5 65.5v150c0 26 -2.16699 47.833 -6.5 65.5s-11.5 31.667 -21.5 42s-23.5 17.666 -40.5 21.999s-38.5 6.5 -64.5 6.5h-297
c-26 0 -47.5 -2.16699 -64.5 -6.5s-30.5 -11.666 -40.5 -21.999s-17.167 -24.333 -21.5 -42s-6.5 -39.5 -6.5 -65.5v-150zM727 870c14.667 0 22 -6 22 -18v-62c0 -12 -7.33301 -18 -22 -18h-470c-14.667 0 -22 6 -22 18v62c0 12 7.33301 18 22 18h470z" />
    <glyph glyph-name="omacron" unicode="&#x14d;" horiz-adv-x="868" 
d="M575 549c44.667 0 82.334 -3.83301 113.001 -11.5s55.167 -19.667 73.5 -36s31.5 -37.333 39.5 -63s12 -56.5 12 -92.5v-144c0 -36 -4 -66.833 -12 -92.5s-21.167 -46.667 -39.5 -63s-42.833 -28.166 -73.5 -35.499s-68.334 -11 -113.001 -11h-283
c-45.333 0 -83.166 3.66699 -113.499 11s-54.666 19.166 -72.999 35.499s-31.5 37.333 -39.5 63s-12 56.5 -12 92.5v144c0 36 4 66.833 12 92.5s21.167 46.667 39.5 63s42.666 28.333 72.999 36s68.166 11.5 113.499 11.5h283zM197 227c0 -21.333 1.66699 -39 5 -53
s9.16602 -25.167 17.499 -33.5s19.5 -14.333 33.5 -18s31.667 -5.5 53 -5.5h255c22 0 40 1.83301 54 5.5s25.167 9.66699 33.5 18s14.166 19.5 17.499 33.5s5 31.667 5 53v95c0 20.667 -1.66699 38 -5 52s-9.16602 25.333 -17.499 34s-19.5 14.667 -33.5 18s-32 5 -54 5
h-255c-21.333 0 -39 -1.66699 -53 -5s-25.167 -9.33301 -33.5 -18s-14.166 -20 -17.499 -34s-5 -31.333 -5 -52v-95zM669 734c14.667 0 22 -7.33301 22 -22v-58c0 -14.667 -7.33301 -22 -22 -22h-469c-15.333 0 -23 7.33301 -23 22v58c0 14.667 7.66699 22 23 22h469z" />
    <glyph glyph-name="Obreve" unicode="&#x14e;" horiz-adv-x="985" 
d="M647 700c50.667 0 93.834 -4.83301 129.501 -14.5s64.667 -25 87 -46s38.5 -48.167 48.5 -81.5s15 -74 15 -122v-172c0 -48 -5 -88.833 -15 -122.5s-26.167 -61 -48.5 -82s-51.333 -36.167 -87 -45.5s-78.834 -14 -129.501 -14h-309c-50.667 0 -93.667 4.66699 -129 14
s-64.166 24.5 -86.499 45.5s-38.666 48.333 -48.999 82s-15.5 74.5 -15.5 122.5v172c0 48 5.16699 88.667 15.5 122s26.666 60.5 48.999 81.5s51.166 36.333 86.499 46s78.333 14.5 129 14.5h309zM211 275c0 -26 2.16699 -47.833 6.5 -65.5s11.5 -31.667 21.5 -42
s23.5 -17.666 40.5 -21.999s38.5 -6.5 64.5 -6.5h297c26 0 47.5 2.16699 64.5 6.5s30.5 11.666 40.5 21.999s17.167 24.333 21.5 42s6.5 39.5 6.5 65.5v150c0 26 -2.16699 47.833 -6.5 65.5s-11.5 31.667 -21.5 42s-23.5 17.666 -40.5 21.999s-38.5 6.5 -64.5 6.5h-297
c-26 0 -47.5 -2.16699 -64.5 -6.5s-30.5 -11.666 -40.5 -21.999s-17.167 -24.333 -21.5 -42s-6.5 -39.5 -6.5 -65.5v-150zM252 890c0 12.667 5.99707 19 17.9971 19c7.33301 0 15.666 -3.33301 24.999 -10c5.33301 -4 13.833 -9.66699 25.5 -17s25.834 -14.833 42.501 -22.5
s35.834 -14.167 57.501 -19.5s45.167 -8 70.5 -8c26 0 49.833 2.66699 71.5 8s40.834 11.833 57.501 19.5s30.834 15.167 42.501 22.5s20.167 13 25.5 17c9.33301 6.66699 17.666 10 24.999 10c12 0 18 -6.33301 18 -19v-41c0 -6.66699 -1 -12.5 -3 -17.5
s-7.33301 -10.5 -16 -16.5c-9.33301 -6.66699 -21.5 -13.667 -36.5 -21s-32.167 -14 -51.5 -20s-40.333 -11 -63 -15s-46 -6 -70 -6s-47.167 2 -69.5 6s-43.166 9 -62.499 15s-36.5 12.667 -51.5 20s-27.167 14.333 -36.5 21c-8.66699 6 -14 11.5 -16 16.5
s-3 10.833 -3 17.5v41z" />
    </font>
</defs>
</svg>
